<svg id="Layer_1" data-name="Layer 1" xmlns="http://www.w3.org/2000/svg" viewBox="0 0 560.64151 579.06941"><title>logo game of thrones</title><path d="M309.56735,562.32416l246.3948-419.75008a33.91311,33.91311,0,0,0-17.1495-48.85L305.52305,4.64781a70.65239,70.65239,0,0,0-50.40459,0L21.82886,93.72406a33.91311,33.91311,0,0,0-17.1495,48.85l246.3948,419.75008A33.9131,33.9131,0,0,0,309.56735,562.32416Z" fill="#c6d8e0"/><path d="M280.32075,567.0696a21.71184,21.71184,0,0,1-18.89795-10.81933l-246.395-419.751a21.91346,21.91346,0,0,1,11.082-31.56494L259.39887,15.85818a58.65978,58.65978,0,0,1,41.84375,0l233.29,89.07617a21.9137,21.9137,0,0,1,11.08106,31.56494l-246.39454,419.75A21.71147,21.71147,0,0,1,280.32075,567.0696Z" fill="#626b6b"/><path d="M547.21976,118.148a21.87476,21.87476,0,0,0-12.85938-13.21387L301.07034,15.858A58.44256,58.44256,0,0,0,280.14847,12V567.06937a21.7115,21.7115,0,0,0,18.89844-10.82031l246.39453-419.75A21.87588,21.87588,0,0,0,547.21976,118.148Z" fill="#243741"/><rect x="265.44877" y="421.4359" width="30.95865" height="70.46785" transform="translate(-1.64812 1.01798) rotate(-0.20701)" fill="#964449" stroke="#964449" stroke-miterlimit="10" stroke-width="1.23274"/><polygon points="295.98 424.124 296.012 432.711 295.561 432.474 274.572 421.461 290.781 421.397 295.53 423.888 295.98 424.124" fill="#72141b" stroke="#72141b" stroke-miterlimit="10" stroke-width="1.23274"/><polygon points="296.587 483.552 265.405 467.148 265.374 458.563 296.556 474.967 296.587 483.552" fill="#72141b" stroke="#72141b" stroke-miterlimit="10" stroke-width="1.23274"/><polygon points="296.443 466.605 265.425 450.201 265.394 441.615 296.412 458.02 296.443 466.605" fill="#72141b" stroke="#72141b" stroke-miterlimit="10" stroke-width="1.23274"/><polygon points="296.382 449.658 265.364 433.253 265.333 424.668 296.351 441.072 296.382 449.658" fill="#72141b" stroke="#72141b" stroke-miterlimit="10" stroke-width="1.23274"/><polygon points="296.53 490.566 296.535 491.842 282.642 491.897 265.993 483.219 265.544 482.986 265.513 474.4 265.962 474.633 296.53 490.566" fill="#72141b" stroke="#72141b" stroke-miterlimit="10" stroke-width="1.23274"/><rect x="262.31716" y="414.67745" width="36.56622" height="6.75117" rx="3.37558" transform="translate(-1.65345 1.11456) rotate(-0.22691)" fill="#72141b" stroke="#72141b" stroke-miterlimit="10" stroke-width="1.23274"/><path d="M295.70009,414.61763l-15.05884.05964.02439,6.75112,15.05884-.05964a3.37914,3.37914,0,0,0-.02439-6.75112Z" fill="#8e3537" stroke="#8e3537" stroke-miterlimit="10" stroke-width="1.23274"/><path d="M359.35557,377.36571l.07943,21.985-1.76756.53741-9.95991,3.0336-.22.06623-2.55963.78268-10.95,3.33348a183.3301,183.3301,0,0,1-40.073,7.47692c-1.01664.077-2.037.14258-3.05368.20042q-5.06517.28528-10.1387.28615-4.85139.00768-9.70376-.24984c-.16523-.007-.33046-.01408-.49568-.02494q-1.6744-.09137-3.34154-.21355a183.57118,183.57118,0,0,1-39.68612-7.37626l-10.4816-3.17172-2.08014-.62981-10.16922-3.07688-.00733,0-.00736-.00382-.35648-.10619-.08822-.02656-.19478-.06074-.02573-.00757-.08452-.02657-.419-.12519-.07943-21.985Z" fill="#8e3537" stroke="#8e3537" stroke-miterlimit="10" stroke-width="1.23274"/><path d="M353.89042,377.15866l.06863,18.99652-1.67079.46493-9.41468,2.62443-.208.0573-2.41951.67711-10.3506,2.88386a187.94672,187.94672,0,0,1-37.8779,6.47343c-.96092.06691-1.92532.12386-2.8863.17417q-4.78752.24813-9.58285.25051-4.58538.00817-9.1716-.21276c-.15617-.006-.31234-.01207-.4685-.0214q-1.58256-.07841-3.15825-.18345a188.08246,188.08246,0,0,1-37.50788-6.36083l-9.90594-2.73722-1.9659-.54353-9.61071-2.65536-.00693,0-.00695-.00329-.3369-.09165-.08338-.02292-.18408-.05242-.02432-.00653-.07988-.02294-.396-.108-.06863-18.99652Z" fill="#964449" stroke="#964449" stroke-miterlimit="10" stroke-width="1.23274"/><path d="M375.0725,384.67932l-.25059-.26422-3.22615-5.87176-.1663-.31067-.94236-1.71434-3.56611-6.4931-1.24538-2.27047-3.1042-5.65315a2.46485,2.46485,0,0,0-.579-.72031l-.011-.00765a6.975,6.975,0,0,0-1.7697-1.073,6.88175,6.88175,0,0,0-2.23763-.52155c-.05507-.00361-.11016-.00724-.1689-.01085-.09179-.00349-.18724-.00311-.28269-.00273l-.00109-.29979c-.09545.00038-.1909.00076-.28265.0088-.05873.00023-.11379.00429-.16883.00836a6.88451,6.88451,0,0,0-2.23379.53926,6.981,6.981,0,0,0-1.7619,1.087l-.011.01156a2.40083,2.40083,0,0,0-.57375.721l-3.06327,5.67758-1.22893,2.28027-3.51912,6.52113-.5944,1.10546-2.81206.01114-3.01949,5.60056-.08411.08872a9.98815,9.98815,0,0,0,.0494,13.67147l6.71037,6.97259,2.55963-.78268,8.14751,8.46591a2.8457,2.8457,0,0,0,4.152-.01645l15.32374-16.16534A7.74917,7.74917,0,0,0,375.0725,384.67932Z" fill="#945155" stroke="#955155" stroke-miterlimit="10" stroke-width="1.23274"/><path d="M223.38009,383.58122l-.08475-.08806-3.05987-5.57648-3.16816.01255-.14414-.26464-3.56245-6.49693-1.249-2.26661-3.10422-5.657a2.447,2.447,0,0,0-.579-.71646c-.00369-.00383-.0037-.00768-.01105-.0115a6.961,6.961,0,0,0-1.76968-1.06919,6.88722,6.88722,0,0,0-2.23764-.5254c-.05507-.00363-.11016-.00724-.16524-.007-.09544-.00347-.19091-.00694-.28268-.00657h-.00368l-.00108-.29981c-.09545.00038-.19089.00461-.28266.00882-.05871.00408-.11379.0043-.16882.00836a6.97918,6.97918,0,0,0-3.99568,1.63014l-.011.00771a2.52834,2.52834,0,0,0-.57373.72487l-3.06327,5.67758-1.22894,2.28029-3.51543,6.52113-.92992,1.72175-.16776.312-3.1836,5.89714-.24867.2662a7.65093,7.65093,0,0,0-2.0692,5.45073c-.00349.05-.0033.10377-.00312.15374a7.61537,7.61537,0,0,0,2.11533,5.28426l15.44009,16.04351a2.83744,2.83744,0,0,0,4.152-.01645l8.70053-9.17837,2.08014.62981,6.42573-6.77864a9.99806,9.99806,0,0,0-.0494-13.67147Z" fill="#945155" stroke="#955155" stroke-miterlimit="10" stroke-width="1.23274"/><path d="M302.20858,392.11166l-4.79352.27853-3.27026.2076-2.3233.14547-3.78041.24854-1.8131.124-4.841.35658.00038.10379,4.84338.31174,1.814.1096,3.055.17609-9.98905.03956L279.90793,61.31856a.13079.13079,0,0,1,.04768-.00668l.09178-.00036a4.63174,4.63174,0,0,1,3.03253,1.05854,9.56327,9.56327,0,0,1,1.70154,2.52375,17.68595,17.68595,0,0,1,.84848,2.15728l.7648,2.36521,1.52958,4.724,6.11833,18.88938,1.53321,4.71749c.50864,1.56816,1.07588,3.11015,1.599,4.62638.52671,1.49023.98022,3.05212,1.39715,4.64662q.63087,2.382,1.10431,4.88136a82.61778,82.61778,0,0,1,1.28887,10.24657c.10544,1.745.15947,3.49008.16952,5.2549l.88273,244.31645c.02043,3.62045.01147,7.241.01355,10.86149.01389,1.81023.04978,3.62033.093,5.4304Z" fill="#b2b2b2" stroke="#b2b2b2" stroke-miterlimit="10" stroke-width="1.2838"/><path d="M280.18692,61.31746,281.3897,394.212l-22.37535.08862-.96174-266.182a81.64419,81.64419,0,0,1,4.06814-26.27461l11.72232-34.46078c1.384-4.07371,3.74828-6.088,6.11254-6.07138l.09178-.00036A1.00245,1.00245,0,0,1,280.18692,61.31746Z" fill="#9d9d9c" stroke="#9d9d9c" stroke-miterlimit="10" stroke-width="1.2838"/><polygon points="291.101 394.467 281.391 394.506 281.389 394.129 286.232 394.306 288.046 394.368 291.101 394.467" fill="#fff" stroke="#fff" stroke-miterlimit="10" stroke-width="1.2664"/><polygon points="303.303 219.374 303.378 240.259 301.533 237.516 293.541 225.615 287.403 216.478 284.451 212.078 280.712 206.512 280.431 206.092 276.965 200.934 274.012 196.534 267.597 186.982 258.215 173.011 258.139 152.125 267.522 166.097 273.937 175.648 276.89 180.042 280.356 185.206 280.636 185.62 284.375 191.192 287.328 195.586 293.466 204.723 301.457 216.623 303.303 219.374" fill="#b2b2b2" stroke="#b2b2b2" stroke-miterlimit="10" stroke-width="1.11194"/><path d="M303.82824,359.786c.00018.05.00034.09609-.00315.14607-.00267.27676-.00531.55735-.01165.83795-.0089.58811-.02512,1.17623-.04135,1.76438l-.08015,3.2174-.02269.83414-.11382-.00339-.63884-.01669-.91788-.02712-4.64081-.12767-1.3774-1.21681-1.94089-1.71039-6.12465-5.40289-2.94633-2.602-3.73077-3.29073-.27989-.24871-.4751-.41708-2.98313-2.63258-2.94631-2.59812-4.05119-3.57388-.18782-.16453-2.16187-1.90938-.46405-.40943-.615-.54335-8.28283-7.30847-.04473-12.38,9.36192,8.26123,5.296,4.6759.313.27549.79183.6964,2.3239,2.051.41986.37118.20256.17983,2.98314,2.63258.4751.41708.27989.24871,3.73077,3.29073,2.94632,2.602,6.12465,5.40289,2.0661,1.82137,5.889,5.20011.01841.01531,1.70149,1.49995v.00384l.13995.12245Z" fill="#706f6f" stroke="#706f6f" stroke-miterlimit="10" stroke-width="1.11194"/><path d="M291.24656,244.79748c-.94,1.97617-2.61316,2.22287-3.73523.55334l-.0037-.00648-2.9528-4.39391-3.739-5.57171-.28049-.41412-3.46588-5.164-2.95279-4.3939-6.415-9.55145L258.31913,201.884l-.04443-12.29527,9.38255,13.97123,6.415,9.55145,2.9528,4.3939,3.46588,5.164.28048.41415,3.739,5.57168,2.9528,4.3939,3.4548,5.14459A7.39787,7.39787,0,0,1,291.24656,244.79748Z" fill="#ededed" stroke="#ededed" stroke-miterlimit="10" stroke-width="0.65462"/><path d="M303.28627,322.032l.03094,8.56424-1.84249-1.91347-7.978-8.27515-6.12812-6.36171-2.948-3.057-3.73287-3.87193-.28-.29267-3.46019-3.58828-2.948-3.06154-1.415-1.46774a3.80214,3.80214,0,0,1-.32131-4.59952,2.539,2.539,0,0,1,1.71032-1.13663,2.25613,2.25613,0,0,1,2.02551.74672l.91754.95,3.4602,3.59283.28.28812,3.73289,3.87648,2.948,3.057,6.12812,6.36171,7.978,8.27515Z" fill="#ededed" stroke="#ededed" stroke-miterlimit="10" stroke-width="0.65462"/><path d="M293.21485,135.21391l.92995,257.38388-2.3233.14547-3.78041.24854-1.8131.124-4.841.35658-1.01441-280.76119C287.40645,112.6833,293.16993,122.78237,293.21485,135.21391Z" fill="#fff" stroke="#fff" stroke-miterlimit="10" stroke-width="1.2664"/><path d="M280.093,112.71238l1.0171,281.50321-12.76484.05055-.93561-258.9517C267.36476,122.88372,273.05458,112.74025,280.093,112.71238Z" fill="#706f6f" stroke="#706f6f" stroke-miterlimit="10" stroke-width="1.2664"/><path d="M281.387,393.47235l.00038.10379,4.84338.31174,1.814.1096.00068.18818-13.31875.05275-.9356-258.94757c-.02288-6.33258,2.78886-11.50844,6.3416-11.77556a1.32763,1.32763,0,0,1,.27891-.02059c1.8429-.0073,3.5107,1.30975,4.72248,3.42662a17.26112,17.26112,0,0,1,1.97576,8.31678l.93128,257.75371-1.8131.124Z" fill="#575756" stroke="#575756" stroke-miterlimit="10" stroke-width="1.2664"/><path d="M277.64576,389.03844l-.91686-253.76078c-.01278-3.53783,1.54186-6.42606,3.53948-6.57527l.10412-.0077.03243-.00678.02545-.0001a3.21812,3.21812,0,0,1,2.64432,1.91957,9.6537,9.6537,0,0,1,1.09983,4.64079l.91686,253.76079Z" fill="#333" stroke="#333" stroke-miterlimit="10" stroke-width="1.2664"/><path d="M303.91424,382.57347c.001.266.0019.52555-.00081.79161-.00542,1.54425-.02552,3.095-.04932,4.63936l-.07215,5.43106-.02062,1.40808-.75271-.03594-5.55913-.27647-.0367.00015-2.84939-.15742-.86659-.05494-1.88-.10289-.60955-.03651-.11751-.006-.4553-.02418-2.59973-.15191-1.814-.1096-4.84338-.31174-.00038-.10379,4.841-.35658,1.8131-.124,2.62059-.17259.35969-.02091.80013-.055.0367-.00015.94327-.06215,1.34333-.08317.21288-.01384.98-.06225.74141-.04836,1.336-.08315,4.79352-.27853-.08457-4.10033c-.04326-1.81007-.07915-3.62017-.093-5.4304.00123-.67478-.00118-1.3431.00006-2.01788.00039-.9019.00078-1.81025.0012-2.71214q-.00006-3.06579-.01481-6.13147L301.13469,127.403c-.01-1.76482-.06408-3.51-.16952-5.2549a82.61778,82.61778,0,0,0-1.28887-10.24657q-.47161-2.49942-1.10431-4.88136c-.41693-1.5945-.87044-3.15639-1.39715-4.64662-.5231-1.51623-1.09034-3.05822-1.599-4.62638l-1.53321-4.71749-6.11833-18.88938-1.52958-4.724-.7648-2.36521a17.68595,17.68595,0,0,0-.84848-2.15728,9.56327,9.56327,0,0,0-1.70154-2.52375,5.11841,5.11841,0,0,0-3.64441-1.74389c2.03645-.28706,4.19247,1.02152,5.68536,3.7148a14.96685,14.96685,0,0,1,.99911,2.18262l.8489,2.27407,1.69413,4.54161,6.78752,18.16656,1.69413,4.54166c.56352,1.529,1.083,3.0582,1.61743,4.65224a77.60751,77.60751,0,0,1,2.65062,10.17623,87.70992,87.70992,0,0,1,1.37579,10.9275c.11316,1.85521.17134,3.73014.18174,5.59226l.88273,244.31645C303.855,375.33269,303.89381,378.95306,303.91424,382.57347Z" fill="none" stroke="#f6f6f6" stroke-miterlimit="10"/><path d="M314.16428,377.54469l-4.30619.017c-.07742-.08809-.15849-.17616-.23958-.26041l-.42007-.43651-5.36214-9.76838-.02286-6.32647c.00634-.2806.009-.56119.01165-.83795l-.01479-.0307-.14042-.25311v-.00384l-1.7073-3.10654-3.48484-6.35119-2.07316-3.77-2.44271-4.45273L291.242,337.0087a7.17773,7.17773,0,0,0-1.56367-1.96557l-.199-.20676-.13243-.07635-.02944-.02295-.01473-.00761a14.06967,14.06967,0,0,0-1.47585-1.02808,13.64156,13.64156,0,0,0-1.964-1.00694c-.32354-.13325-.64706-.25879-.97786-.36512a13.95516,13.95516,0,0,0-3.64069-.71585c-.02571-.00374-.05509-.00362-.0808-.00737-.09545-.00347-.18724-.007-.268-.01048l-.011,0c-.19462-.01075-.39286-.01381-.59479-.013a13.90649,13.90649,0,0,0-2.85138.30341c-.27146.05489-.54291.1213-.81063.19539-.11738.02737-.23473.06242-.35205.10133a14.4423,14.4423,0,0,0-1.77081.65274c-.26758.12021-.53144.24425-.78794.37978-.26748.13942-.53127.29038-.78767.44514a14.83727,14.83727,0,0,0-1.88943,1.35659,7.08369,7.08369,0,0,0-1.66284,2.086l-1.22895,2.27642-.33186.6163-.12762.23881-2.199,4.07523-6.61152,12.2565.0258,7.14127-1.38213,2.56148-.27714.51612-5.29138,9.8106-.41693.43982c-.23407.2469-.45342.49761-.65806.75979l-4.13.01635a16.02956,16.02956,0,0,0-1.7246,7.34811,15.78962,15.78962,0,0,0,4.38258,10.95994l17.76532,18.45958q1.669.12024,3.34154.21355l6.773,7.0377a4.73013,4.73013,0,0,0,6.909-.02736l6.65614-7.02171c1.01671-.05784,2.037-.12337,3.05368-.20042l17.73385-18.704a15.809,15.809,0,0,0,4.29957-10.99814A16.06523,16.06523,0,0,0,314.16428,377.54469Z" fill="#945155" stroke="#955155" stroke-miterlimit="10" stroke-width="1.23274"/><polygon points="281.389 394.067 281.389 394.129 281.11 394.118 280.64 394.101 281.11 394.08 281.389 394.067" fill="#f6f6f6" stroke="#f6f6f6" stroke-miterlimit="10"/><path d="M309.68216,394.91626,284.195,421.8032a4.73013,4.73013,0,0,1-6.909.02736l-25.68069-26.68429a12.67033,12.67033,0,0,1-3.51571-8.79176c-.00031-.08454-.00061-.16911.00643-.25369l-.00018-.05c.00305-.173.00979-.34212.02017-.51513l0-.00382a.03887.03887,0,0,1,.00355-.03462v-.00384l.03151-.42676c.01048-.14226.02466-.28067.04619-.423.01786-.13846.03937-.28076.06089-.4192s.04673-.27694.07193-.4154a.62068.62068,0,0,1,.02525-.11925c.01794-.11923.04322-.23463.07216-.35005a.66429.66429,0,0,1,.02173-.08081c.03251-.15.06869-.29623.11221-.44244q.02177-.0808.04351-.15008c.04352-.15392.087-.304.13788-.45026.04721-.1424.09444-.281.149-.41568.04722-.13855.09813-.26945.15641-.40037.03635-.09623.07642-.18863.11646-.281.02911-.07314.06189-.14245.09469-.21176.05828-.12323.11659-.24646.17855-.3697a2.04254,2.04254,0,0,1,.124-.23495,2.72206,2.72206,0,0,1,.14588-.26963,1.57123,1.57123,0,0,1,.13133-.22728c.05472-.10016.11307-.20417.1788-.30052a1.88062,1.88062,0,0,1,.11682-.1811c.04744-.08091.10221-.16568.16065-.24663a.16626.16626,0,0,1,.03289-.04241q.0767-.11562.16437-.23128c.14973-.21583.31417-.42787.486-.63228.106-.12724.212-.2545.32537-.37795.07678-.0887.15721-.17741.23768-.2623l.41691-.43983,6.947-12.88048,9.27-17.183,2.32662-4.3102,1.56078-2.89657a4.11006,4.11006,0,0,1,.95383-1.2068,11.59538,11.59538,0,0,1,1.50494-1.07834,11.30538,11.30538,0,0,1,2.73067-1.20231,1.75425,1.75425,0,0,1,.2017-.05847,11.21932,11.21932,0,0,1,2.97214-.41149l.00367,0c.15786-.00062.31573.0026.47.00966.09544.00347.18723.007.279.01429a11.46658,11.46658,0,0,1,3.722.86928,11.67121,11.67121,0,0,1,2.94337,1.78329c.00736.00382.01106.0115.01843.01532a4.13857,4.13857,0,0,1,.96248,1.19538l5.16257,9.404L296.061,352.929l5.92757,10.80007,1.56687,2.85343.28087.51394,5.36214,9.76838.42007.43651c.08109.08425.16216.17232.23958.26041a.73075.73075,0,0,1,.07372.08043c.07373.08426.14745.17239.22487.26047a.492.492,0,0,1,.059.06895.80844.80844,0,0,1,.07374.09195,6.41125,6.41125,0,0,1,.39836.51732c.08852.115.16974.23763.25092.35646a.52517.52517,0,0,1,.05537.08048c.10332.1495.19932.299.288.4524.096.15722.18839.31828.27707.47936.02215.03451.04067.07286.05914.10739.07021.12657.13675.25313.196.38359a.26012.26012,0,0,1,.03331.07289c.07027.14194.13686.28388.19979.42969a2.39264,2.39264,0,0,1,.1037.24943c.05551.12661.10737.25325.15188.37991.0667.17271.12608.34541.18545.522a.803.803,0,0,1,.026.0883c.04826.14971.09284.29559.13376.44534a.19621.19621,0,0,1,.01488.0499c.03719.13437.07439.27259.10427.41086a.4668.4668,0,0,1,.01862.07678c.02609.10753.05218.215.07094.32644.03733.169.071.3418.09731.51464.015.08836.03.18054.045.26888l.01136.09219c.02266.17673.04533.35345.06064.53018A12.78653,12.78653,0,0,1,309.68216,394.91626Z" fill="#964348" stroke="#964348" stroke-miterlimit="10" stroke-width="1.23274"/><path d="M281.0067,365.42693l-.0006,0,.1301,36.009.00061,0c9.49752-.03762,17.16765-8.129,17.13172-18.07263S290.50423,365.38931,281.0067,365.42693Z" fill="#d1bd04" stroke="#d2bd03" stroke-miterlimit="10" stroke-width="1.41097"/><path d="M280.48748,365.429l.00061,0,.1301,36.009-.00061,0c-9.49752.03762-17.22589-7.99278-17.26182-17.93641S270.99,365.4666,280.48748,365.429Z" fill="#d1bb1c" stroke="#d1bb1c" stroke-miterlimit="10" stroke-width="1.41097"/><ellipse cx="280.97313" cy="382.55793" rx="14.24521" ry="17.13074" transform="translate(-1.08319 0.79793) rotate(-0.1624)" fill="#f1e419" stroke="#f1e419" stroke-miterlimit="10" stroke-width="1.31855"/><path d="M269.61695,383.47681c-.03593-9.94363,5.1867-18.02532,11.66509-18.051-8.67323.03435-15.67515,8.12308-15.63922,18.06671s7.09609,17.97668,15.76932,17.94233C274.93376,401.46053,269.65288,393.42042,269.61695,383.47681Z" fill="#d8c834" stroke="#d8c834" stroke-miterlimit="10" stroke-width="1.55299"/><path d="M281.282,365.42584c6.47836-.02566,11.75926,8.01443,11.79519,17.95806s-5.18673,18.02532-11.66509,18.051c8.6732-.03435,15.67512-8.12311,15.63919-18.06672S289.95524,365.39149,281.282,365.42584Z" fill="#d8c834" stroke="#d8c834" stroke-miterlimit="10" stroke-width="1.55299"/><ellipse cx="291.65325" cy="391.39143" rx="2.39018" ry="2.50245" fill="#eee583" stroke="#eee581" stroke-miterlimit="10" stroke-width="1.2303"/><path d="M280.4263,335.86388l.31417,86.95617a4.75488,4.75488,0,0,1-3.45988-1.47681l-6.27172-6.47985-19.40842-20.05257a12.547,12.547,0,0,1-3.50363-8.50108l-.00013-.0344a12.61773,12.61773,0,0,1,2.78241-8.22407c.20464-.26069.424-.51.65807-.75549l.41694-.43734,5.29158-9.75509.27715-.51321,1.38218-2.547.16409-.30256,5.84958-10.78537,2.0459-3.76874,1.21076-2.23291,2.14071-3.94493,1.74319-3.21339a4.123,4.123,0,0,1,.95387-1.19618c.00731-.00386.011-.0115.01829-.01535a11.79,11.79,0,0,1,2.93044-1.79638c.28589-.12344.57553-.2316.87253-.33215.20167-.06576.41071-.12773.61977-.18207a11.196,11.196,0,0,1,2.22335-.37953c.09175-.008.18351-.01218.279-.01638C280.1106,335.869,280.26844,335.8645,280.4263,335.86388Z" fill="#8d3536" stroke="#8d3536" stroke-miterlimit="10" stroke-width="1.23274"/><path d="M280.85463,365.42753l.00057,0,.1301,36.009-.00057,0c-8.95185.03545-16.23787-7.9967-16.2738-17.94033S271.90278,365.463,280.85463,365.42753Z" fill="#d1bb1c" stroke="#d1bb1c" stroke-miterlimit="10" stroke-width="1.41097"/><path d="M268.685,383.4805c-.03483-9.63952,4.87227-17.52868,11.07438-18.02569.1957-.01093.39334-.014.59074-.018l.13,35.99445c-.19741-.00248-.39507-.00392-.59085-.01331C273.68382,400.97009,268.71986,393.12,268.685,383.4805Z" fill="#a9984c" stroke="#d2bd03" stroke-miterlimit="10" stroke-width="1.41097"/><path d="M277.45422,365.75193c-7.28291,1.58805-12.77512,8.936-12.7433,17.74431s5.577,16.11255,12.87116,17.64287a18.17368,18.17368,0,0,1-.12786-35.38718Z" fill="#a9984c" stroke="#d2bd03" stroke-miterlimit="10" stroke-width="1.41097"/><path d="M280.41433,366.45865l.12378,34.26124c-6.51179.02579-11.81835-7.623-11.85253-17.08393S273.90253,366.48444,280.41433,366.45865Z" fill="#f1e419" stroke="#f1e419" stroke-miterlimit="10" stroke-width="1.31855"/><path d="M281.01135,365.4342l.12453,34.46813c-7.31436.029-13.2717-7.6635-13.30609-17.18161S273.697,365.46317,281.01135,365.4342Z" fill="#e1ce36" stroke="#e1ce34" stroke-miterlimit="10" stroke-width="1.31855"/><path d="M221.5505,396.41453l-6.62688,6.987-8.70053,9.17837a2.83744,2.83744,0,0,1-4.152.01645L186.631,396.55283a7.61537,7.61537,0,0,1-2.11533-5.28426c-.00018-.05-.00037-.10376.00312-.15374a7.61545,7.61545,0,0,1,2.07394-5.15479l.24869-.26234,4.17549-7.746,5.57586-10.3306,1.40034-2.5923.9372-1.741a2.41813,2.41813,0,0,1,.57376-.72487,6.57267,6.57267,0,0,1,.90444-.64931,6.75764,6.75764,0,0,1,1.64206-.72143.71694.71694,0,0,1,.121-.03505,6.651,6.651,0,0,1,1.78695-.24923h.00368c.09177-.00037.18724.0031.28268.00657.05508-.00022.11017.00339.16524.007a6.88722,6.88722,0,0,1,2.23764.5254,6.961,6.961,0,0,1,1.76968,1.06919c.00735.00382.00736.00767.01105.0115a2.447,2.447,0,0,1,.579.71646l3.10422,5.657,1.249,2.26661,3.56245,6.49693.14414.26464.79822,1.44973.17.30681,3.22249,5.87562.25425.26036A7.74916,7.74916,0,0,1,221.5505,396.41453Z" fill="#964348" stroke="#964348" stroke-miterlimit="10" stroke-width="1.23274"/><path d="M204.30743,378.68367l-.00036,0,.07823,21.65116h.00036a10.83707,10.83707,0,0,0-.07823-21.65119Z" fill="#d1bd04" stroke="#d2bd03" stroke-miterlimit="10" stroke-width="1.41097"/><path d="M203.99524,378.68491h.00036l.07823,21.65116-.00036,0a10.83707,10.83707,0,0,1-.07823-21.65119Z" fill="#d1bb1c" stroke="#d1bb1c" stroke-miterlimit="10" stroke-width="1.41097"/><path d="M197.4591,389.53655c-.0216-5.97882,3.11862-10.8381,7.01388-10.85353-5.215.02065-9.425,4.88417-9.4034,10.863s4.26667,10.80885,9.48163,10.7882C200.656,400.34963,197.48071,395.51535,197.4591,389.53655Z" fill="#d8c834" stroke="#d8c834" stroke-miterlimit="10" stroke-width="1.55299"/><path d="M204.473,378.683c3.89525-.01543,7.07051,4.81884,7.09211,10.79766s-3.11863,10.8381-7.01388,10.85353c5.21494-.02066,9.425-4.88419,9.40339-10.863S209.68793,378.66237,204.473,378.683Z" fill="#d8c834" stroke="#d8c834" stroke-miterlimit="10" stroke-width="1.55299"/><ellipse cx="210.70889" cy="394.29538" rx="1.43715" ry="1.50465" fill="#eee583" stroke="#eee581" stroke-miterlimit="10" stroke-width="1.2303"/><path d="M203.95745,360.60811l.19,52.58343a2.86451,2.86451,0,0,1-2.0811-.89115L186.62622,396.253a7.75035,7.75035,0,0,1-.03825-10.58894l.24867-.2662,3.1836-5.89714.16776-.312.92992-1.72175,3.51543-6.52113,1.22894-2.28029,3.06327-5.67758a2.52834,2.52834,0,0,1,.57373-.72487l.011-.00771a6.97918,6.97918,0,0,1,3.99568-1.63014c.055-.00406.11011-.00428.16882-.00836C203.76656,360.61272,203.862,360.60849,203.95745,360.60811Z" fill="#8d3536" stroke="#8d3536" stroke-miterlimit="10" stroke-width="1.23274"/><path d="M204.216,378.684h.00035l.07822,21.65116h-.00034c-5.38249.02132-9.76336-4.80818-9.785-10.787S198.83351,378.70535,204.216,378.684Z" fill="#d1bb1c" stroke="#d1bb1c" stroke-miterlimit="10" stroke-width="1.41097"/><path d="M196.89877,389.53877c-.02094-5.796,2.92955-10.53949,6.6587-10.83833.11767-.00657.23651-.00838.35519-.01081l.0782,21.64241c-.1187-.00149-.23755-.00236-.35526-.008C199.9044,400.05475,196.91971,395.3347,196.89877,389.53877Z" fill="#a9984c" stroke="#d2bd03" stroke-miterlimit="10" stroke-width="1.41097"/><path d="M202.17143,378.87909c-4.379.95485-7.68131,5.37294-7.66218,10.66914s3.35328,9.688,7.739,10.60814a10.9273,10.9273,0,0,1-.07687-21.27728Z" fill="#a9984c" stroke="#d2bd03" stroke-miterlimit="10" stroke-width="1.41097"/><path d="M203.95125,379.304l.07443,20.60029c-3.91535.0155-7.106-4.58346-7.12658-10.27207S200.0359,379.31952,203.95125,379.304Z" fill="#f1e419" stroke="#f1e419" stroke-miterlimit="10" stroke-width="1.31855"/><path d="M204.31023,378.688l.07488,20.72468c-4.39792.01742-7.97989-4.60784-8.00057-10.3308S199.91231,378.70547,204.31023,378.688Z" fill="#e1ce36" stroke="#e1ce34" stroke-miterlimit="10" stroke-width="1.31855"/><path d="M375.11077,395.27211,359.787,411.43745a2.8457,2.8457,0,0,1-4.152.01645l-8.14751-8.46591-7.29626-7.57759a7.62126,7.62126,0,0,1-2.11167-5.28809c-.00018-.05-.00037-.10379.00312-.15377a7.60246,7.60246,0,0,1,2.07028-5.15093l.25235-.2662,3.84364-7.12587.33186-.61628,5.57585-10.33445,1.39671-2.58841.94085-1.741a2.43653,2.43653,0,0,1,.57374-.72871,6.88705,6.88705,0,0,1,.90445-.64546,6.647,6.647,0,0,1,1.64205-.72525c.04034-.0117.077-.02337.121-.03508a6.82539,6.82539,0,0,1,1.787-.24538c.09545-.00038.1909-.00076.28269.00273.05874.00361.11383.00724.1689.01085a6.88175,6.88175,0,0,1,2.23763.52155,6.975,6.975,0,0,1,1.7697,1.073l.011.00765a2.46485,2.46485,0,0,1,.579.72031l3.1042,5.65315,1.24538,2.27047,3.56611,6.4931.94236,1.71434.1663.31067,3.22615,5.87176.25059.26422A7.74917,7.74917,0,0,1,375.11077,395.27211Z" fill="#964348" stroke="#964348" stroke-miterlimit="10" stroke-width="1.23274"/><path d="M357.87063,377.53941l-.00036,0,.07823,21.65116h.00036a10.83707,10.83707,0,0,0-.07823-21.65119Z" fill="#d1bd04" stroke="#d2bd03" stroke-miterlimit="10" stroke-width="1.41097"/><path d="M357.55844,377.54065h.00037l.07822,21.65116-.00036,0a10.83707,10.83707,0,0,1-.07823-21.65119Z" fill="#d1bb1c" stroke="#d1bb1c" stroke-miterlimit="10" stroke-width="1.41097"/><path d="M351.02231,388.39229c-.02161-5.97882,3.11861-10.83811,7.01387-10.85353-5.21495.02065-9.425,4.88417-9.4034,10.863s4.26667,10.80885,9.48163,10.7882C354.21915,399.20537,351.04391,394.37109,351.02231,388.39229Z" fill="#d8c834" stroke="#d8c834" stroke-miterlimit="10" stroke-width="1.55299"/><path d="M358.03618,377.53876c3.89525-.01543,7.07051,4.81884,7.09211,10.79766s-3.11863,10.8381-7.01388,10.85353c5.21494-.02066,9.425-4.88419,9.40339-10.863S363.25113,377.5181,358.03618,377.53876Z" fill="#d8c834" stroke="#d8c834" stroke-miterlimit="10" stroke-width="1.55299"/><ellipse cx="364.27209" cy="393.15112" rx="1.43715" ry="1.50465" fill="#eee583" stroke="#eee581" stroke-miterlimit="10" stroke-width="1.2303"/><path d="M357.52139,359.46569l.19,52.58343a2.84137,2.84137,0,0,1-2.08112-.895l-15.44009-16.04348a7.75532,7.75532,0,0,1-.03827-10.59279l.24868-.26237,3.18359-5.901.1641-.30815.3355-.62015.5944-1.10546,3.51912-6.52113,1.22893-2.28027,3.06327-5.67758a2.40083,2.40083,0,0,1,.57375-.721l.011-.01156a6.981,6.981,0,0,1,1.7619-1.087,6.88451,6.88451,0,0,1,2.23379-.53926c.055-.00407.1101-.00813.16883-.00836C357.33049,359.46645,357.42594,359.46607,357.52139,359.46569Z" fill="#8d3536" stroke="#8d3536" stroke-miterlimit="10" stroke-width="1.23274"/><path d="M357.77919,377.53978h.00035l.07822,21.65116h-.00034c-5.38248.02132-9.76336-4.80818-9.785-10.787S352.39671,377.56109,357.77919,377.53978Z" fill="#d1bb1c" stroke="#d1bb1c" stroke-miterlimit="10" stroke-width="1.41097"/><path d="M350.462,388.3945c-.02094-5.796,2.92955-10.53948,6.6587-10.83832.11767-.00657.23651-.00839.35519-.01082l.0782,21.64242c-.1187-.00149-.23755-.00236-.35526-.008C353.4676,398.91048,350.48291,394.19044,350.462,388.3945Z" fill="#a9984c" stroke="#d2bd03" stroke-miterlimit="10" stroke-width="1.41097"/><path d="M355.73463,377.73483c-4.379.95485-7.68131,5.37293-7.66217,10.66914s3.35327,9.688,7.73905,10.60814a10.9273,10.9273,0,0,1-.07688-21.27728Z" fill="#a9984c" stroke="#d2bd03" stroke-miterlimit="10" stroke-width="1.41097"/><path d="M357.51445,378.15976l.07443,20.60029c-3.91535.0155-7.106-4.58346-7.12658-10.27207S353.5991,378.17526,357.51445,378.15976Z" fill="#f1e419" stroke="#f1e419" stroke-miterlimit="10" stroke-width="1.31855"/><path d="M357.87343,377.54379l.07488,20.72468c-4.39792.01742-7.97989-4.60784-8.00057-10.3308S353.47551,377.56121,357.87343,377.54379Z" fill="#e1ce36" stroke="#e1ce34" stroke-miterlimit="10" stroke-width="1.31855"/><path d="M287.97277,493.88008l-15.05885.05964.02439,6.75113,15.05885-.05964a3.37914,3.37914,0,0,0-.02439-6.75113Z" fill="#964449" stroke="#964449" stroke-miterlimit="10" stroke-width="1.23274"/><rect x="262.75793" y="491.91187" width="36.56622" height="6.75117" rx="3.37558" transform="translate(-1.95932 1.11691) rotate(-0.22691)" fill="#72141b" stroke="#72141b" stroke-miterlimit="10" stroke-width="1.23274"/><path d="M296.14087,491.852l-15.05885.05964.02439,6.75113,15.05885-.05964a3.37914,3.37914,0,0,0-.02439-6.75113Z" fill="#8e3537" stroke="#8e3537" stroke-miterlimit="10" stroke-width="1.23274"/><path d="M267.43393,491.58509l11.59245-12.50291a2.11959,2.11959,0,0,1,3.14272-.01245l11.68247,12.41074a5.96436,5.96436,0,0,1,1.59953,4.08881c.00014.03932.00028.07865-.00292.118l.00008.02324c-.00138.08044-.00444.1591-.00915.23956v.00178a.01841.01841,0,0,1-.00162.0161v.00179l-.01432.19846c-.00476.06616-.01121.13053-.021.1967-.00811.06439-.01789.13057-.02768.195s-.02124.12879-.0327.19319a.29448.29448,0,0,1-.01148.05545c-.00816.05545-.01965.10911-.03281.16279a.31567.31567,0,0,1-.00988.03758c-.01479.06977-.03124.13776-.051.20576q-.00988.03758-.01978.06979c-.01979.07158-.03958.14137-.0627.20939-.02148.06622-.043.13065-.06778.19331-.02148.06443-.04463.1253-.07113.18619-.01653.04475-.03476.08772-.053.13069-.01324.034-.02814.06625-.04306.09848-.02651.05731-.053.11461-.0812.17193a.9573.9573,0,0,1-.05638.10925,1.27411,1.27411,0,0,1-.06635.12539.734.734,0,0,1-.05973.10569c-.02488.04658-.05142.095-.08132.13976a.87622.87622,0,0,1-.05313.08421c-.02158.03763-.04649.07705-.07307.11469a.07691.07691,0,0,1-.015.01972q-.03487.05378-.07476.10756c-.0681.10036-.14289.199-.221.294-.04822.05917-.09643.11835-.148.17576-.03492.04124-.0715.0825-.1081.122l-.18963.20453-3.15955,5.98987-4.216,7.99068-1.05817,2.00439-.70985,1.347a1.90455,1.90455,0,0,1-.43383.56119,5.27621,5.27621,0,0,1-.68452.50143,5.08541,5.08541,0,0,1-1.24206.559.78718.78718,0,0,1-.09175.02718,4.99823,4.99823,0,0,1-1.35193.19124h-.00167c-.07181.00029-.14362-.00122-.21377-.00451-.04342-.00162-.08517-.00324-.12693-.00665a5.12154,5.12154,0,0,1-1.69309-.40442,5.28937,5.28937,0,0,1-1.33892-.82945l-.00839-.00712a1.91788,1.91788,0,0,1-.43785-.556l-2.34867-4.37362-.94316-1.75515-2.69669-5.02289-.71284-1.32706-.12778-.239-2.43946-4.54306-.19109-.203c-.03689-.03919-.07377-.08015-.109-.12112a.33553.33553,0,0,1-.03353-.03741c-.03355-.03918-.06708-.08017-.1023-.12114a.22662.22662,0,0,1-.02684-.03207.374.374,0,0,1-.03355-.04276,2.97442,2.97442,0,0,1-.18122-.2406c-.04027-.05346-.07722-.11052-.11415-.16578a.24515.24515,0,0,1-.02519-.03743c-.047-.06953-.09068-.13907-.131-.21041-.04368-.07312-.0857-.148-.12605-.22293-.01008-.01606-.0185-.03389-.0269-.05-.032-.05887-.06222-.11773-.08915-.1784a.12217.12217,0,0,1-.01515-.0339c-.032-.066-.06227-.132-.0909-.19984a1.12619,1.12619,0,0,1-.04718-.116c-.02526-.05888-.04885-.11778-.0691-.17669-.03035-.08032-.05736-.16064-.08437-.24276a.37736.37736,0,0,1-.01184-.04106c-.022-.06963-.04225-.13748-.06086-.20712a.09272.09272,0,0,1-.00677-.02321c-.01693-.06249-.03385-.12677-.04745-.19107a.22052.22052,0,0,1-.00847-.03571c-.01188-.05-.02375-.1-.03228-.15182-.017-.07858-.0323-.159-.04429-.23934l-.02049-.125-.00516-.04288c-.01032-.08219-.02064-.16437-.02761-.24656A6.02914,6.02914,0,0,1,267.43393,491.58509Z" fill="#8d3536" stroke="#8d3536" stroke-miterlimit="10" stroke-width="1.23274"/><path d="M281.18222,518.70173l-.14631-40.43957a2.04914,2.04914,0,0,1,1.5271.68712l2.76849,3.01407,8.56737,9.32735a6.00374,6.00374,0,0,1,1.547,3.95381l0,.016a6.07226,6.07226,0,0,1-1.22724,3.8244c-.09029.12121-.18708.23713-.29037.35128l-.184.20335-2.33449,4.53619-.12228.23864-.60978,1.18437-.07239.14069-2.58067,5.01527-.90259,1.75249-.53416,1.03832-.94442,1.83442-.769,1.49425a1.90224,1.90224,0,0,1-.42086.5562l-.00808.00714a5.13369,5.13369,0,0,1-.65764.49316,5.06347,5.06347,0,0,1-.6355.342c-.12616.05738-.254.10766-.38505.15439-.089.03056-.18125.05936-.27351.08461a4.71122,4.71122,0,0,1-.98121.1763c-.04049.00371-.081.00565-.12311.0076C281.32155,518.6994,281.25189,518.70145,281.18222,518.70173Z" fill="#964348" stroke="#964348" stroke-miterlimit="10" stroke-width="1.23274"/><path d="M281.75169,488.79374h-.00029l.06269,17.352h.00029a8.6852,8.6852,0,0,0-.06269-17.352Z" fill="#d1bd04" stroke="#d2bd03" stroke-miterlimit="10" stroke-width="1.41097"/><path d="M281.50149,488.79473h.00029l.06269,17.352h-.00029a8.6852,8.6852,0,0,1-.06269-17.352Z" fill="#d1bb1c" stroke="#d1bb1c" stroke-miterlimit="10" stroke-width="1.41097"/><path d="M276.26321,497.4916c-.01731-4.79162,2.49936-8.686,5.62116-8.69838-4.17945.01655-7.55352,3.91434-7.53621,8.706s3.41946,8.66258,7.5989,8.646C278.82526,506.15758,276.28052,502.28321,276.26321,497.4916Z" fill="#d8c834" stroke="#d8c834" stroke-miterlimit="10" stroke-width="1.55299"/><path d="M281.88437,488.79322c3.12178-.01237,5.66654,3.862,5.68385,8.65361s-2.49937,8.686-5.62116,8.69838c4.17943-.01655,7.55351-3.91435,7.5362-8.706S286.0638,488.77666,281.88437,488.79322Z" fill="#d8c834" stroke="#d8c834" stroke-miterlimit="10" stroke-width="1.55299"/><ellipse cx="286.88203" cy="501.30549" rx="1.15178" ry="1.20588" fill="#eee583" stroke="#eee581" stroke-miterlimit="10" stroke-width="1.2303"/><path d="M281.67841,488.794h.00027l.06269,17.352h-.00027c-4.31371.01708-7.82468-3.85344-7.842-8.64507S277.3647,488.81112,281.67841,488.794Z" fill="#d1bb1c" stroke="#d1bb1c" stroke-miterlimit="10" stroke-width="1.41097"/><path d="M275.81414,497.49338c-.01679-4.64508,2.34784-8.4467,5.3365-8.6862.09431-.00527.18955-.00672.28467-.00867l.06267,17.345c-.09513-.0012-.19038-.0019-.28472-.00642C278.223,505.92124,275.83092,502.13844,275.81414,497.49338Z" fill="#a9984c" stroke="#d2bd03" stroke-miterlimit="10" stroke-width="1.41097"/><path d="M280.03982,488.95035c-3.50948.76525-6.15606,4.30606-6.14072,8.55061s2.68743,7.7643,6.20233,8.50173a8.75752,8.75752,0,0,1-.06161-17.05234Z" fill="#a9984c" stroke="#d2bd03" stroke-miterlimit="10" stroke-width="1.41097"/><path d="M281.46624,489.29091l.05965,16.50977c-3.1379.01242-5.695-3.67334-5.71149-8.23239S278.32834,489.30333,281.46624,489.29091Z" fill="#f1e419" stroke="#f1e419" stroke-miterlimit="10" stroke-width="1.31855"/><path d="M281.75393,488.79725l.06,16.60946c-3.52464.014-6.39535-3.69288-6.41192-8.27945S278.22929,488.81121,281.75393,488.79725Z" fill="#e1ce36" stroke="#e1ce34" stroke-miterlimit="10" stroke-width="1.31855"/></svg>