<svg id="Layer_1" data-name="Layer 1" xmlns="http://www.w3.org/2000/svg" viewBox="0 0 154.43157 154.92939"><title>logo</title><path d="M88.796,148.36133l63.7178-106.557a13.49268,13.49268,0,0,0-6.84458-19.55895L94.84616,3.1956a50.23188,50.23188,0,0,0-35.26075,0L8.76232,22.24536a13.49269,13.49269,0,0,0-6.84458,19.559l63.7178,106.557A13.49268,13.49268,0,0,0,88.796,148.36133Z" fill="#c6d8e0"/><path d="M76.43462,149.95259a5.84075,5.84075,0,0,1-5.065-2.84659L5.33158,36.6686a5.66232,5.66232,0,0,1-.47649-4.82846A5.80547,5.80547,0,0,1,8.30176,28.3638L70.8272,4.92767a15.9963,15.9963,0,0,1,11.21484,0l62.5257,23.43613a5.806,5.806,0,0,1,3.44653,3.4766,5.66273,5.66273,0,0,1-.47662,4.8282L81.49972,147.10574A5.84066,5.84066,0,0,1,76.43462,149.95259Z" fill="#626b6b"/><path d="M147.9681,31.84034a5.806,5.806,0,0,0-3.44653-3.4766L81.99586,4.92761a15.923,15.923,0,0,0-5.60741-1.015v146.04a5.84066,5.84066,0,0,0,5.0651-2.84685L147.49148,36.66854A5.66273,5.66273,0,0,0,147.9681,31.84034Z" fill="#243741"/><polygon points="82.449 100.77 82.549 123.225 70.481 123.264 70.382 100.809 82.449 100.77" fill="#964449" stroke="#964449" stroke-miterlimit="10" stroke-width="1.23274"/><polygon points="82.333 101.646 82.345 104.382 82.169 104.307 73.987 100.797 80.306 100.777 82.157 101.57 82.333 101.646" fill="#72141b" stroke="#72141b" stroke-miterlimit="10" stroke-width="1.23274"/><polygon points="82.569 120.584 70.414 115.356 70.402 112.62 82.557 117.848 82.569 120.584" fill="#72141b" stroke="#72141b" stroke-miterlimit="10" stroke-width="1.23274"/><polygon points="82.513 115.183 70.422 109.956 70.41 107.22 82.501 112.447 82.513 115.183" fill="#72141b" stroke="#72141b" stroke-miterlimit="10" stroke-width="1.23274"/><polygon points="82.489 109.782 70.398 104.555 70.386 101.819 82.477 107.047 82.489 109.782" fill="#72141b" stroke="#72141b" stroke-miterlimit="10" stroke-width="1.23274"/><polygon points="82.547 122.819 82.549 123.225 77.133 123.243 70.643 120.477 70.468 120.403 70.456 117.667 70.631 117.741 82.547 122.819" fill="#72141b" stroke="#72141b" stroke-miterlimit="10" stroke-width="1.23274"/><path d="M82.225,100.76774l-11.76505.0381a1.1502,1.1502,0,0,1-1.24923-1.01355l-.00051-.11693a1.146,1.146,0,0,1,1.23937-1.02089l11.765-.03809a1.15019,1.15019,0,0,1,1.24923,1.01354l.00052.11693A1.146,1.146,0,0,1,82.225,100.76774Z" fill="#72141b" stroke="#72141b" stroke-miterlimit="10" stroke-width="1.23274"/><path d="M82.22333,98.61635l-5.87.019.00951,2.15136,5.87-.019a1.08874,1.08874,0,1,0-.0095-2.15137Z" fill="#8e3537" stroke="#8e3537" stroke-miterlimit="10" stroke-width="1.23274"/><path d="M107.03665,86.74535l.031,7.00593-.689.17126-3.88243.96671-.08577.0211-.99776.24942L97.14424,96.222A85.87285,85.87285,0,0,1,81.52352,98.6047c-.39629.02455-.794.04544-1.19034.06387q-1.97443.09091-3.95213.09119-1.89111.00245-3.78259-.07962c-.06441-.00224-.12882-.00449-.19322-.00795q-.6527-.02911-1.30255-.068a85.999,85.999,0,0,1-15.46991-2.35058L51.547,95.24283l-.81085-.2007-3.964-.9805h-.00286l-.00287-.00122-.139-.03384-.03439-.00846-.07593-.01936-.01-.00241-.03295-.00847-.16331-.03989-.031-7.00593Z" fill="#8e3537" stroke="#8e3537" stroke-miterlimit="10" stroke-width="1.23274"/><path d="M104.9063,86.67937l.02675,6.05358-.65129.14816-3.6699.83633-.08107.01825-.94314.21578-4.03473.919a88.2809,88.2809,0,0,1-14.76505,2.06288c-.37457.02132-.75051.03947-1.1251.0555q-1.86621.07908-3.73546.07983-1.78742.00261-3.57515-.0678c-.06088-.00192-.12175-.00384-.18262-.00682q-.61691-.025-1.23111-.05846a88.36517,88.36517,0,0,1-14.62082-2.027l-3.8614-.87227-.76632-.1732L47.94357,93.017h-.0027l-.00271-.001-.13132-.02921-.0325-.0073-.07176-.0167-.00948-.00209-.03114-.0073-.15434-.03443-.02676-6.05359Z" fill="#964449" stroke="#964449" stroke-miterlimit="10" stroke-width="1.23274"/><path d="M113.16321,89.076l-.09768-.08419L111.808,87.12062l-.06483-.099-.36734-.54631-1.39009-2.06914-.48546-.72353-1.21-1.80148a.83958.83958,0,0,0-.22569-.22953l-.0043-.00244a2.8874,2.8874,0,0,0-.68984-.342,3.19089,3.19089,0,0,0-.87224-.1662l-.06584-.00346c-.03578-.00111-.073-.001-.11019-.00087l-.00043-.09553c-.0372.00012-.07441.00024-.11018.0028-.02289.00008-.04435.00137-.06581.00267a3.18593,3.18593,0,0,0-.87074.17184,2.87945,2.87945,0,0,0-.6868.34641l-.00428.00368a.81565.81565,0,0,0-.22365.22977l-1.19409,1.80927-.479.72665-1.37178,2.07808-.2317.35227-1.09616.00355-1.177,1.78472-.03278.02828a2.777,2.777,0,0,0,.01925,4.35666l2.61575,2.22194.99776-.24942,3.176,2.69782a1.2858,1.2858,0,0,0,1.61849-.00524l5.97329-5.15138A2.154,2.154,0,0,0,113.16321,89.076Z" fill="#945155" stroke="#955155" stroke-miterlimit="10" stroke-width="1.23274"/><path d="M54.03252,88.726l-.033-.02806-1.19276-1.777-1.235.004-.05618-.08433L50.1269,84.77023l-.48688-.7223L48.43,82.24522a.83491.83491,0,0,0-.22568-.22831L48.2,82.01325a2.88415,2.88415,0,0,0-.68983-.34072,3.19217,3.19217,0,0,0-.87225-.16743c-.02147-.00116-.04294-.00231-.06441-.00224-.0372-.0011-.07442-.00221-.11019-.00209h-.00143l-.00043-.09554c-.0372.00013-.07441.00147-.11018.00281-.02288.0013-.04435.00137-.06581.00267a3.2339,3.2339,0,0,0-.87074.17306,2.90647,2.90647,0,0,0-.6868.34641l-.00429.00246a.85761.85761,0,0,0-.22364.231L43.3059,83.9729l-.47905.72665-1.37034,2.07808-.36249.54867-.06539.09942-1.241,1.87923-.09693.08483a2.20665,2.20665,0,0,0-.80659,1.737c-.00136.01592-.00129.03307-.00122.049a2.21489,2.21489,0,0,0,.82457,1.68392l6.01865,5.11256A1.28151,1.28151,0,0,0,47.3446,97.967l3.39153-2.92486.81085.2007,2.50479-2.16013a2.77931,2.77931,0,0,0-.01925-4.35667Z" fill="#945155" stroke="#955155" stroke-miterlimit="10" stroke-width="1.23274"/><path d="M84.76128,91.60869l-1.86861.07339-1.27482.05461-.90567.03827-1.47368.06535-.70679.03257-1.88712.09359.00012.02685,1.88791.0793.70706.02785,1.19084.04471-3.89381.013L76.14339,6.04042l.01859-.00175.03577-.00012a2.4397,2.4397,0,0,1,1.18186.273,2.71273,2.71273,0,0,1,.6627.65241,3.83963,3.83963,0,0,1,.33025.55784l.29759.61166.59517,1.22165L81.646,14.24l.59658,1.22c.19792.40553.41868.80428.62225,1.19637a11.575,11.575,0,0,1,.54356,1.20167,12.97146,12.97146,0,0,1,.42936,1.26248,14.61314,14.61314,0,0,1,.50009,2.65037c.0407.45139.06136.90283.06488,1.35937l.28867,63.20316c.00714.93659.00282,1.87321.00281,2.80981.005.46829.01859.93655.035,1.40479Z" fill="#b2b2b2" stroke="#b2b2b2" stroke-miterlimit="10" stroke-width="1.2838"/><path d="M76.25214,6.04005l.39332,86.11777-8.72208.02913-.3145-68.85963a14.78186,14.78186,0,0,1,1.59175-6.79824L73.77789,7.611A2.68221,2.68221,0,0,1,76.162,6.03867l.03577-.00012C76.21636,6.03849,76.23353,6.03843,76.25214,6.04005Z" fill="#9d9d9c" stroke="#9d9d9c" stroke-miterlimit="10" stroke-width="1.2838"/><polygon points="80.431 92.195 76.645 92.207 76.645 92.087 78.533 92.144 79.24 92.163 80.431 92.195" fill="#fff" stroke="#fff" stroke-miterlimit="10" stroke-width="1.2664"/><polygon points="85.227 46.922 85.252 52.325 84.533 51.616 81.421 48.539 79.03 46.177 77.88 45.04 76.424 43.601 76.314 43.492 74.965 42.159 73.815 41.022 71.316 38.552 67.662 34.941 67.637 29.538 71.291 33.149 73.79 35.619 74.94 36.754 76.29 38.089 76.399 38.196 77.855 39.637 79.005 40.773 81.396 43.135 84.508 46.211 85.227 46.922" fill="#b2b2b2" stroke="#b2b2b2" stroke-miterlimit="10" stroke-width="1.11194"/><path d="M85.4,83.24575a.33155.33155,0,0,1-.00126.03779c-.0011.07159-.0022.14418-.00473.21677-.0036.15215-.01006.30429-.01652.45645l-.032.83235-.009.21579-.04436-.00085-.249-.00413-.35779-.00677-1.809-.03174-.53665-.3144-.75618-.44193-2.3862-1.396-1.14791-.67229-1.45353-.85026-.109-.06427-.1851-.10776-1.16225-.68021-1.1479-.6713-1.57837-.92342L72.34,78.79706l-.84227-.49335-.1808-.10579-.23962-.14039-3.227-1.88836-.01463-3.20264,3.64746,2.13454,2.06336,1.20816.122.07118.3085.17994.90541.52993.16358.0959.07892.04647,1.16225.6802.1851.10777.10905.06426,1.45353.85026,1.14791.6723,2.3862,1.396.805.47061,2.29439,1.3436.00717.004.66291.38755v.001l.05452.03164Z" fill="#706f6f" stroke="#706f6f" stroke-miterlimit="10" stroke-width="1.11194"/><path d="M80.52163,53.50232a.93213.93213,0,0,1-1.45614.14418l-.00144-.00168L77.914,52.509,76.4578,51.06863l-.10925-.10706L74.9987,49.62663l-1.15-1.13586-2.49843-2.46913L67.696,42.41l-.01453-3.18072,3.65421,3.61169L73.83415,45.31l1.15,1.13586L76.334,47.78085l.10924.10706,1.45623,1.44033,1.15,1.13586L80.39506,51.794A1.36063,1.36063,0,0,1,80.52163,53.50232Z" fill="#ededed" stroke="#ededed" stroke-miterlimit="10" stroke-width="0.65462"/><path d="M85.19726,73.47915l.01012,2.21551-.71778-.49449-3.108-2.13852-2.38734-1.644-1.14844-.79L76.39162,69.627l-.1091-.07563-1.348-.92731-1.14845-.79119-.55125-.3793a.74234.74234,0,0,1-.12421-1.18979,1.11242,1.11242,0,0,1,.66695-.29451c.04005-.00365.08011-.00611.12018-.00625a1.18138,1.18138,0,0,1,.66921.19886l.35745.24549,1.348.92849.10909.07446,1.45423,1.00179,1.14844.79,2.38734,1.644,3.108,2.13853Z" fill="#ededed" stroke="#ededed" stroke-miterlimit="10" stroke-width="0.65462"/><path d="M81.31375,25.15307l.3041,66.58362-.90567.03827-1.47368.06535-.70679.03257-1.88712.09359-.33173-72.63118C79.05471,19.32613,81.29906,21.9371,81.31375,25.15307Z" fill="#fff" stroke="#fff" stroke-miterlimit="10" stroke-width="1.2664"/><path d="M76.20388,19.33568l.3326,72.82314-4.97583.01662-.306-66.98921C71.24,21.97048,73.46024,19.34484,76.20388,19.33568Z" fill="#706f6f" stroke="#706f6f" stroke-miterlimit="10" stroke-width="1.2664"/><path d="M76.64459,91.96647l.00012.02685,1.88791.0793.70706.02785.00023.04868-5.19175.01735-.30595-66.98814a2.86332,2.86332,0,0,1,2.47466-3.048.77471.77471,0,0,1,.10873-.0054,2.42064,2.42064,0,0,1,1.84008.88514,3.32733,3.32733,0,0,1,.76827,2.151l.30455,66.67929-.70679.03257Z" fill="#575756" stroke="#575756" stroke-miterlimit="10" stroke-width="1.2664"/><path d="M75.764,91.06478l-.27409-65.64644c-.00382-.91522.29823-1.66167.68769-1.69935l.0203-.00194.00632-.00174h.005c.1937-.00057.37707.17626.51633.49779a3.18114,3.18114,0,0,1,.2162,1.201l.2741,65.64645Z" fill="#333" stroke="#333" stroke-miterlimit="10" stroke-width="1.2664"/><path d="M85.42832,89.14074c.00031.06882.00062.136-.0005.20478-.00246.39949-.01065.80068-.02028,1.20019l-.02935,1.405-.00836.36427-.2934-.00909-2.16693-.07-.0143.00005L81.78452,92.196l-.33779-.014-.73281-.0261-.2376-.00928-.0458-.00151-.17748-.00613-1.01336-.03858-.70706-.02785-1.88791-.0793-.00012-.02685,1.88712-.09359.70679-.03257,1.02156-.04537.14021-.00551.31191-.01447.01431,0,.3677-.01634.52366-.02189.083-.00364.382-.01638.289-.01271.52081-.02188,1.86861-.07339-.032-1.06071c-.01645-.46824-.03-.9365-.035-1.40479.00064-.17456-.00015-.34745.00048-.522l.00109-.70161q.00068-.79311-.00438-1.58618l-.28867-63.20316c-.00352-.45654-.02418-.908-.06488-1.35937a14.61314,14.61314,0,0,0-.50009-2.65037,12.97146,12.97146,0,0,0-.42936-1.26248,11.575,11.575,0,0,0-.54356-1.20167c-.20357-.39209-.42433-.79084-.62225-1.19637L81.646,14.24,79.26532,9.35511l-.59517-1.22165-.29759-.61166a3.83963,3.83963,0,0,0-.33025-.55784,2.71273,2.71273,0,0,0-.6627-.65241,2.5062,2.5062,0,0,0-1.42022-.45012,2.59854,2.59854,0,0,1,2.21535.95942,3.45939,3.45939,0,0,1,.389.56436l.33039.58805.65936,1.17442,2.64169,4.69771.65936,1.17443c.21932.3954.42147.79085.62943,1.20307a14.96389,14.96389,0,0,1,1.03092,2.6318,15.51469,15.51469,0,0,1,.53381,2.8265c.04369.47991.06594.96493.06957,1.44664L85.4069,86.331C85.40688,87.2676,85.42118,88.20416,85.42832,89.14074Z" fill="none" stroke="#f6f6f6" stroke-miterlimit="10"/><path d="M89.42079,86.80238l-1.67858.00544c-.03018-.02807-.06179-.05614-.09339-.083l-.16375-.1391-2.0902-3.11287-.00891-2.016c.00247-.08942.0035-.17883.00454-.267L85.38474,81.18,85.33,81.09935v-.00123l-.66552-.99-1.35841-2.02392-.80813-1.20139-.95219-1.41894-1.06022-1.57906a2.43635,2.43635,0,0,0-.60953-.62636l-.07757-.06589-.05162-.02433-.01148-.00731-.00574-.00243a5.649,5.649,0,0,0-.5753-.32762,5.83949,5.83949,0,0,0-.76558-.32087c-.12612-.04247-.25223-.08248-.38118-.11636a6.5223,6.5223,0,0,0-1.41917-.22812l-.03149-.00235-.10448-.00334-.00429,0c-.07586-.00343-.15314-.0044-.23185-.00415a6.58862,6.58862,0,0,0-1.11149.09669c-.10582.01749-.21163.03865-.316.06226-.04575.00873-.0915.01989-.13723.0323a6.47783,6.47783,0,0,0-.69027.208c-.10431.03831-.20716.07784-.30715.121-.10426.04443-.20709.09253-.307.14185a5.91008,5.91008,0,0,0-.73651.4323,2.40616,2.40616,0,0,0-.64818.66473l-.47906.72542-.12936.1964-.04974.0761-.85718,1.29865-2.57721,3.90575.01006,2.2757-.53877.81626-.108.16447L65.17048,86.5l-.16252.14015c-.09124.07868-.17674.15858-.25651.24212l-1.6099.00522a4.36528,4.36528,0,0,0-.67226,2.3416,4.59159,4.59159,0,0,0,1.70836,3.49259l6.925,5.88248q.65058.03832,1.30255.068l2.64016,2.24269a2.13688,2.13688,0,0,0,2.69318-.00872l2.5946-2.23759c.39632-.01843.794-.03932,1.19034-.06387l6.91277-5.96036a4.58149,4.58149,0,0,0,1.676-3.50477A4.38446,4.38446,0,0,0,89.42079,86.80238Z" fill="#945155" stroke="#955155" stroke-miterlimit="10" stroke-width="1.23274"/><polygon points="76.645 92.068 76.645 92.087 76.536 92.084 76.353 92.078 76.536 92.072 76.645 92.068" fill="#f6f6f6" stroke="#f6f6f6" stroke-miterlimit="10"/><path d="M87.67363,92.33815l-9.93505,8.568a2.13688,2.13688,0,0,1-2.69318.00872L65.0349,92.41145a3.68448,3.68448,0,0,1-1.37044-2.80166.76338.76338,0,0,1,.0025-.08084l-.00007-.01592c.00119-.05512.00382-.109.00786-.16416v-.00122l.00138-.011V89.3354l.01228-.136c.00409-.04533.00961-.08944.018-.13478.007-.04413.01534-.08947.02373-.13359s.01822-.08825.028-.13238a.16737.16737,0,0,1,.00984-.038.99293.99293,0,0,1,.02813-.11154.18193.18193,0,0,1,.00847-.02576c.01268-.04781.02678-.0944.04374-.141q.00849-.02575.017-.04782c.017-.04906.03393-.09688.05375-.14349.0184-.04538.03681-.08953.05809-.13246a1.35117,1.35117,0,0,1,.061-.12759c.01417-.03066.02979-.06011.0454-.08955.01135-.02331.02412-.0454.03691-.06749.02272-.03927.04545-.07854.0696-.11781a.62029.62029,0,0,1,.04832-.07487.83257.83257,0,0,1,.05686-.08592.48777.48777,0,0,1,.0512-.07243,1.11918,1.11918,0,0,1,.06969-.09577.60206.60206,0,0,1,.04554-.05771c.01849-.02578.03984-.05279.06262-.07859a.05584.05584,0,0,1,.01283-.01351q.02988-.03685.06407-.07371c.05836-.06877.12246-.13635.18943-.20148.04133-.04055.08264-.08111.12683-.12044.02993-.02827.06129-.05654.09265-.08359l.16252-.14016,2.708-4.1046,3.61351-5.47567.90693-1.37352.6084-.923a1.39319,1.39319,0,0,1,.37181-.38457,4.62159,4.62159,0,0,1,.58664-.34364,4.95589,4.95589,0,0,1,1.06443-.38314.80675.80675,0,0,1,.07862-.01863A5.29212,5.29212,0,0,1,76.2695,73.52h.00143c.06154-.0002.12308.00083.1832.00308.0372.0011.073.00221.10877.00455a5.31553,5.31553,0,0,1,1.45087.277,4.83331,4.83331,0,0,1,1.14734.56828l.00718.00488a1.41057,1.41057,0,0,1,.37519.38093l2.0124,2.99677.80813,1.20262,2.3106,3.44163.61078.9093.10948.16378,2.0902,3.11287.16375.1391c.0316.02685.06321.05492.09339.083a.25742.25742,0,0,1,.02873.02563c.02874.02685.05748.05493.08766.083a.17005.17005,0,0,1,.023.022.2751.2751,0,0,1,.02874.02931,2.15474,2.15474,0,0,1,.15529.16485c.0345.03663.06616.07572.09781.11359a.17136.17136,0,0,1,.02158.02565c.04027.04764.07769.09529.11225.14416.03743.0501.07344.10143.108.15276.00863.011.01585.02322.023.03422.02737.04033.0533.08066.07638.12224a.07692.07692,0,0,1,.013.02323c.02739.04523.05334.09046.07787.13693a.69208.69208,0,0,1,.04043.07948c.02164.04035.04185.0807.0592.12107.026.055.04915.11007.07229.16634a.22177.22177,0,0,1,.01014.02813c.01882.04771.03619.0942.05215.14192l.0058.0159c.01449.04282.029.08687.04064.13093a.12667.12667,0,0,1,.00726.02447c.01017.03426.02034.06852.02765.104.01455.05385.02767.10893.03793.164l.01755.08569.00443.02938c.00884.05631.01767.11263.02364.16895A3.641,3.641,0,0,1,87.67363,92.33815Z" fill="#964348" stroke="#964348" stroke-miterlimit="10" stroke-width="1.23274"/><path d="M76.49575,82.94084h-.00024l.05072,11.47492h.00023c3.7022-.012,6.69207-2.59045,6.67806-5.75917S80.19794,82.92885,76.49575,82.94084Z" fill="#d1bd04" stroke="#d2bd03" stroke-miterlimit="10" stroke-width="1.41097"/><path d="M76.29335,82.94149h.00024l.05071,11.47492h-.00023c-3.7022.012-6.71477-2.547-6.72878-5.71577S72.59116,82.95348,76.29335,82.94149Z" fill="#d1bb1c" stroke="#d1bb1c" stroke-miterlimit="10" stroke-width="1.41097"/><ellipse cx="76.48266" cy="88.39994" rx="5.45893" ry="5.55297" transform="translate(-14.23059 162.12412) rotate(-88.23534)" fill="#f1e419" stroke="#f1e419" stroke-miterlimit="10" stroke-width="1.31855"/><path d="M72.056,88.69276c-.014-3.16872,2.02181-5.74409,4.54712-5.75227a5.74958,5.74958,0,1,0,.05072,11.47494C74.12847,94.4236,72.07,91.86147,72.056,88.69276Z" fill="#d8c834" stroke="#d8c834" stroke-miterlimit="10" stroke-width="1.55299"/><path d="M76.60307,82.94049c2.52531-.00818,4.58384,2.55394,4.59785,5.72266s-2.02182,5.7441-4.54713,5.75228a5.74958,5.74958,0,1,0-.05072-11.47494Z" fill="#d8c834" stroke="#d8c834" stroke-miterlimit="10" stroke-width="1.55299"/><ellipse cx="80.64584" cy="91.2149" rx="0.93171" ry="0.79745" fill="#eee583" stroke="#eee581" stroke-miterlimit="10" stroke-width="1.2303"/><path d="M76.2695,73.52,76.392,101.2302a2.073,2.073,0,0,1-1.34869-.47061l-2.44475-2.06492L65.033,92.30455a3.6609,3.6609,0,0,1-1.36574-2.709l-.00005-.011a3.57631,3.57631,0,0,1,1.0846-2.62074c.07977-.08308.16528-.16252.25652-.24076l.16252-.13936,2.0627-3.10864.108-.16354.53878-.81164.064-.09642,2.28021-3.437.7975-1.201.472-.71156.83447-1.25712.6795-1.024a1.40142,1.40142,0,0,1,.37183-.38119l.00713-.00489a4.63606,4.63606,0,0,1,.58094-.338,5.0109,5.0109,0,0,1,.56136-.23443c.11144-.03933.22435-.0738.34012-.10584.07861-.021.1601-.0407.24159-.058a5.25943,5.25943,0,0,1,.86668-.121c.03576-.00254.07153-.00388.10873-.00522C76.14644,73.52165,76.208,73.52023,76.2695,73.52Z" fill="#8d3536" stroke="#8d3536" stroke-miterlimit="10" stroke-width="1.23274"/><path d="M76.43647,82.941h.00022L76.4874,94.416h-.00022c-3.48949.01129-6.32963-2.5483-6.34363-5.717A6.04036,6.04036,0,0,1,76.43647,82.941Z" fill="#d1bb1c" stroke="#d1bb1c" stroke-miterlimit="10" stroke-width="1.41097"/><path d="M71.69268,88.69394c-.01358-3.07181,1.89924-5.58584,4.31686-5.74422.07629-.00348.15333-.00444.23028-.00573l.05069,11.47029c-.07695-.00079-.154-.00125-.23032-.00424C73.64124,94.26731,71.70625,91.76573,71.69268,88.69394Z" fill="#a9984c" stroke="#d2bd03" stroke-miterlimit="10" stroke-width="1.41097"/><path d="M75.111,83.0444a5.68025,5.68025,0,0,0,.04984,11.27678c-3.11335-.48679-5.47933-2.81376-5.49173-5.62069S72.002,83.55134,75.111,83.0444Z" fill="#a9984c" stroke="#d2bd03" stroke-miterlimit="10" stroke-width="1.41097"/><path d="M76.26484,83.26961l.04825,10.918c-2.53834.00822-4.60687-2.42919-4.6202-5.4441S73.72649,83.27783,76.26484,83.26961Z" fill="#f1e419" stroke="#f1e419" stroke-miterlimit="10" stroke-width="1.31855"/><path d="M76.49756,82.94316,76.5461,93.927a5.50251,5.50251,0,0,1-.04854-10.98389Z" fill="#e1ce36" stroke="#e1ce34" stroke-miterlimit="10" stroke-width="1.31855"/><path d="M53.31933,92.8156l-2.5832,2.22653L47.3446,97.967a1.28151,1.28151,0,0,1-1.61848.00524l-6.01865-5.11256a2.21489,2.21489,0,0,1-.82457-1.68392c-.00007-.01592-.00014-.03307.00122-.049a2.21543,2.21543,0,0,1,.80843-1.64267l.09695-.0836,1.62763-2.4684,2.17351-3.292.54586-.82608.36533-.5548a.8203.8203,0,0,1,.22365-.231,2.6182,2.6182,0,0,1,.35256-.20691,2.96281,2.96281,0,0,1,.64008-.22989.32882.32882,0,0,1,.04718-.01118,3.1368,3.1368,0,0,1,.69657-.07942h.00143c.03577-.00012.073.001.11019.00209.02147-.00007.04294.00108.06441.00224a3.19217,3.19217,0,0,1,.87225.16743,2.88415,2.88415,0,0,1,.68983.34072l.00431.00366a.83491.83491,0,0,1,.22568.22831L49.64,84.04793l.48688.7223,1.38867,2.07036.05618.08433.31115.462.06626.09777,1.25614,1.87237.09911.083A2.154,2.154,0,0,1,53.31933,92.8156Z" fill="#964348" stroke="#964348" stroke-miterlimit="10" stroke-width="1.23274"/><path d="M46.59787,87.16534h-.00014l.03049,6.89953h.00014a3.49165,3.49165,0,1,0-.03049-6.89955Z" fill="#d1bd04" stroke="#d2bd03" stroke-miterlimit="10" stroke-width="1.41097"/><path d="M46.47618,87.16574h.00014l.03049,6.89954h-.00014a3.49165,3.49165,0,1,1-.03049-6.89954Z" fill="#d1bb1c" stroke="#d1bb1c" stroke-miterlimit="10" stroke-width="1.41097"/><path d="M43.92835,90.62381c-.00842-1.90526,1.21565-3.45376,2.734-3.45868a3.45706,3.45706,0,1,0,.0305,6.89955C45.1745,94.06959,43.93677,92.52906,43.92835,90.62381Z" fill="#d8c834" stroke="#d8c834" stroke-miterlimit="10" stroke-width="1.55299"/><path d="M46.6624,87.16513c1.5184-.00491,2.75613,1.53562,2.76455,3.44087s-1.21566,3.45376-2.734,3.45868a3.45705,3.45705,0,1,0-.0305-6.89955Z" fill="#d8c834" stroke="#d8c834" stroke-miterlimit="10" stroke-width="1.55299"/><ellipse cx="49.0932" cy="92.14029" rx="0.56021" ry="0.47948" fill="#eee583" stroke="#eee581" stroke-miterlimit="10" stroke-width="1.2303"/><path d="M46.46144,81.40523,46.5355,98.1619a1.24839,1.24839,0,0,1-.81123-.284l-6.01865-5.11378a2.15431,2.15431,0,0,1-.01491-3.37436l.09693-.08483,1.241-1.87923.06539-.09942.36249-.54867,1.37034-2.07808.47905-.72665L44.5,82.16363a.85761.85761,0,0,1,.22364-.231l.00429-.00246a2.90647,2.90647,0,0,1,.6868-.34641,3.2339,3.2339,0,0,1,.87074-.17306c.02146-.0013.04293-.00137.06581-.00267C46.387,81.4067,46.42424,81.40536,46.46144,81.40523Z" fill="#8d3536" stroke="#8d3536" stroke-miterlimit="10" stroke-width="1.23274"/><path d="M46.56223,87.16546h.00013l.03049,6.89954h-.00013a3.46585,3.46585,0,1,1-.03049-6.89954Z" fill="#d1bb1c" stroke="#d1bb1c" stroke-miterlimit="10" stroke-width="1.41097"/><path d="M43.70992,90.62451c-.00816-1.847,1.142-3.3586,2.59561-3.45383.04587-.00209.09219-.00267.13846-.00344l.03048,6.89675c-.04627-.00048-.0926-.00075-.13849-.00255C44.88154,93.97562,43.71809,92.4715,43.70992,90.62451Z" fill="#a9984c" stroke="#d2bd03" stroke-miterlimit="10" stroke-width="1.41097"/><path d="M45.76524,87.22761a3.41537,3.41537,0,0,0,.03,6.7804,3.39185,3.39185,0,0,1-.03-6.7804Z" fill="#a9984c" stroke="#d2bd03" stroke-miterlimit="10" stroke-width="1.41097"/><path d="M46.459,87.363l.029,6.56465a3.33107,3.33107,0,0,1-.029-6.56465Z" fill="#f1e419" stroke="#f1e419" stroke-miterlimit="10" stroke-width="1.31855"/><path d="M46.599,87.16674l.02919,6.60429a3.3085,3.3085,0,0,1-.02919-6.60429Z" fill="#e1ce36" stroke="#e1ce34" stroke-miterlimit="10" stroke-width="1.31855"/><path d="M113.17813,92.45155l-5.97329,5.15138a1.2858,1.2858,0,0,1-1.61849.00524l-3.176-2.69782-2.84413-2.41473a2.21575,2.21575,0,0,1-.82314-1.68515c-.00007-.01592-.00015-.03307.00122-.049a2.21133,2.21133,0,0,1,.807-1.64144l.09837-.08483,1.49828-2.27079.12936-.19638,2.1735-3.29326.54445-.82485.36675-.55481a.82517.82517,0,0,1,.22364-.23222,2.74739,2.74739,0,0,1,.35257-.20569,2.91191,2.91191,0,0,1,.64008-.23111l.04718-.01118a3.22012,3.22012,0,0,1,.69657-.0782c.0372-.00012.07441-.00024.11019.00087l.06584.00346a3.19089,3.19089,0,0,1,.87224.1662,2.8874,2.8874,0,0,1,.68984.342l.0043.00244a.83958.83958,0,0,1,.22569.22953l1.21,1.80148.48546.72353,1.39009,2.06914.36734.54631.06483.099,1.25757,1.87115.09768.08419A2.154,2.154,0,0,1,113.17813,92.45155Z" fill="#964348" stroke="#964348" stroke-miterlimit="10" stroke-width="1.23274"/><path d="M106.45781,86.8007h-.00014l.03049,6.89953h.00014a3.49165,3.49165,0,1,0-.03049-6.89955Z" fill="#d1bd04" stroke="#d2bd03" stroke-miterlimit="10" stroke-width="1.41097"/><path d="M106.33612,86.8011h.00014l.03049,6.89954h-.00014a3.49165,3.49165,0,1,1-.03049-6.89954Z" fill="#d1bb1c" stroke="#d1bb1c" stroke-miterlimit="10" stroke-width="1.41097"/><path d="M103.78829,90.25917c-.00842-1.90526,1.21565-3.45376,2.734-3.45868a3.45706,3.45706,0,1,0,.0305,6.89955C105.03444,93.705,103.79671,92.16442,103.78829,90.25917Z" fill="#d8c834" stroke="#d8c834" stroke-miterlimit="10" stroke-width="1.55299"/><path d="M106.52234,86.80049c1.5184-.00491,2.75613,1.53562,2.76455,3.44087s-1.21566,3.45376-2.734,3.45868a3.45705,3.45705,0,1,0-.0305-6.89955Z" fill="#d8c834" stroke="#d8c834" stroke-miterlimit="10" stroke-width="1.55299"/><ellipse cx="108.95314" cy="91.77566" rx="0.56021" ry="0.47948" fill="#eee583" stroke="#eee581" stroke-miterlimit="10" stroke-width="1.2303"/><path d="M106.32167,81.04118l.07406,16.75667a1.23732,1.23732,0,0,1-.81123-.28521l-6.01865-5.11255a2.15562,2.15562,0,0,1-.01492-3.37559l.09694-.08361,1.241-1.88045.064-.0982.13078-.19762.2317-.35227,1.37178-2.07808.479-.72665,1.19409-1.80927a.81565.81565,0,0,1,.22365-.22977l.00428-.00368a2.87945,2.87945,0,0,1,.6868-.34641,3.18593,3.18593,0,0,1,.87074-.17184c.02146-.0013.04292-.00259.06581-.00267C106.24726,81.04142,106.28447,81.0413,106.32167,81.04118Z" fill="#8d3536" stroke="#8d3536" stroke-miterlimit="10" stroke-width="1.23274"/><path d="M106.42217,86.80082h.00013l.03049,6.89954h-.00013a3.46585,3.46585,0,1,1-.03049-6.89954Z" fill="#d1bb1c" stroke="#d1bb1c" stroke-miterlimit="10" stroke-width="1.41097"/><path d="M103.56986,90.25987c-.00816-1.847,1.142-3.35859,2.59561-3.45383.04587-.00209.09219-.00267.13846-.00344l.03048,6.89675c-.04627-.00048-.0926-.00075-.13849-.00255C104.74148,93.611,103.578,92.10686,103.56986,90.25987Z" fill="#a9984c" stroke="#d2bd03" stroke-miterlimit="10" stroke-width="1.41097"/><path d="M105.62518,86.863a3.41537,3.41537,0,0,0,.03,6.7804,3.39185,3.39185,0,0,1-.03-6.7804Z" fill="#a9984c" stroke="#d2bd03" stroke-miterlimit="10" stroke-width="1.41097"/><path d="M106.319,86.99839l.029,6.56465a3.33107,3.33107,0,0,1-.029-6.56465Z" fill="#f1e419" stroke="#f1e419" stroke-miterlimit="10" stroke-width="1.31855"/><path d="M106.4589,86.8021l.02919,6.60429a3.3085,3.3085,0,0,1-.02919-6.60429Z" fill="#e1ce36" stroke="#e1ce34" stroke-miterlimit="10" stroke-width="1.31855"/><path d="M79.21116,123.87478l-5.87.019.00951,2.15137,5.87-.019a1.08874,1.08874,0,1,0-.00951-2.15136Z" fill="#964449" stroke="#964449" stroke-miterlimit="10" stroke-width="1.23274"/><path d="M82.39684,125.3799l-11.765.03809a1.15019,1.15019,0,0,1-1.24923-1.01354l-.00052-.11694a1.146,1.146,0,0,1,1.23937-1.02089l11.76505-.03809a1.1502,1.1502,0,0,1,1.24923,1.01354l.00051.11694A1.146,1.146,0,0,1,82.39684,125.3799Z" fill="#72141b" stroke="#72141b" stroke-miterlimit="10" stroke-width="1.23274"/><path d="M82.39514,123.2285l-5.87.019.0095,2.15137,5.87-.019a1.08874,1.08874,0,1,0-.00951-2.15137Z" fill="#8e3537" stroke="#8e3537" stroke-miterlimit="10" stroke-width="1.23274"/><path d="M71.205,123.14344l4.51881-3.98429a.95557.95557,0,0,1,1.22506-.004l4.5539,3.95491a1.72831,1.72831,0,0,1,.62351,1.303.36333.36333,0,0,1-.00114.0376l0,.0074c-.00054.02564-.00173.0507-.00357.07634v.00057l-.00063.00513v.00057l-.00558.06324c-.00186.02109-.00437.0416-.00819.06269-.00316.02052-.007.0416-.01079.06212s-.00828.041-.01274.06156l-.00448.01767a.46981.46981,0,0,1-.01279.05188l-.00385.012c-.00576.02224-.01218.04391-.01989.06557l-.00771.02224c-.00772.02281-.01543.04506-.02444.06673-.00837.0211-.01675.04164-.02642.0616a.63723.63723,0,0,1-.02773.05933c-.00645.01427-.01355.028-.02065.04165-.00516.01084-.011.02111-.01678.03138-.01034.01827-.02067.03653-.03166.05479a.28914.28914,0,0,1-.022.03482.38885.38885,0,0,1-.02587.04.22679.22679,0,0,1-.02328.03368.52083.52083,0,0,1-.0317.04453.2796.2796,0,0,1-.02071.02684c-.00841.012-.01812.02455-.02848.03655l-.00583.00628q-.0136.01713-.02915.03427c-.02654.032-.0557.06341-.08615.0937-.0188.01886-.03759.03771-.05769.056-.01361.01314-.02788.02629-.04214.03887l-.07392.06517-1.23161,1.90879-1.64344,2.54637-.41248.63874-.27671.42925a.64158.64158,0,0,1-.16911.17883,2.09066,2.09066,0,0,1-.26683.15979,2.22191,2.22191,0,0,1-.48416.17815.36038.36038,0,0,1-.03577.00866,2.35694,2.35694,0,0,1-.527.06094h-.00065c-.028.00009-.056-.00038-.08333-.00143l-.04948-.00212a2.3717,2.3717,0,0,1-.66-.12888,2.1802,2.1802,0,0,1-.52193-.26432l-.00326-.00227a.64934.64934,0,0,1-.17068-.17716l-.91553-1.39374-.36765-.55931-1.05119-1.60063-.27786-.4229-.04981-.07616-.95092-1.44774-.07449-.06469c-.01438-.01249-.02876-.02554-.04248-.0386l-.01308-.01192-.03987-.0386-.01047-.01022-.01307-.01363a.99176.99176,0,0,1-.07064-.07667c-.0157-.017-.0301-.03522-.0445-.05283l-.00982-.01193c-.01832-.02215-.03535-.04432-.05107-.067-.017-.0233-.03341-.04717-.04913-.071l-.01049-.01592c-.01245-.01876-.02425-.03751-.03475-.05685l-.00591-.0108c-.01246-.021-.02427-.04207-.03543-.06368a.32494.32494,0,0,1-.01839-.037c-.00984-.01876-.019-.03753-.02694-.0563-.01183-.0256-.02236-.05119-.03288-.07736l-.00462-.01309c-.00856-.02219-.01647-.04381-.02372-.066l-.00264-.0074c-.0066-.01991-.0132-.04039-.0185-.06089l-.0033-.01137c-.00463-.01594-.00926-.03187-.01258-.04838-.00663-.025-.01259-.05066-.01727-.07627l-.008-.03985-.002-.01366c-.004-.0262-.008-.05239-.01076-.07858A1.71169,1.71169,0,0,1,71.205,123.14344Z" fill="#8d3536" stroke="#8d3536" stroke-miterlimit="10" stroke-width="1.23274"/><path d="M76.56417,131.78465l-.057-12.88681a.88663.88663,0,0,1,.59527.219l1.07918.96049,3.33962,2.97233a1.73707,1.73707,0,0,1,.603,1.25995l0,.0051a1.70946,1.70946,0,0,1-.47839,1.21872c-.03519.03863-.07292.07556-.11318.11194l-.07172.0648-.91,1.44554-.04766.076-.2377.37742-.02822.04483-1.006,1.59821-.35183.55846-.20822.33088-.36814.58457-.29978.47617a.63673.63673,0,0,1-.16406.17725l-.00315.00227a2.0217,2.0217,0,0,1-.25635.15716,2.15073,2.15073,0,0,1-.24772.109c-.04918.01828-.099.0343-.1501.0492-.03469.00974-.07065.01891-.10661.027a2.20917,2.20917,0,0,1-.38248.05618l-.048.00242C76.61848,131.7839,76.59132,131.78456,76.56417,131.78465Z" fill="#964348" stroke="#964348" stroke-miterlimit="10" stroke-width="1.23274"/><path d="M76.78615,122.25392H76.786l.02444,5.52952h.00012a2.79833,2.79833,0,1,0-.02444-5.52953Z" fill="#d1bd04" stroke="#d2bd03" stroke-miterlimit="10" stroke-width="1.41097"/><path d="M76.68862,122.25424h.00011l.02444,5.52952h-.00011a2.79833,2.79833,0,1,1-.02444-5.52953Z" fill="#d1bb1c" stroke="#d1bb1c" stroke-miterlimit="10" stroke-width="1.41097"/><path d="M74.6467,125.02565a2.52887,2.52887,0,0,1,2.19117-2.7719,2.7706,2.7706,0,1,0,.02443,5.52953A2.536,2.536,0,0,1,74.6467,125.02565Z" fill="#d8c834" stroke="#d8c834" stroke-miterlimit="10" stroke-width="1.55299"/><path d="M76.83787,122.25375a2.83631,2.83631,0,0,1,.02443,5.52953,2.7706,2.7706,0,1,0-.02443-5.52953Z" fill="#d8c834" stroke="#d8c834" stroke-miterlimit="10" stroke-width="1.55299"/><ellipse cx="78.78599" cy="126.24102" rx="0.44897" ry="0.38427" fill="#eee583" stroke="#eee581" stroke-miterlimit="10" stroke-width="1.2303"/><path d="M76.75758,122.254h.00011l.02444,5.52952H76.782a2.77765,2.77765,0,1,1-.02444-5.52953Z" fill="#d1bb1c" stroke="#d1bb1c" stroke-miterlimit="10" stroke-width="1.41097"/><path d="M74.47165,125.02622a2.56529,2.56529,0,0,1,2.08021-2.768c.03676-.00168.07388-.00214.111-.00276l.02443,5.52729c-.03708-.00038-.07421-.0006-.111-.002A2.5726,2.5726,0,0,1,74.47165,125.02622Z" fill="#a9984c" stroke="#d2bd03" stroke-miterlimit="10" stroke-width="1.41097"/><path d="M76.11885,122.30383a2.73719,2.73719,0,0,0,.024,5.434,2.71834,2.71834,0,0,1-.024-5.434Z" fill="#a9984c" stroke="#d2bd03" stroke-miterlimit="10" stroke-width="1.41097"/><path d="M76.67488,122.41235l.02325,5.26114a2.66963,2.66963,0,0,1-.02325-5.26114Z" fill="#f1e419" stroke="#f1e419" stroke-miterlimit="10" stroke-width="1.31855"/><path d="M76.787,122.255l.02339,5.29291A2.65155,2.65155,0,0,1,76.787,122.255Z" fill="#e1ce36" stroke="#e1ce34" stroke-miterlimit="10" stroke-width="1.31855"/></svg>