<?xml version="1.0" encoding="utf-8"?>
<!-- Generator: Adobe Illustrator 24.0.0, SVG Export Plug-In . SVG Version: 6.00 Build 0)  -->
<svg version="1.1" id="Layer_1" xmlns="http://www.w3.org/2000/svg" xmlns:xlink="http://www.w3.org/1999/xlink" x="0px" y="0px"
	 viewBox="0 0 441.5 487.62" style="enable-background:new 0 0 441.5 487.62;" xml:space="preserve">
<style type="text/css">
	.st0{fill:none;stroke:#333333;stroke-width:2;stroke-miterlimit:10;}
	.st1{fill:#7F7B50;}
	.st2{opacity:0.1;fill:#0D0D0D;stroke:#000000;stroke-miterlimit:10;}
	.st3{fill:#F2E41B;}
	.st4{fill:#402F2F;}
	.st5{fill:#CE9005;}
	.st6{fill:#EFAC06;}
	.st7{fill:$gold;}
	.st8{opacity:0.1;fill:#0D0D0D;}
	.st9{fill:#F2E74B;}
	.st10{fill:#F2E74B;stroke:#665A73;stroke-miterlimit:10;}
	.st11{fill:none;stroke:#402F2F;stroke-width:10;stroke-miterlimit:10;}
	.st12{opacity:0.5;}
	.st13{fill:#0D0D0D;}
	.st14{opacity:0.8;fill:#999999;}
</style>
<g>
	<line class="st0" x1="219.09" y1="59.38" x2="219.09" y2="0"/>
	<path class="st1" d="M271.13,119.68l-52.04-63.26l-0.05,0.06l-1.07,1.29l-63.41,77.08l-1.42,1.73h129.51v-2.88L271.13,119.68z"/>
	<polygon class="st2" points="282.66,133.82 282.66,135.84 217.97,135.84 217.97,56.16 218.38,55.67 219.04,56.48 271.02,119.68 	
		"/>
	<polygon class="st3" points="103.05,153.7 116.73,161.62 116.73,145.79 	"/>
	<line class="st0" x1="117" y1="177.44" x2="117" y2="145.79"/>
	<polygon class="st1" points="117,175.86 81.85,218.59 152.14,218.59 	"/>
	<rect x="80.41" y="218.8" class="st4" width="72.44" height="262.62"/>
	<rect x="153.13" y="134.85" class="st5" width="129.53" height="346.58"/>
	<rect x="281.81" y="218.8" class="st4" width="72.44" height="262.62"/>
	<rect x="353.85" y="277.02" class="st6" width="68.66" height="204.04"/>
	<rect x="82.84" y="377.42" class="st7" width="15.8" height="15.83"/>
	<rect x="199.57" y="119.68" class="st5" width="13.9" height="15.83"/>
	<rect x="176.35" y="119.68" class="st5" width="13.9" height="15.83"/>
	<rect x="152.66" y="119.68" class="st5" width="13.9" height="15.83"/>
	<rect x="353.85" y="261.84" class="st6" width="15.8" height="15.83"/>
	<rect x="406.71" y="261.84" class="st6" width="15.8" height="15.83"/>
	<rect x="380.62" y="261.84" class="st6" width="15.8" height="15.83"/>
	<rect x="222.79" y="119.68" class="st5" width="13.9" height="15.83"/>
	<rect x="268.75" y="119.68" class="st5" width="13.91" height="15.83"/>
	<rect x="246.02" y="119.68" class="st5" width="13.9" height="15.83"/>
	<rect x="14.47" y="277.38" class="st6" width="69.19" height="204.04"/>
	<rect x="14.89" y="261.98" class="st6" width="15.8" height="15.83"/>
	<rect x="67.86" y="261.98" class="st6" width="15.8" height="15.83"/>
	<rect x="40.98" y="261.98" class="st6" width="15.8" height="15.83"/>
	<polygon class="st2" points="151.76,218.19 116.4,218.19 116.4,175.72 116.62,175.46 	"/>
	<polygon class="st3" points="304.66,153.94 318.34,161.86 318.34,146.03 	"/>
	<line class="st0" x1="318.61" y1="177.68" x2="318.61" y2="146.03"/>
	<polygon class="st1" points="318.61,176.1 283.46,218.83 353.76,218.83 	"/>
	<polygon class="st2" points="353.38,218.43 318.02,218.43 318.02,175.97 318.23,175.7 	"/>
	<polygon class="st3" points="192.92,14.85 218.58,29.69 218.58,0 	"/>
	<rect x="354.53" y="436.98" class="st8" width="69.5" height="43.29"/>
	<rect x="13.89" y="437.66" class="st8" width="69.74" height="43.29"/>
	<path class="st9" d="M185.93,197.13v14.16h-19.16v-14.16c0-7.82,4.29-14.16,9.58-14.16c0.04,0,0.09,0,0.13,0
		c2.59,0.05,4.94,1.62,6.64,4.14C184.86,189.68,185.93,193.22,185.93,197.13z"/>
	<path class="st9" d="M266.49,197.13v14.16h-19.16v-14.16c0-7.82,4.29-14.16,9.58-14.16c0.04,0,0.09,0,0.13,0
		c2.59,0.05,4.94,1.62,6.64,4.14C265.42,189.68,266.49,193.22,266.49,197.13z"/>
	<path class="st9" d="M226.21,197.13v14.16h-19.16v-14.16c0-7.82,4.29-14.16,9.58-14.16c0.04,0,0.09,0,0.13,0
		c2.59,0.05,4.94,1.62,6.64,4.14C225.14,189.68,226.21,193.22,226.21,197.13z"/>
	<path class="st9" d="M397.74,316.08v14.16h-19.16v-14.16c0-7.82,4.29-14.16,9.58-14.16c0.04,0,0.09,0,0.13,0
		c2.59,0.05,4.94,1.62,6.64,4.14C396.67,308.63,397.74,312.17,397.74,316.08z"/>
	<path class="st10" d="M327.61,254.36v14.16h-19.16v-14.16c0-7.82,4.29-14.16,9.58-14.16c0.04,0,0.09,0,0.13,0
		c2.59,0.05,4.94,1.62,6.64,4.14C326.54,246.91,327.61,250.45,327.61,254.36z"/>
	<path class="st9" d="M126.21,254.36v14.16h-19.16v-14.16c0-7.82,4.29-14.16,9.58-14.16c0.04,0,0.09,0,0.13,0
		c2.59,0.05,4.94,1.62,6.64,4.14C125.14,246.91,126.21,250.45,126.21,254.36z"/>
	<path class="st9" d="M58.22,316.08v14.16H39.06v-14.16c0-7.82,4.29-14.16,9.58-14.16c0.04,0,0.09,0,0.13,0
		c2.59,0.05,4.94,1.62,6.64,4.14C57.15,308.63,58.22,312.17,58.22,316.08z"/>
	<path class="st8" d="M281.87,396.63H152.34v-35.61h129.53V396.63z"/>
	<rect x="83.75" y="392.58" class="st7" width="272.85" height="88.84"/>
	<rect x="311.33" y="377.42" class="st7" width="15.8" height="15.83"/>
	<rect x="168.52" y="377.42" class="st7" width="15.8" height="15.83"/>
	<rect x="282.77" y="377.42" class="st7" width="15.8" height="15.83"/>
	<rect x="111.4" y="377.42" class="st7" width="15.8" height="15.83"/>
	<rect x="340.59" y="377.42" class="st7" width="15.8" height="15.83"/>
	<rect x="254.21" y="377.42" class="st7" width="15.8" height="15.83"/>
	<rect x="197.08" y="377.42" class="st7" width="15.8" height="15.83"/>
	<rect x="139.96" y="377.42" class="st7" width="15.8" height="15.83"/>
	<rect x="225.64" y="377.42" class="st7" width="15.8" height="15.83"/>
	<path class="st9" d="M333.21,418.03v14.16h-19.16v-14.16c0-7.82,4.29-14.16,9.58-14.16c0.04,0,0.09,0,0.13,0
		c2.59,0.05,4.94,1.62,6.64,4.14C332.13,410.58,333.21,414.12,333.21,418.03z"/>
	<rect x="83.54" y="455.97" class="st8" width="273.06" height="24.53"/>
	<g>
		<path class="st11" d="M193.9,483.17v-28.88c0-15.95,12.91-28.88,28.83-28.88h0c15.92,0,28.83,12.93,28.83,28.88v28.88"/>
		<path class="st1" d="M251.55,454.29v28.88H193.9v-28.88c0-15.95,12.91-28.88,28.83-28.88c0.13,0,0.26,0,0.39,0.01
			c7.8,0.1,14.86,3.31,19.99,8.45C248.33,439.1,251.55,446.32,251.55,454.29z"/>
		<path class="st12" d="M250.76,454.29v28.88h-28.43v-57.76c7.8,0.1,14.86,3.31,19.99,8.45
			C247.54,439.1,250.76,446.32,250.76,454.29z"/>
		<ellipse class="st3" cx="216.8" cy="456.27" rx="3.16" ry="3.17"/>
		<ellipse class="st3" cx="229.44" cy="456.27" rx="3.16" ry="3.17"/>
	</g>
	<path class="st9" d="M142.73,418.03v14.16h-19.16v-14.16c0-7.82,4.29-14.16,9.58-14.16c0.04,0,0.09,0,0.13,0
		c2.59,0.05,4.94,1.62,6.64,4.14C141.66,410.58,142.73,414.12,142.73,418.03z"/>
	<rect y="481.29" class="st13" width="441.5" height="6.33"/>
	<path class="st14" d="M262.3,162.41h-13.79c-0.77,0-1.4-0.63-1.4-1.4v-5.11c0-0.77,0.63-1.4,1.4-1.4h13.79c0.77,0,1.4,0.63,1.4,1.4
		v5.11C263.7,161.78,263.08,162.41,262.3,162.41z"/>
	<path class="st14" d="M273.36,224.92h-13.79c-0.77,0-1.4-0.63-1.4-1.4v-5.11c0-0.77,0.63-1.4,1.4-1.4h13.79
		c0.77,0,1.4,0.63,1.4,1.4v5.11C274.76,224.29,274.13,224.92,273.36,224.92z"/>
	<path class="st14" d="M250.46,153.7h-13.79c-0.77,0-1.4-0.63-1.4-1.4v-5.11c0-0.77,0.63-1.4,1.4-1.4h13.79c0.77,0,1.4,0.63,1.4,1.4
		v5.11C251.86,153.08,251.23,153.7,250.46,153.7z"/>
	<path class="st14" d="M245.46,114.01h5.1c0.77,0,1.4-0.63,1.4-1.4v-0.97c0-0.77-0.63-1.4-1.4-1.4h-5.1c-0.77,0-1.4,0.63-1.4,1.4
		v0.97C244.06,113.38,244.68,114.01,245.46,114.01z"/>
	<path class="st14" d="M241.32,109.86h5.1c0.77,0,1.4-0.63,1.4-1.4v-0.97c0-0.77-0.63-1.4-1.4-1.4h-5.1c-0.77,0-1.4,0.63-1.4,1.4
		v0.97C239.92,109.23,240.55,109.86,241.32,109.86z"/>
	<path class="st14" d="M30.89,432.23H17.1c-0.77,0-1.4-0.63-1.4-1.4v-5.11c0-0.77,0.63-1.4,1.4-1.4h13.79c0.77,0,1.4,0.63,1.4,1.4
		v5.11C32.29,431.61,31.66,432.23,30.89,432.23z"/>
	<path class="st14" d="M406.84,414.03h-13.79c-0.77,0-1.4-0.63-1.4-1.4v-5.11c0-0.77,0.63-1.4,1.4-1.4h13.79
		c0.77,0,1.4,0.63,1.4,1.4v5.11C408.24,413.41,407.61,414.03,406.84,414.03z"/>
	<path class="st14" d="M346.02,315.12h-13.79c-0.77,0-1.4-0.63-1.4-1.4v-5.11c0-0.77,0.63-1.4,1.4-1.4h13.79
		c0.77,0,1.4,0.63,1.4,1.4v5.11C347.42,314.5,346.79,315.12,346.02,315.12z"/>
	<path class="st14" d="M336.54,305.63h-13.79c-0.77,0-1.4-0.63-1.4-1.4v-5.11c0-0.77,0.63-1.4,1.4-1.4h13.79
		c0.77,0,1.4,0.63,1.4,1.4v5.11C337.94,305,337.32,305.63,336.54,305.63z"/>
	<path class="st14" d="M134.35,292.97h-13.79c-0.77,0-1.4-0.63-1.4-1.4v-5.11c0-0.77,0.63-1.4,1.4-1.4h13.79
		c0.77,0,1.4,0.63,1.4,1.4v5.11C135.75,292.34,135.13,292.97,134.35,292.97z"/>
	<path class="st14" d="M188.85,411.66h-13.79c-0.77,0-1.4-0.63-1.4-1.4v-5.11c0-0.77,0.63-1.4,1.4-1.4h13.79
		c0.77,0,1.4,0.63,1.4,1.4v5.11C190.25,411.03,189.62,411.66,188.85,411.66z"/>
	<path class="st14" d="M300.21,436.19h-13.79c-0.77,0-1.4-0.63-1.4-1.4v-5.11c0-0.77,0.63-1.4,1.4-1.4h13.79
		c0.77,0,1.4,0.63,1.4,1.4v5.11C301.61,435.56,300.99,436.19,300.21,436.19z"/>
	<path class="st14" d="M282.84,436.19h-13.79c-0.77,0-1.4-0.63-1.4-1.4v-5.11c0-0.77,0.63-1.4,1.4-1.4h13.79
		c0.77,0,1.4,0.63,1.4,1.4v5.11C284.24,435.56,283.61,436.19,282.84,436.19z"/>
	<path class="st14" d="M291.53,427.49h-13.79c-0.77,0-1.4-0.63-1.4-1.4v-5.11c0-0.77,0.63-1.4,1.4-1.4h13.79
		c0.77,0,1.4,0.63,1.4,1.4v5.11C292.93,426.86,292.3,427.49,291.53,427.49z"/>
	<path class="st14" d="M414.73,422.74h-13.79c-0.77,0-1.4-0.63-1.4-1.4v-5.11c0-0.77,0.63-1.4,1.4-1.4h13.79
		c0.77,0,1.4,0.63,1.4,1.4v5.11C416.13,422.11,415.51,422.74,414.73,422.74z"/>
	<path class="st14" d="M226.76,332.53h-13.79c-0.77,0-1.4-0.63-1.4-1.4v-5.11c0-0.77,0.63-1.4,1.4-1.4h13.79
		c0.77,0,1.4,0.63,1.4,1.4v5.11C228.16,331.91,227.53,332.53,226.76,332.53z"/>
	<path class="st14" d="M209.39,332.53H195.6c-0.77,0-1.4-0.63-1.4-1.4v-5.11c0-0.77,0.63-1.4,1.4-1.4h13.79c0.77,0,1.4,0.63,1.4,1.4
		v5.11C210.79,331.91,210.16,332.53,209.39,332.53z"/>
	<path class="st14" d="M39.58,422.74H25.79c-0.77,0-1.4-0.63-1.4-1.4v-5.11c0-0.77,0.63-1.4,1.4-1.4h13.79c0.77,0,1.4,0.63,1.4,1.4
		v5.11C40.98,422.11,40.35,422.74,39.58,422.74z"/>
	<path class="st14" d="M124.88,361.02h-13.79c-0.77,0-1.4-0.63-1.4-1.4v-5.11c0-0.77,0.63-1.4,1.4-1.4h13.79
		c0.77,0,1.4,0.63,1.4,1.4v5.11C126.28,360.39,125.65,361.02,124.88,361.02z"/>
	<path class="st14" d="M116.19,352.31H102.4c-0.77,0-1.4-0.63-1.4-1.4v-5.11c0-0.77,0.63-1.4,1.4-1.4h13.79c0.77,0,1.4,0.63,1.4,1.4
		v5.11C117.59,351.69,116.96,352.31,116.19,352.31z"/>
	<path class="st14" d="M188.85,256.57h-13.79c-0.77,0-1.4-0.63-1.4-1.4v-5.11c0-0.77,0.63-1.4,1.4-1.4h13.79
		c0.77,0,1.4,0.63,1.4,1.4v5.11C190.25,255.94,189.62,256.57,188.85,256.57z"/>
	<path class="st14" d="M171.48,256.57h-13.79c-0.77,0-1.4-0.63-1.4-1.4v-5.11c0-0.77,0.63-1.4,1.4-1.4h13.79
		c0.77,0,1.4,0.63,1.4,1.4v5.11C172.88,255.94,172.25,256.57,171.48,256.57z"/>
	<path class="st14" d="M180.16,247.86h-13.79c-0.77,0-1.4-0.63-1.4-1.4v-5.11c0-0.77,0.63-1.4,1.4-1.4h13.79
		c0.77,0,1.4,0.63,1.4,1.4v5.11C181.56,247.24,180.94,247.86,180.16,247.86z"/>
	<path class="st14" d="M387.88,296.92H374.1c-0.77,0-1.4-0.63-1.4-1.4v-5.11c0-0.77,0.63-1.4,1.4-1.4h13.79c0.77,0,1.4,0.63,1.4,1.4
		v5.11C389.28,296.3,388.65,296.92,387.88,296.92z"/>
	<path class="st14" d="M370.51,296.92h-13.79c-0.77,0-1.4-0.63-1.4-1.4v-5.11c0-0.77,0.63-1.4,1.4-1.4h13.79
		c0.77,0,1.4,0.63,1.4,1.4v5.11C371.91,296.3,371.28,296.92,370.51,296.92z"/>
	<path class="st14" d="M378.4,364.97h-13.79c-0.77,0-1.4-0.63-1.4-1.4v-5.11c0-0.77,0.63-1.4,1.4-1.4h13.79c0.77,0,1.4,0.63,1.4,1.4
		v5.11C379.8,364.35,379.18,364.97,378.4,364.97z"/>
	<path class="st14" d="M385.51,373.68h-13.79c-0.77,0-1.4-0.63-1.4-1.4v-5.11c0-0.77,0.63-1.4,1.4-1.4h13.79
		c0.77,0,1.4,0.63,1.4,1.4v5.11C386.91,373.05,386.29,373.68,385.51,373.68z"/>
	<path class="st14" d="M69.32,364.12H55.54c-0.77,0-1.4-0.63-1.4-1.4v-5.11c0-0.77,0.63-1.4,1.4-1.4h13.79c0.77,0,1.4,0.63,1.4,1.4
		v5.11C70.72,363.49,70.1,364.12,69.32,364.12z"/>
	<path class="st14" d="M78.01,354.62H64.23c-0.77,0-1.4-0.63-1.4-1.4v-5.11c0-0.77,0.63-1.4,1.4-1.4h13.79c0.77,0,1.4,0.63,1.4,1.4
		v5.11C79.41,353.99,78.79,354.62,78.01,354.62z"/>
	<path class="st14" d="M30.89,287.43H17.1c-0.77,0-1.4-0.63-1.4-1.4v-5.11c0-0.77,0.63-1.4,1.4-1.4h13.79c0.77,0,1.4,0.63,1.4,1.4
		v5.11C32.29,286.8,31.66,287.43,30.89,287.43z"/>
	<path class="st14" d="M187.85,117.3h-5.1c-0.77,0-1.4-0.63-1.4-1.4v-0.97c0-0.77,0.63-1.4,1.4-1.4h5.1c0.77,0,1.4,0.63,1.4,1.4
		v0.97C189.25,116.68,188.63,117.3,187.85,117.3z"/>
	<path class="st14" d="M179.58,117.3h-5.1c-0.77,0-1.4-0.63-1.4-1.4v-0.97c0-0.77,0.63-1.4,1.4-1.4h5.1c0.77,0,1.4,0.63,1.4,1.4
		v0.97C180.98,116.68,180.35,117.3,179.58,117.3z"/>
	<path class="st14" d="M183.72,113.16h-5.1c-0.77,0-1.4-0.63-1.4-1.4v-0.97c0-0.77,0.63-1.4,1.4-1.4h5.1c0.77,0,1.4,0.63,1.4,1.4
		v0.97C185.12,112.53,184.49,113.16,183.72,113.16z"/>
	<path class="st14" d="M140.47,213.22h-5.1c-0.77,0-1.4-0.63-1.4-1.4v-0.97c0-0.77,0.63-1.4,1.4-1.4h5.1c0.77,0,1.4,0.63,1.4,1.4
		v0.97C141.87,212.59,141.24,213.22,140.47,213.22z"/>
	<path class="st14" d="M132.2,213.22h-5.1c-0.77,0-1.4-0.63-1.4-1.4v-0.97c0-0.77,0.63-1.4,1.4-1.4h5.1c0.77,0,1.4,0.63,1.4,1.4
		v0.97C133.6,212.59,132.97,213.22,132.2,213.22z"/>
	<path class="st14" d="M110.46,209.47h-5.1c-0.77,0-1.4-0.63-1.4-1.4v-0.97c0-0.77,0.63-1.4,1.4-1.4h5.1c0.77,0,1.4,0.63,1.4,1.4
		v0.97C111.86,208.84,111.23,209.47,110.46,209.47z"/>
	<path class="st14" d="M102.18,209.47h-5.1c-0.77,0-1.4-0.63-1.4-1.4v-0.97c0-0.77,0.63-1.4,1.4-1.4h5.1c0.77,0,1.4,0.63,1.4,1.4
		v0.97C103.58,208.84,102.96,209.47,102.18,209.47z"/>
	<path class="st14" d="M106.32,205.32h-5.1c-0.77,0-1.4-0.63-1.4-1.4v-0.97c0-0.77,0.63-1.4,1.4-1.4h5.1c0.77,0,1.4,0.63,1.4,1.4
		v0.97C107.72,204.7,107.09,205.32,106.32,205.32z"/>
	<path class="st14" d="M311.07,204.23h-5.1c-0.77,0-1.4-0.63-1.4-1.4v-0.97c0-0.77,0.63-1.4,1.4-1.4h5.1c0.77,0,1.4,0.63,1.4,1.4
		v0.97C312.47,203.6,311.84,204.23,311.07,204.23z"/>
	<path class="st14" d="M296.48,216.89h-5.1c-0.77,0-1.4-0.63-1.4-1.4v-0.97c0-0.77,0.63-1.4,1.4-1.4h5.1c0.77,0,1.4,0.63,1.4,1.4
		v0.97C297.88,216.26,297.25,216.89,296.48,216.89z"/>
	<path class="st14" d="M300.61,212.74h-5.1c-0.77,0-1.4-0.63-1.4-1.4v-0.97c0-0.77,0.63-1.4,1.4-1.4h5.1c0.77,0,1.4,0.63,1.4,1.4
		v0.97C302.01,212.12,301.39,212.74,300.61,212.74z"/>
	<path class="st14" d="M332.35,215.76h-5.1c-0.77,0-1.4-0.63-1.4-1.4v-0.97c0-0.77,0.63-1.4,1.4-1.4h5.1c0.77,0,1.4,0.63,1.4,1.4
		v0.97C333.75,215.13,333.12,215.76,332.35,215.76z"/>
	<path class="st14" d="M340.43,215.76h-5.1c-0.77,0-1.4-0.63-1.4-1.4v-0.97c0-0.77,0.63-1.4,1.4-1.4h5.1c0.77,0,1.4,0.63,1.4,1.4
		v0.97C341.83,215.13,341.21,215.76,340.43,215.76z"/>
</g>
</svg>
