<svg id="Layer_1" data-name="Layer 1" xmlns="http://www.w3.org/2000/svg" viewBox="0 0 353.65191 389.12652"><title>bluesword</title><path d="M334.23866,198.68857l-.42166-.02293-7.30634-2.37413-.38271-.1291-2.13358-.69282-8.07823-2.62648-2.82334-.91969-7.03271-2.2872a2.82359,2.82359,0,0,0-1.05773-.14542.02312.02312,0,0,1-.01554.00234,8.364,8.364,0,0,0-2.37508.50539,8.49264,8.49264,0,0,0-2.36816,1.342c-.05127.04079-.10257.08158-.15708.12529-.08353.07012-.16735.14641-.25117.2227l-.22884-.25144c-.08382.07629-.16764.15257-.24238.23236-.05157.04693-.097.09418-.14241.14141a8.49178,8.49178,0,0,0-1.55837,2.23171,8.36375,8.36375,0,0,0-.72616,2.31714l-.00089.01847a2.7489,2.7489,0,0,0,.04257,1.06348l1.61681,7.21639.65054,2.89722,1.85639,8.28914.31659,1.40347-2.46938,2.24746,1.59683,7.11672-.00667.14162a10.96036,10.96036,0,0,0,10.43635,11.46686l11.21331.52755,1.66044-2.69591,13.61483.64056a3.48862,3.48862,0,0,0,3.64606-3.31839l1.2139-25.80109A8.50311,8.50311,0,0,0,334.23866,198.68857Z" fill="#bfc6c9" stroke="#bfc6c9" stroke-miterlimit="10" stroke-width="1.23274"/><rect x="285.57978" y="294.60027" width="36.75963" height="79.91828" transform="translate(-146.02576 291.72702) rotate(-42.30631)" fill="#648bb0" stroke="#648bb0" stroke-miterlimit="10" stroke-width="1.23274"/><polygon points="292.482 295.188 299.037 302.39 298.461 302.549 271.593 309.986 285.827 297.031 291.906 295.347 292.482 295.188" fill="#4b7eb0" stroke="#4b7eb0" stroke-miterlimit="10" stroke-width="1.23274"/><polygon points="338.193 344.722 298.247 355.733 291.693 348.533 331.639 337.521 338.193 344.722" fill="#4b7eb0" stroke="#4b7eb0" stroke-miterlimit="10" stroke-width="1.23274"/><polygon points="325.184 330.573 285.381 341.453 278.828 334.252 318.63 323.372 325.184 330.573" fill="#4b7eb0" stroke="#4b7eb0" stroke-miterlimit="10" stroke-width="1.23274"/><polygon points="312.246 316.358 272.444 327.239 265.891 320.038 305.693 309.157 312.246 316.358" fill="#4b7eb0" stroke="#4b7eb0" stroke-miterlimit="10" stroke-width="1.23274"/><polygon points="343.475 350.67 344.449 351.74 332.249 362.844 310.982 368.79 310.409 368.952 303.854 361.75 304.427 361.588 343.475 350.67" fill="#4b7eb0" stroke="#4b7eb0" stroke-miterlimit="10" stroke-width="1.23274"/><rect x="252.6059" y="298.49138" width="43.41794" height="7.65657" rx="3.82828" transform="translate(-132.04615 263.37672) rotate(-42.30631)" fill="#4b7eb0" stroke="#4b7eb0" stroke-miterlimit="10" stroke-width="1.23274"/><path d="M286.07572,286.48257,272.85193,298.518l5.15359,5.66247L291.22931,292.145a3.82828,3.82828,0,0,0-5.15359-5.66247Z" fill="#648bb0" stroke="#648bb0" stroke-miterlimit="10" stroke-width="1.23274"/><path d="M312.78037,205.39583,329.563,223.83566l-1.149,1.85908-6.4701,10.48013-.14352.23085-1.66045,2.6959-7.11458,11.52056a226.8421,226.8421,0,0,1-29.62655,38.18643c-.83724.874-1.68649,1.74121-2.5384,2.59908q-4.24631,4.27141-8.7162,8.31012-4.269,3.86763-8.7404,7.51286c-.151.12558-.3019.25116-.45574.37351q-1.54487,1.25574-3.10674,2.47977a227.15032,227.15032,0,0,1-40.57679,25.3778l-11.647,5.67281-2.31169,1.1255-11.29961,5.504a.006.006,0,0,1-.00644.00585l-.00939.00265-.39484.19434-.09792.04786-.2178.1039-.02843.01411-.09468.04491-.46434.22809L175.90984,329.966Z" fill="#4b7eb0" stroke="#4b7eb0" stroke-miterlimit="10" stroke-width="1.23274"/><path d="M307.80735,209.57124l14.50132,15.93322-1.11879,1.72106-6.3007,9.70182-.1397.21375-1.61723,2.49553-6.92818,10.66507a232.72392,232.72392,0,0,1-28.45516,35.59481c-.79585.82109-1.60235,1.63658-2.41087,2.44375q-4.02991,4.01917-8.25351,7.83773-4.0342,3.65636-8.24332,7.12053c-.14219.11922-.28438.23844-.42908.35487q-1.45408,1.19355-2.92235,2.35923a232.90636,232.90636,0,0,1-37.88552,24.49875l-10.80942,5.58034-2.14544,1.10719-10.48705,5.41428a.006.006,0,0,1-.00608.00553l-.00864.00276-.36653.191-.09089.04706-.20205.10239-.02639.01386-.08782.04428-.431.22421L178.4416,327.31105Z" fill="#648bb0" stroke="#648bb0" stroke-miterlimit="10" stroke-width="1.23274"/><path d="M273.63485,263.289l-4.01208,4.04954-2.72378,2.77748-1.9366,1.97153-3.14217,3.218-1.50338,1.54736-3.99456,4.153.07923.08706,4.50473-3.59244,1.68168-1.35146,2.82581-2.28327-8.7718,7.98348L2.521,2.63586A.162.162,0,0,1,2.558,2.59228l.0806-.07335A5.66564,5.66564,0,0,1,6.11539.99627a10.83454,10.83454,0,0,1,3.41782.7698,19.52889,19.52889,0,0,1,2.38757,1.14031l2.4719,1.38191,4.9389,2.75843L39.08215,18.07487l4.93714,2.75007c1.64028.915,3.31231,1.76128,4.92585,2.621,1.597.835,3.18389,1.78857,4.76339,2.79871q2.36664,1.50263,4.68378,3.22934a89.70343,89.70343,0,0,1,8.925,7.59791c1.4194,1.38468,2.79362,2.81041,4.14406,4.28772l186.50324,204.919c2.7702,3.03078,5.5146,6.085,8.26866,9.13046q2.08251,2.26871,4.21009,4.49628Z" fill="#b2b2b2" stroke="#b2b2b2" stroke-miterlimit="10" stroke-width="1.2838"/><path d="M2.766,2.41288,256.88692,281.6263l-19.64871,17.8829L34.04354,76.25058a88.79733,88.79733,0,0,1-16.38888-25.351L1.78727,12.567C-.09,8.037.46208,4.46,2.558,2.59228l.0806-.07335A1.2475,1.2475,0,0,1,2.766,2.41288Z" fill="#9c9b9b" stroke="#9c9b9b" stroke-miterlimit="10" stroke-width="1.2838"/><polygon points="265.638 274.112 257.111 281.873 256.823 281.557 261.225 277.851 262.871 276.46 265.638 274.112" fill="#fff" stroke="#fff" stroke-miterlimit="10" stroke-width="1.2664"/><polygon points="143.286 117.039 159.23 134.556 155.518 133.716 139.43 130.06 127.075 127.256 121.128 125.902 113.603 124.194 113.036 124.064 106.062 122.481 100.115 121.128 87.201 118.195 68.313 113.904 52.369 96.386 71.258 100.677 84.171 103.61 90.113 104.958 97.093 106.546 97.655 106.671 105.185 108.384 111.127 109.732 123.481 112.537 139.569 116.193 143.286 117.039" fill="#b2b2b2" stroke="#b2b2b2" stroke-miterlimit="10" stroke-width="1.11194"/><path d="M250.48853,234.794c.03815.04191.07336.08059.10827.12544.208.23505.419.4733.62673.7145.43924.502.872,1.00994,1.30482,1.51785l2.37519,2.77162.61411.72009-.10287.08773-.5756.4944-.82941.70772-4.18631,3.58611-2.1387.07218-3.01042.10523-9.50394.32737-4.57414.15508-5.78893.19975-.43569.01344-.73569.0271-4.62984.15862-4.5712.15831-6.28651.21645-.29057.011-3.35642.11363-.72014.02474-.955.03221-12.85421.44127-9.4505-10.38367,14.52931-.49824,8.22114-.27971.48525-.01729,1.22711-.0441,3.60682-.12345.65212-.02177.3152-.00986,4.62984-.15862.73569-.02711.43569-.01344,5.78893-.19974,4.57413-.15508,9.50394-.32737,3.20512-.11148,9.14212-.31047.02786-.00176,2.63951-.09182.00293.00323.2164-.00834Z" fill="#70706f" stroke="#70706f" stroke-miterlimit="10" stroke-width="1.11194"/><path d="M151.9898,148.03106c.674,2.41133-.6128,3.9506-2.87067,3.43854l-.00819-.00251-5.942-1.34789-7.53017-1.71343-.562-.12529-6.97957-1.58769-5.942-1.34789-12.91343-2.93307-18.88818-4.291-9.38581-10.31259,18.88815,4.291,12.91343,2.93307,5.942,1.34789,6.97958,1.5877.562.12532,7.53014,1.71339,5.942,1.34789,6.955,1.58015A8.05722,8.05722,0,0,1,151.9898,148.03106Z" fill="#ececec" stroke="#ececec" stroke-miterlimit="10" stroke-width="0.65462"/><path d="M221.31105,203.4509l6.53765,7.1832-3.0781-.144-13.32042-.61495-10.23587-.47683-4.92152-.22661-6.2326-.28774-.46925-.02342-5.7767-.266-4.925-.23038-2.36261-.10906a4.16178,4.16178,0,0,1-3.77961-3.61532,3.02758,3.02758,0,0,1,.643-2.31784,2.92668,2.92668,0,0,1,.25354-.2654,2.88172,2.88172,0,0,1,2.09888-.71823l1.53065.06924,5.78017.26986.46577.01961,6.23607.29155,4.92151.22659,10.23586.47683,13.32043.61495Z" fill="#ececec" stroke="#ececec" stroke-miterlimit="10" stroke-width="0.65462"/><path d="M70.42051,54.23681,266.899,270.11606l-1.9366,1.97153-3.14217,3.218-1.50338,1.54736-3.99456,4.153L41.99832,45.51906C48.175,39.89744,60.93067,43.80992,70.42051,54.23681Z" fill="#fff" stroke="#fff" stroke-miterlimit="10" stroke-width="1.2664"/><path d="M41.75289,45.74261l214.89039,236.1092-11.20932,10.202L47.75865,74.8595C38.26945,64.43331,35.57214,51.3679,41.75289,45.74261Z" fill="#70706f" stroke="#70706f" stroke-miterlimit="10" stroke-width="1.2664"/><path d="M256.32228,281.0059l.07923.08706,4.50473-3.59244,1.68168-1.35146.14365.15784-11.69573,10.64465L53.36368,69.76076C48.5296,64.44935,47.07257,57.8554,50,54.803a1.64913,1.64913,0,0,1,.23011-.23931c1.61833-1.47289,4.08912-1.69182,6.76609-.87466a18.874,18.874,0,0,1,8.06322,5.42708l196.7608,216.18946-1.50338,1.54736Z" fill="#585857" stroke="#585857" stroke-miterlimit="10" stroke-width="1.2664"/><path d="M249.65507,280.25188,55.94235,67.41147c-2.70067-2.96734-3.52637-6.63545-1.87959-8.35092l.08589-.08935.02341-.03151.02236-.02034a3.82026,3.82026,0,0,1,3.78927-.489,10.55453,10.55453,0,0,1,4.497,3.03044L256.19339,274.30115Z" fill="#343434" stroke="#343434" stroke-miterlimit="10" stroke-width="1.2664"/><path d="M267.887,253.904c.20309.22314.40119.44081.601.66688,1.16914,1.304,2.33031,2.62515,3.48331,3.94383l4.065,4.62832,1.05224,1.20148-.69058.56882-5.1086,4.19178-.03223.02934-2.63041,2.13531-.80536.64347-1.73478,1.40968-.56487.45441-.10809.08848-.41957.342-2.40624,1.94125-1.68168,1.35146-4.50473,3.59244-.07923-.08706,3.99456-4.153,1.50338-1.54736,2.17793-2.231.301-.30387.66319-.68314.03223-.02934.78392-.803,1.12045-1.13915.17706-.18107.81618-.83234.61653-.63078,1.114-1.13329,4.01208-4.04954-3.19152-3.38361q-2.12116-2.23344-4.21009-4.49628c-.51187-.56889-1.022-1.12944-1.53391-1.69833-.68526-.75937-1.37542-1.52417-2.06066-2.28355q-2.33061-2.58018-4.67409-5.14858L71.46134,41.35966c-1.35044-1.47731-2.72466-2.903-4.14406-4.28772a89.70343,89.70343,0,0,0-8.925-7.59791q-2.31557-1.72819-4.68378-3.22934C52.129,25.23455,50.5421,24.281,48.94514,23.446c-1.61354-.85976-3.28557-1.70606-4.92585-2.621l-4.93714-2.75007L19.33158,7.04672l-4.9389-2.75843-2.4719-1.38191A19.52889,19.52889,0,0,0,9.53321,1.76607,10.83454,10.83454,0,0,0,6.11539.99627a6.19739,6.19739,0,0,0-4.537,1.43285C3.15464.56674,6.04918-.04789,9.412,1.03065a16.62234,16.62234,0,0,1,2.53955,1.04176L14.4283,3.31068l4.94525,2.474,19.79076,9.88721,4.94527,2.474c1.65889.83834,3.27911,1.71188,4.96176,2.62813a84.84794,84.84794,0,0,1,10.07141,6.4549,95.2348,95.2348,0,0,1,9.51918,8.10183c1.51,1.47132,2.98657,3.003,4.41129,4.56191l186.50323,204.919C262.33052,247.85713,265.11684,250.87325,267.887,253.904Z" fill="none" stroke="#f5f5f5" stroke-miterlimit="10"/><polygon points="256.777 281.505 256.823 281.557 256.57 281.77 256.142 282.129 256.54 281.738 256.777 281.505" fill="#f5f5f5" stroke="#f5f5f5" stroke-miterlimit="10"/><rect x="311.01077" y="363.5231" width="43.41794" height="7.65657" rx="3.82828" transform="translate(-160.60746 319.62574) rotate(-42.30631)" fill="#4b7eb0" stroke="#4b7eb0" stroke-miterlimit="10" stroke-width="1.23274"/><path d="M344.48059,351.51428,331.2568,363.54967l5.15359,5.66247,13.22379-12.03539a3.82828,3.82828,0,0,0-5.15359-5.66247Z" fill="#648bb0" stroke="#648bb0" stroke-miterlimit="10" stroke-width="1.23274"/><polygon points="265.363 276.052 256.89 283.712 256.604 283.4 260.978 279.742 262.613 278.369 265.363 276.052" fill="#fff" stroke="#fff" stroke-miterlimit="10" stroke-width="1.2664"/><path d="M271.90818,241.82031l-3.75767,3.39733c-.13439-.01243-.272-.022-.40667-.02833l-.69787-.033-12.081-3.91022-4.80346-5.24287c-.20662-.23831-.41646-.4737-.62337-.706l-.03616-.01391-.31433-.10015-.00292-.00319-3.84379-1.24194-7.85351-2.54352-4.66582-1.50624-5.50558-1.78359-6.12816-1.98365a8.22082,8.22082,0,0,0-2.85533-.406l-.33058-.01558-.17369.04055-.04312.004-.01866.00524a16.7413,16.7413,0,0,0-2.0696.30459,16.468,16.468,0,0,0-2.48107.7057c-.38406.14338-.76225.29315-1.13229.46463a17.15507,17.15507,0,0,0-3.72909,2.265c-.02535.01708-.051.04026-.07633.05735-.0862.0721-.16921.14132-.24261.20186l-.0096.00867c-.17854.144-.35444.29717-.53065.45648a17.06062,17.06062,0,0,0-2.26729,2.49248c-.1962.25892-.38366.5274-.56206.79935-.08209.115-.15835.23632-.23165.36085a17.39508,17.39508,0,0,0-1.057,1.934c-.1434.31018-.28066.62063-.40277.93485-.1288.32608-.24564.65885-.35313.989a17.30242,17.30242,0,0,0-.62869,2.61251,7.95909,7.95909,0,0,0,.1212,3.041l.64511,2.8585.17541.77322.06882.29884,1.15584,5.11641,3.478,15.3863,5.42212,5.91811.72652,3.21588.14757.64693,2.7846,12.31523-.03251.6933c-.01827.3892-.02078.77-.00174,1.1488l-3.6039,3.25832a17.52112,17.52112,0,0,0,16.17009,13.136l29.51284,1.39294q1.5523-1.21124,3.08736-2.44769l11.25174.53106a5.73685,5.73685,0,0,0,4.15257-1.48317,5.66839,5.66839,0,0,0,1.87635-3.96761l.51908-11.06832c.84651-.84687,1.69038-1.703,2.5223-2.56578l1.38588-29.486a17.22827,17.22827,0,0,0-4.55095-12.52354A17.48938,17.48938,0,0,0,271.90818,241.82031Z" fill="#bfc6c9" stroke="#bfc6c9" stroke-miterlimit="10" stroke-width="1.23274"/><polygon points="256.557 283.349 256.604 283.4 256.352 283.611 255.927 283.965 256.322 283.579 256.557 283.349" fill="#f5f5f5" stroke="#f5f5f5" stroke-miterlimit="10"/><path d="M280.19521,258.73276l-1.98763,42.38191a5.66842,5.66842,0,0,1-1.87634,3.96762,5.737,5.737,0,0,1-4.15257,1.48317l-42.66235-2.01358a14.00257,14.00257,0,0,1-9.72585-4.54875c-.0642-.07006-.12841-.14015-.18619-.216l-.03793-.04141c-.12812-.14624-.25011-.29219-.37184-.44421l-.0029-.00316a.04193.04193,0,0,1-.02307-.03158l-.00292-.00319-.29508-.37963c-.09838-.12653-.19062-.25277-.27936-.388-.08905-.12916-.17781-.26439-.26364-.39643s-.16848-.267-.25111-.40194a.6683.6683,0,0,1-.068-.119,3.9715,3.9715,0,0,1-.20148-.34777.71505.71505,0,0,1-.04207-.08428c-.085-.1503-.16385-.3003-.23629-.45607q-.042-.08429-.07537-.159c-.07828-.16219-.15366-.32117-.21972-.48275-.06633-.1555-.12973-.30782-.18381-.46274-.0634-.15232-.1178-.30116-.16576-.45581-.04093-.10859-.07571-.2169-.11051-.3252-.02982-.0837-.05352-.16708-.07721-.25049-.04214-.14826-.08426-.29654-.12319-.4477a2.24438,2.24438,0,0,1-.06911-.29276,2.99626,2.99626,0,0,1-.07613-.33883,1.7343,1.7343,0,0,1-.05685-.29217,3.94421,3.94421,0,0,1-.07066-.39038,2.08441,2.08441,0,0,1-.03464-.24237c-.01964-.10455-.03578-.21807-.04582-.3313a.18649.18649,0,0,1-.00326-.06111q-.02026-.15639-.03094-.32146c-.03209-.29711-.04843-.60263-.05255-.90757-.00338-.1891-.00679-.3782-.00087-.56992.00016-.13408.00351-.271.00979-.40485l.03249-.69329-3.656-16.16877-4.87514-21.57157-1.22172-5.41208-.82347-3.63488a4.616,4.616,0,0,1-.07727-1.7529,13.84448,13.84448,0,0,1,1.98435-5.22419,2.12775,2.12775,0,0,1,.1324-.20708,13.74042,13.74042,0,0,1,2.29131-2.67723l.00321-.0029c.13775-.12454.27841-.24589.4188-.36119.08619-.0721.1692-.14132.25513-.20735a14.05049,14.05049,0,0,1,7.84191-3.03087c.00934-.00261.01839.00087.02772-.00174a4.74428,4.74428,0,0,1,1.7466.23786l11.6308,3.764,4.66872,1.50945,13.35619,4.32391,3.52946,1.14178.63452.2067,12.081,3.91023.69787.03295c.13469.00636.27227.0159.40667.02833a.84352.84352,0,0,1,.12536.009c.12827.01213.25945.02749.39385.03992a.5657.5657,0,0,1,.10379.011.92556.92556,0,0,1,.13409.01853,7.32651,7.32651,0,0,1,.74.11721c.16442.026.32829.06425.48923.09928a.59676.59676,0,0,1,.10933.02343c.2035.04314.40061.09206.59421.14995.20295.0553.4056.11666.605.18093.0455.0113.09071.02865.133.04285.15718.05008.31113.103.4616.165a.28861.28861,0,0,1,.08429.03445c.16884.06282.33447.12854.49982.20035a2.64111,2.64111,0,0,1,.2794.12594c.14433.06166.28549.12623.42024.19659.189.09121.37156.18818.55705.28837a.87588.87588,0,0,1,.08955.053c.15546.08658.30479.17286.45384.26524a.21462.21462,0,0,1,.05077.02981c.13416.08252.27124.16822.40194.25973a.50771.50771,0,0,1,.07437.04921c.10414.06892.20827.13782.30893.21573.16045.11117.32059.22846.47433.3515.07994.06169.1628.12654.24272.18821l.07965.06775c.15347.12915.30694.2583.454.39323A13.8958,13.8958,0,0,1,280.19521,258.73276Z" fill="#648bb0" stroke="#73a2bd" stroke-miterlimit="10" stroke-width="1.23274"/><path d="M210.9206,232.68124l66.02273,72.06224a5.7607,5.7607,0,0,1-4.14613,1.49019l-10.391-.461-32.156-1.42671a13.87748,13.87748,0,0,1-9.4955-4.31652l-.02613-.02851a13.69653,13.69653,0,0,1-3.78191-9.02477c-.01792-.37755-.01434-.7572.005-1.14525l.0344-.69124-2.74246-12.26923-.14535-.64451-.71552-3.20386-.08509-.38052-3.03286-13.56436-1.05813-4.74127-.62815-2.808-1.10833-4.96228-.9033-4.04165a4.6337,4.6337,0,0,1-.06921-1.7441c.00349-.00895.00091-.01817.00441-.02714a13.54792,13.54792,0,0,1,.50294-2.05292,13.90183,13.90183,0,0,1,.70475-1.74315c.157-.32726.32883-.64476.51286-.96171.12686-.21313.263-.42888.405-.63832a13.68973,13.68973,0,0,1,1.65982-2.06237c.0743-.07873.15148-.1543.23187-.23278C210.648,232.93348,210.78285,232.80577,210.9206,232.68124Z" fill="#4b7eb0" stroke="#648bb0" stroke-miterlimit="10" stroke-width="1.23274"/><polygon points="268.269 277.244 259.796 284.905 259.51 284.593 263.884 280.935 265.519 279.562 268.269 277.244" fill="#fff" stroke="#fff" stroke-miterlimit="10" stroke-width="1.2664"/><polygon points="259.464 284.542 259.51 284.593 259.258 284.803 258.833 285.158 259.229 284.772 259.464 284.542" fill="#f5f5f5" stroke="#f5f5f5" stroke-miterlimit="10"/><path d="M237.47355,261.02617l-.00051.0005L264.81339,290.868l.00054-.00046a20.07233,20.07233,0,0,0,1.336-28.48791A20.39517,20.39517,0,0,0,237.47355,261.02617Z" fill="#d1bc07" stroke="#d2bd06" stroke-miterlimit="10" stroke-width="1.41097"/><path d="M237.02047,261.43581l.00054-.00046,27.34035,29.84134-.00051.0005a20.39517,20.39517,0,0,1-28.67641-1.35347A20.07233,20.07233,0,0,1,237.02047,261.43581Z" fill="#d0ba1c" stroke="#d0ba1c" stroke-miterlimit="10" stroke-width="1.41097"/><ellipse cx="250.39692" cy="275.29796" rx="16.75625" ry="19.25524" transform="translate(-120.82012 249.11593) rotate(-43.67755)" fill="#efe318" stroke="#efe318" stroke-miterlimit="10" stroke-width="1.31855"/><path d="M241.14807,284.984c-7.54985-8.24048-9.08742-19.064-3.43426-24.17507-7.56841,6.84265-7.58348,19.06994-.03364,27.31042s19.80561,9.37362,27.374,2.531C259.401,295.76139,248.69789,293.22447,241.14807,284.984Z" fill="#d8c935" stroke="#d8c935" stroke-miterlimit="10" stroke-width="1.55299"/><path d="M237.71381,260.809c5.65314-5.111,16.35628-2.57416,23.90612,5.66632s9.0874,19.064,3.43426,24.17506c7.5684-6.84263,7.58345-19.06994.03362-27.3104S245.2822,253.96631,237.71381,260.809Z" fill="#d8c935" stroke="#d8c935" stroke-miterlimit="10" stroke-width="1.55299"/><ellipse cx="266.42758" cy="274.25274" rx="2.80286" ry="2.82147" transform="translate(-25.70007 520.95023) rotate(-86.00977)" fill="#eee481" stroke="#eee47f" stroke-miterlimit="10" stroke-width="1.2303"/><path d="M237.34084,261.14615l.00052-.00043,27.34034,29.84134-.00047.00047c-7.81155,7.06247-20.2644,6.10751-27.81424-2.133S229.5293,268.20862,237.34084,261.14615Z" fill="#d0ba1c" stroke="#d0ba1c" stroke-miterlimit="10" stroke-width="1.41097"/><path d="M240.33486,285.71924c-7.319-7.98845-8.98723-18.404-3.93238-23.69.1631-.16284.33388-.32062.50366-.47907l27.32931,29.82929c-.17474.153-.3489.30713-.52742.45314C257.93576,296.33556,247.65377,293.70767,240.33486,285.71924Z" fill="#a9984d" stroke="#d2bd06" stroke-miterlimit="10" stroke-width="1.41097"/><path d="M234.60868,264.08742c-5.17628,7.04235-4.42956,17.46751,2.2583,24.76716s17.066,9.017,24.60994,4.55888a20.40427,20.40427,0,0,1-25.67208-3.59859A20.07032,20.07032,0,0,1,234.60868,264.08742Z" fill="#a9984d" stroke="#d2bd06" stroke-miterlimit="10" stroke-width="1.41097"/><path d="M237.73494,262.34951l26.01334,28.39295c-5.68231,5.13741-16.112,2.94612-23.2954-4.89437S232.05263,267.48692,237.73494,262.34951Z" fill="#efe318" stroke="#efe318" stroke-miterlimit="10" stroke-width="1.31855"/><path d="M237.48312,261.02857l26.17042,28.5644c-6.38265,5.7706-17.41525,4.05422-24.642-3.83362S231.10047,266.79917,237.48312,261.02857Z" fill="#e1cd34" stroke="#e0cd34" stroke-miterlimit="10" stroke-width="1.31855"/><polygon points="334.293 219.019 329.172 223.68 328.999 223.49 331.643 221.265 332.631 220.429 334.293 219.019" fill="#fff" stroke="#fff" stroke-miterlimit="10" stroke-width="1.2664"/><polygon points="328.971 223.459 328.999 223.49 328.846 223.619 328.59 223.834 328.829 223.599 328.971 223.459" fill="#f5f5f5" stroke="#f5f5f5" stroke-miterlimit="10"/><path d="M343.2593,208.48228l-1.21269,25.77533a3.4828,3.4828,0,0,1-3.64409,3.31659l-25.77532-1.21269a8.429,8.429,0,0,1-5.87494-2.76363c-.03876-.04259-.07754-.0852-.11243-.13132l-.02291-.02517c-.07736-.0889-.151-.17763-.22453-.27l-.00175-.00193a.02543.02543,0,0,1-.01393-.0192l-.00177-.00193-.17817-.23079c-.0594-.07693-.1151-.15368-.16868-.2359-.05377-.07853-.10735-.16074-.15918-.241s-.10171-.16233-.1516-.24437a.40681.40681,0,0,1-.04108-.07235,2.41892,2.41892,0,0,1-.12164-.21144.43613.43613,0,0,1-.02539-.05124c-.0513-.09139-.09891-.18259-.14263-.2773q-.0254-.05125-.0455-.09667c-.04725-.09861-.09275-.19527-.13262-.29352-.04-.09455-.07829-.18716-.11092-.28137-.03827-.09261-.07109-.18311-.1-.27716-.0247-.066-.04569-.13188-.06668-.19774-.018-.05089-.03229-.10159-.04658-.15231-.02542-.09015-.05083-.18032-.07431-.27224a1.37216,1.37216,0,0,1-.04167-.178,1.83078,1.83078,0,0,1-.0459-.206,1.06074,1.06074,0,0,1-.03427-.17767c-.01677-.07679-.03338-.15726-.04258-.23739a1.27331,1.27331,0,0,1-.02086-.14739c-.01184-.06358-.02156-.13261-.02759-.20147a.114.114,0,0,1-.00195-.03716q-.01221-.0951-.01861-.19549c-.01931-.18068-.02909-.36648-.0315-.55193-.002-.115-.004-.23-.00037-.3466.00014-.08154.0022-.16484.006-.24622l.01983-.42163-2.20442-9.8321-2.93947-13.1175-.73664-3.291-.49651-2.21034a2.825,2.825,0,0,1-.0462-1.066,8.46225,8.46225,0,0,1,1.20037-3.17767,1.296,1.296,0,0,1,.08005-.126,8.35329,8.35329,0,0,1,1.38512-1.62881l.00194-.00176c.08325-.07578.16828-.14962.25313-.21978.0521-.04387.10227-.086.1542-.12617a8.499,8.499,0,0,1,2.36679-1.33984,8.40669,8.40669,0,0,1,2.372-.50558c.00564-.00159.01111.00052.01675-.00107a2.84815,2.84815,0,0,1,1.0552.14417l7.02609,2.28588,2.82034.91668,8.06839,2.62589,2.13212.69339.38331.12554,7.29807,2.37465.42163.01985c.08138.00383.1645.0096.2457.01712a.5049.5049,0,0,1,.07574.00542c.07749.00734.15675.01665.23794.02416a.34027.34027,0,0,1,.06271.00665.55664.55664,0,0,1,.081.01124,4.39726,4.39726,0,0,1,.447.07107c.09933.0158.19833.039.29555.06024a.35876.35876,0,0,1,.066.01422c.123.02618.242.05588.359.091.1226.03357.245.07084.3655.10986.02748.00686.05479.0174.08034.026.095.03042.188.06259.27884.10024a.17333.17333,0,0,1,.05092.02092c.102.03816.202.07808.30193.12171a1.59,1.59,0,0,1,.16877.07651c.08719.03746.17246.07669.25385.11944.11416.05542.22444.11434.33648.17522a.52671.52671,0,0,1,.05409.0322c.0939.0526.1841.105.27413.16117a.12913.12913,0,0,1,.03066.01812c.081.05015.16383.10223.24278.15785a.305.305,0,0,1,.04491.0299c.06291.04189.1258.08376.18659.13111.09691.06757.19364.13885.28649.21364.04828.03749.09832.07691.14659.11439l.04811.04118c.09269.0785.18537.157.27417.239A8.46974,8.46974,0,0,1,343.2593,208.48228Z" fill="#648bb0" stroke="#73a2bd" stroke-miterlimit="10" stroke-width="1.23274"/><path d="M301.412,192.65821l39.86977,43.80662a3.46988,3.46988,0,0,1-2.50544.90743l-6.278-.27748-19.42774-.85871a8.35268,8.35268,0,0,1-5.73582-2.62246l-.01577-.01734a8.34933,8.34933,0,0,1-2.28246-5.4874c-.01072-.22961-.00845-.46049.00333-.69649l.021-.42039-1.65353-7.46083-.08764-.39192-.43142-1.94825-.0513-.23139-1.82863-8.24839-.638-2.88313-.37873-1.70754-.66825-3.01752-.54463-2.45771a2.83571,2.83571,0,0,1-.04134-1.06066c.00212-.00544.00056-.01105.00268-.0165a8.28764,8.28764,0,0,1,.30444-1.24864,8.49208,8.49208,0,0,1,.42628-1.0603c.09495-.19907.19885-.39221.31013-.585.07671-.12965.159-.2609.24488-.38831a8.3272,8.3272,0,0,1,1.00341-1.2547c.04491-.0479.09157-.09389.14016-.14163C301.24721,192.81169,301.32872,192.734,301.412,192.65821Z" fill="#4b7eb0" stroke="#648bb0" stroke-miterlimit="10" stroke-width="1.23274"/><polygon points="336.049 219.744 330.927 224.405 330.755 224.215 333.398 221.989 334.387 221.154 336.049 219.744" fill="#fff" stroke="#fff" stroke-miterlimit="10" stroke-width="1.2664"/><polygon points="330.726 224.184 330.755 224.215 330.602 224.343 330.345 224.559 330.585 224.324 330.726 224.184" fill="#f5f5f5" stroke="#f5f5f5" stroke-miterlimit="10"/><path d="M317.44694,209.88893l-.00031.0003,16.51028,18.14055.00033-.00028a12.26448,12.26448,0,0,0-16.5103-18.14057Z" fill="#d1bc07" stroke="#d2bd06" stroke-miterlimit="10" stroke-width="1.41097"/><path d="M317.17308,210.13818l.00033-.00028,16.51028,18.14054-.00031.00031a12.26448,12.26448,0,1,1-16.5103-18.14057Z" fill="#d0ba1c" stroke="#d0ba1c" stroke-miterlimit="10" stroke-width="1.41097"/><ellipse cx="325.25105" cy="218.56479" rx="10.15939" ry="11.6692" transform="translate(-62.40527 275.84818) rotate(-42.30631)" fill="#efe318" stroke="#efe318" stroke-miterlimit="10" stroke-width="1.31855"/><path d="M319.66035,224.458c-4.5592-5.00939-5.48516-11.59135-2.06819-14.70123-4.57462,4.1635-4.58713,11.59958-.02793,16.609s11.96361,5.6951,16.53823,1.5316C330.68549,231.00721,324.21954,229.46736,319.66035,224.458Z" fill="#d8c935" stroke="#d8c935" stroke-miterlimit="10" stroke-width="1.55299"/><path d="M317.59216,209.75676c3.417-3.10988,9.88291-1.57005,14.44211,3.43934s5.48514,11.59135,2.06819,14.70123c4.5746-4.16349,4.5871-11.59959.02791-16.609S322.16676,205.59327,317.59216,209.75676Z" fill="#d8c935" stroke="#d8c935" stroke-miterlimit="10" stroke-width="1.55299"/><circle cx="334.9368" cy="217.92467" r="1.70463" fill="#eee481" stroke="#eee47f" stroke-miterlimit="10" stroke-width="1.2303"/><path d="M317.36672,209.96193l.00032-.00026,16.51027,18.14055-.00029.00028c-4.72157,4.29725-12.24511,3.72-16.8043-1.28943S312.64515,214.25918,317.36672,209.96193Z" fill="#d0ba1c" stroke="#d0ba1c" stroke-miterlimit="10" stroke-width="1.41097"/><path d="M319.16882,224.90534c-4.41976-4.85618-5.42481-11.19-2.36928-14.40606.09858-.09908.20181-.19509.30443-.29149L333.60758,228.341c-.10561.09312-.21088.18688-.31878.27572C329.8,231.35681,323.58856,229.7615,319.16882,224.90534Z" fill="#a9984d" stroke="#d2bd06" stroke-miterlimit="10" stroke-width="1.41097"/><path d="M315.71518,211.75144c-3.12938,4.28428-2.68113,10.62418,1.35753,15.06164s10.30848,5.479,14.86765,2.76566a12.26291,12.26291,0,0,1-16.22518-17.8273Z" fill="#a9984d" stroke="#d2bd06" stroke-miterlimit="10" stroke-width="1.41097"/><path d="M317.6045,210.69365l15.70892,17.26007c-3.43458,3.12592-9.73543,1.79618-14.07333-2.97005S314.16991,213.81957,317.6045,210.69365Z" fill="#efe318" stroke="#efe318" stroke-miterlimit="10" stroke-width="1.31855"/><path d="M317.45272,209.89038l15.80378,17.3643c-3.85789,3.51119-10.52313,2.47044-14.88723-2.32458S313.59482,213.40158,317.45272,209.89038Z" fill="#e1cd34" stroke="#e0cd34" stroke-miterlimit="10" stroke-width="1.31855"/><path d="M200.43129,316.3694l-.14162-.00666-6.93536-2.258-2.78209,2.53207-.32818-.108-8.07793-2.63264-2.82363-.91352-7.03565-2.29043a2.804,2.804,0,0,0-1.05479-.14219c-.00616-.00029-.0091-.00352-.01847-.00089a8.34859,8.34859,0,0,0-2.37215.50863,8.498,8.498,0,0,0-2.3711,1.33872c-.05128.04078-.10256.08159-.15093.1256-.08674.07305-.17349.14611-.25409.21946l-.00322.00293-.22887-.25146c-.08382.07629-.1647.15581-.24236.23238-.04863.05017-.097.09418-.1424.14141a8.62111,8.62111,0,0,0-1.55546,2.23492,8.4408,8.4408,0,0,0-.72614,2.31716l-.00382.01524a2.89333,2.89333,0,0,0,.04549,1.0667l1.6168,7.21639.65056,2.89723,1.85962,8.28621.48945,2.18918.08936.39609,1.67767,7.497-.01676.42195a8.4597,8.4597,0,0,0,2.32029,6.2343c.03491.04484.076.09.11412.13187a8.435,8.435,0,0,0,5.88093,2.76377l25.80108,1.21392a3.4781,3.4781,0,0,0,3.64605-3.31839l.68923-14.64937,2.31169-1.1255.509-10.81922a10.9709,10.9709,0,0,0-10.43635-11.46686Z" fill="#bfc6c9" stroke="#bfc6c9" stroke-miterlimit="10" stroke-width="1.23274"/><polygon points="200.569 338.941 195.447 343.602 195.275 343.412 197.919 341.187 198.907 340.351 200.569 338.941" fill="#fff" stroke="#fff" stroke-miterlimit="10" stroke-width="1.2664"/><polygon points="195.246 343.381 195.275 343.412 195.122 343.54 194.866 343.756 195.105 343.521 195.246 343.381" fill="#f5f5f5" stroke="#f5f5f5" stroke-miterlimit="10"/><path d="M209.53512,328.40409l-1.21269,25.77532a3.48278,3.48278,0,0,1-3.64408,3.3166L178.903,356.28332a8.42894,8.42894,0,0,1-5.87493-2.76363c-.03877-.0426-.07754-.0852-.11243-.13132l-.02291-.02517c-.07737-.0889-.151-.17763-.22453-.27005l-.00176-.00192a.02543.02543,0,0,1-.01392-.0192l-.00177-.00194-.17818-.23079c-.0594-.07692-.11509-.15367-.16867-.23589-.05377-.07853-.10736-.16074-.15918-.241s-.10172-.16233-.1516-.24437a.40687.40687,0,0,1-.04109-.07235,2.41643,2.41643,0,0,1-.12163-.21145.43459.43459,0,0,1-.02539-.05124c-.0513-.09138-.09891-.18258-.14264-.27729q-.02538-.05126-.04549-.09667c-.04725-.09861-.09275-.19528-.13262-.29352-.04-.09455-.07829-.18717-.11092-.28137-.03827-.09261-.07109-.18312-.1-.27716-.02469-.066-.04568-.13189-.06668-.19774-.018-.05089-.03229-.1016-.04657-.15231-.02542-.09016-.05083-.18032-.07431-.27224a1.37216,1.37216,0,0,1-.04167-.178,1.83078,1.83078,0,0,1-.0459-.206,1.05966,1.05966,0,0,1-.03427-.17768c-.01677-.07678-.03338-.15725-.04259-.23738a1.27564,1.27564,0,0,1-.02085-.1474c-.01184-.06357-.02156-.1326-.0276-.20146a.11452.11452,0,0,1-.002-.03716q-.01219-.09512-.0186-.19549c-.01931-.18068-.0291-.36648-.0315-.55193-.002-.115-.004-.23-.00037-.3466.00014-.08154.0022-.16484.006-.24622l.01983-.42163-2.20442-9.8321-2.93947-13.1175-.73664-3.291-.49651-2.21035a2.82483,2.82483,0,0,1-.0462-1.066,8.46257,8.46257,0,0,1,1.20036-3.17767,1.29721,1.29721,0,0,1,.08006-.126,8.35329,8.35329,0,0,1,1.38512-1.62881l.00193-.00176c.08326-.07578.16829-.14962.25314-.21978.05209-.04387.10226-.086.1542-.12617a8.4991,8.4991,0,0,1,2.36678-1.33984,8.40683,8.40683,0,0,1,2.372-.50558c.00564-.00159.0111.00052.01674-.00107a2.84813,2.84813,0,0,1,1.0552.14417l7.02609,2.28588,2.82035.91668,8.06838,2.62588,2.13212.6934.38331.12553,7.29808,2.37466.42163.01985c.08138.00383.1645.00959.2457.01711a.50755.50755,0,0,1,.07574.00542c.07749.00735.15675.01665.23794.02417a.34027.34027,0,0,1,.06271.00665.55531.55531,0,0,1,.081.01123,4.39941,4.39941,0,0,1,.447.07108c.09934.01579.19834.039.29556.06024a.35794.35794,0,0,1,.066.01422c.12294.02618.242.05587.359.091.12261.03357.245.07083.36551.10986.02748.00686.05479.0174.08034.026.09494.03042.18794.06259.27884.10023a.17373.17373,0,0,1,.05092.02093c.102.03816.20205.07808.30193.1217a1.59,1.59,0,0,1,.16877.07652c.08719.03746.17245.07669.25385.11944.11415.05542.22444.11434.33648.17522a.52829.52829,0,0,1,.05408.03219c.09391.05261.18411.105.27414.16118a.12933.12933,0,0,1,.03066.01812c.081.05014.16383.10223.24278.15784a.30591.30591,0,0,1,.04491.02991c.06291.04188.1258.08376.18659.13111.09691.06757.19364.13885.28649.21363.04828.0375.09832.07691.14659.1144l.04811.04118c.09269.0785.18537.157.27417.239A8.46974,8.46974,0,0,1,209.53512,328.40409Z" fill="#648bb0" stroke="#73a2bd" stroke-miterlimit="10" stroke-width="1.23274"/><path d="M167.6878,312.58l39.86978,43.80662a3.46983,3.46983,0,0,1-2.50544.90742l-6.278-.27747-19.42774-.85871a8.35263,8.35263,0,0,1-5.73582-2.62247l-.01578-.01733a8.34934,8.34934,0,0,1-2.28245-5.4874c-.01073-.22961-.00846-.46049.00333-.69649l.021-.42039-1.65353-7.46084-.08765-.39192-.43141-1.94824-.0513-.23139-1.82863-8.24839-.638-2.88313-.37873-1.70754-.66826-3.01753-.54463-2.4577a2.8357,2.8357,0,0,1-.04133-1.06066c.00211-.00544.00055-.01105.00268-.01651a8.2878,8.2878,0,0,1,.30444-1.24863,8.49294,8.49294,0,0,1,.42627-1.0603c.09495-.19907.19886-.39221.31014-.585.0767-.12965.159-.2609.24488-.38831a8.3267,8.3267,0,0,1,1.00341-1.2547c.04491-.0479.09157-.09389.14016-.14164C167.523,312.7335,167.60454,312.65579,167.6878,312.58Z" fill="#4b7eb0" stroke="#648bb0" stroke-miterlimit="10" stroke-width="1.23274"/><polygon points="202.325 339.665 197.203 344.327 197.03 344.137 199.674 341.911 200.662 341.075 202.325 339.665" fill="#fff" stroke="#fff" stroke-miterlimit="10" stroke-width="1.2664"/><polygon points="197.002 344.106 197.03 344.137 196.878 344.265 196.621 344.481 196.86 344.246 197.002 344.106" fill="#f5f5f5" stroke="#f5f5f5" stroke-miterlimit="10"/><path d="M183.72277,329.81073l-.00031.00031,16.51028,18.14054.00033-.00027a12.26449,12.26449,0,0,0-16.5103-18.14058Z" fill="#d1bc07" stroke="#d2bd06" stroke-miterlimit="10" stroke-width="1.41097"/><path d="M183.44891,330.06l.00033-.00028,16.51027,18.14055-.0003.0003A12.26448,12.26448,0,1,1,183.44891,330.06Z" fill="#d0ba1c" stroke="#d0ba1c" stroke-miterlimit="10" stroke-width="1.41097"/><ellipse cx="191.52688" cy="338.4866" rx="10.15939" ry="11.6692" transform="translate(-177.95144 217.07205) rotate(-42.30631)" fill="#efe318" stroke="#efe318" stroke-miterlimit="10" stroke-width="1.31855"/><path d="M185.93618,344.37979c-4.5592-5.00938-5.48516-11.59134-2.06819-14.70123-4.57462,4.1635-4.58713,11.59959-.02793,16.609s11.96361,5.69509,16.53823,1.53159C196.96132,350.929,190.49537,349.38916,185.93618,344.37979Z" fill="#d8c935" stroke="#d8c935" stroke-miterlimit="10" stroke-width="1.55299"/><path d="M183.868,329.67856c3.417-3.10987,9.88291-1.57,14.4421,3.43935s5.48515,11.59135,2.0682,14.70122c4.5746-4.16349,4.5871-11.59959.02791-16.609S188.44259,325.51507,183.868,329.67856Z" fill="#d8c935" stroke="#d8c935" stroke-miterlimit="10" stroke-width="1.55299"/><circle cx="201.21263" cy="337.84647" r="1.70463" fill="#eee481" stroke="#eee47f" stroke-miterlimit="10" stroke-width="1.2303"/><path d="M183.64255,329.88374l.00031-.00026L200.15314,348.024l-.00029.00029c-4.72157,4.29725-12.24511,3.71995-16.8043-1.28943S178.921,334.181,183.64255,329.88374Z" fill="#d0ba1c" stroke="#d0ba1c" stroke-miterlimit="10" stroke-width="1.41097"/><path d="M185.44465,344.82715c-4.41977-4.85618-5.42481-11.19-2.36929-14.40606.09859-.09909.20182-.19509.30444-.29149l16.50361,18.13322c-.10561.09312-.21088.18687-.31878.27572C196.07586,351.27862,189.86439,349.68331,185.44465,344.82715Z" fill="#a9984d" stroke="#d2bd06" stroke-miterlimit="10" stroke-width="1.41097"/><path d="M181.991,331.67325c-3.12938,4.28428-2.68113,10.62418,1.35753,15.06163s10.30848,5.479,14.86765,2.76566A12.2629,12.2629,0,0,1,181.991,331.67325Z" fill="#a9984d" stroke="#d2bd06" stroke-miterlimit="10" stroke-width="1.41097"/><path d="M183.88032,330.61545l15.70893,17.26007c-3.43459,3.12593-9.73543,1.79619-14.07333-2.97S180.44574,333.74138,183.88032,330.61545Z" fill="#efe318" stroke="#efe318" stroke-miterlimit="10" stroke-width="1.31855"/><path d="M183.72855,329.81219l15.80378,17.3643c-3.8579,3.51119-10.52313,2.47044-14.88723-2.32458S179.87065,333.32339,183.72855,329.81219Z" fill="#e1cd34" stroke="#e0cd34" stroke-miterlimit="10" stroke-width="1.31855"/><path d="M335.0087,357.59809,321.1352,370.2248l5.4068,5.94068,13.8735-12.62671a4.01638,4.01638,0,0,0-5.4068-5.94068Z" fill="#97464b" stroke="#97464b" stroke-miterlimit="10" stroke-width="1.23274"/><path d="M316.71087,373.65244l.74508-20.71934a2.72457,2.72457,0,0,1,2.89535-2.63515l20.69777,1.20353a6.92543,6.92543,0,0,1,4.73964,2.2747c.03149.0346.063.06921.09139.10661l.01861.02045c.06288.07218.12279.14419.1826.21917l.00143.00156a.02105.02105,0,0,1,.01134.01557l.00144.00157.145.18719c.04836.0624.09374.12462.13747.19122.04385.06363.08759.13023.12989.19525s.08307.13146.12384.19788a.33691.33691,0,0,1,.03361.05855c.03668.05577.06885.11276.0995.17114a.35948.35948,0,0,1,.02083.04143c.042.074.081.14772.11693.22428q.02083.04144.03737.07815c.0388.07973.07617.15787.109.23724.033.0764.06449.15123.09151.22728.03154.07482.05868.1479.08274.22379.0204.05332.03783.10648.05526.15963.01489.04109.02682.082.03874.12291.0212.07273.04238.14547.062.21961a1.1201,1.1201,0,0,1,.035.14354,1.4951,1.4951,0,0,1,.03867.16612.86411.86411,0,0,1,.02907.1432c.01415.0619.02819.12677.03629.19129a1.03647,1.03647,0,0,1,.018.11873c.01007.05124.01848.10684.02393.16228a.09227.09227,0,0,1,.00189.0299q.01065.07661.01667.15739c.01709.14549.02659.295.03017.44418.00261.09251.00524.185.00336.27875.00061.06558-.00031.13256-.00266.198l-.01218.33893,1.8563,7.92709,2.47533,10.57591.62036,2.65338.41806,1.78209a2.28332,2.28332,0,0,1,.04652.85776,6.56792,6.56792,0,0,1-.2329,1.01431,6.48369,6.48369,0,0,1-.70237,1.53073,1.01359,1.01359,0,0,1-.06313.10061,6.49957,6.49957,0,0,1-1.09727,1.29772l-.00154.00141c-.06615.0602-.13373.11884-.20121.17451-.04143.03482-.08132.06825-.12265.10011a6.64207,6.64207,0,0,1-3.787,1.44224c-.00452.00123-.00892-.00051-.01343.00071a2.30173,2.30173,0,0,1-.84817-.12529l-5.65932-1.90065-2.27169-.76222-6.49886-2.18333-1.71736-.57655-.30876-.10435-5.87839-1.97446-.33857-.0197c-.06535-.0038-.13211-.00917-.19735-.01594a.408.408,0,0,1-.06083-.005c-.06226-.00659-.12595-.01478-.19119-.02154a.27331.27331,0,0,1-.05038-.00591.44831.44831,0,0,1-.06512-.00975,3.55718,3.55718,0,0,1-.35942-.06112c-.07986-.01358-.15952-.0331-.23774-.05106a.29146.29146,0,0,1-.05314-.012c-.0989-.02215-.19474-.04708-.28891-.07639-.0987-.02809-.19728-.05914-.29433-.0916-.02212-.00576-.04413-.01447-.06471-.02164-.07647-.0253-.15139-.052-.22468-.08308a.14225.14225,0,0,1-.04105-.01728c-.0822-.03159-.16285-.06458-.2434-.10055a1.30609,1.30609,0,0,1-.13614-.063c-.0703-.0309-.13909-.0632-.20479-.09831-.09211-.04557-.18114-.09394-.27161-.1439a.43447.43447,0,0,1-.04369-.02637c-.07583-.04314-.14869-.08611-.22145-.132a.10727.10727,0,0,1-.02477-.01484c-.06548-.041-.13239-.08368-.19624-.1291a.25417.25417,0,0,1-.03632-.02445c-.05085-.03425-.1017-.06848-.15091-.1071-.07838-.0552-.15664-.11339-.23182-.17436l-.11867-.0933-.039-.03354c-.07508-.064-.15017-.12791-.22216-.19466A6.97143,6.97143,0,0,1,316.71087,373.65244Z" fill="#4b7eb0" stroke="#4b7eb0" stroke-miterlimit="10" stroke-width="1.23274"/><path d="M350.629,386.65486l-32.387-35.58494a2.72651,2.72651,0,0,1,2.00281-.70762l5.04109.27874,15.60012.86264a6.86042,6.86042,0,0,1,4.62674,2.15993l.01281.01408a6.87577,6.87577,0,0,1,1.88046,4.43351c.01064.18476.01086.37043.00349.56013l-.01311.33792,1.39317,6.01509.07381.316.36349,1.57072.04323.18655,1.54067,6.65.53757,2.32444.31908,1.37666.56305,2.4328.45888,1.98145a2.29136,2.29136,0,0,1,.04256.85341l-.002.01326a6.57939,6.57939,0,0,1-.23328,1.00153,6.68712,6.68712,0,0,1-.33274.849c-.07445.15925-.15613.31367-.24373.46775-.06042.10359-.12534.20842-.1931.31013a6.48221,6.48221,0,0,1-.79423,1.00023c-.03562.03812-.07265.07469-.11123.11266C350.75987,386.53288,350.69514,386.59465,350.629,386.65486Z" fill="#648bb0" stroke="#648bb0" stroke-miterlimit="10" stroke-width="1.23274"/><path d="M325.20114,358.30156l-.00026.00026,13.89673,15.26893.00028-.00023a10.323,10.323,0,0,0-13.89675-15.269Z" fill="#d1bc07" stroke="#d2bd06" stroke-miterlimit="10" stroke-width="1.41097"/><path d="M324.97063,358.51135l.00028-.00023,13.89673,15.26894-.00026.00025a10.323,10.323,0,0,1-13.89675-15.269Z" fill="#d0ba1c" stroke="#d0ba1c" stroke-miterlimit="10" stroke-width="1.41097"/><path d="M327.06417,370.56437c-3.83748-4.21641-4.61687-9.75646-1.7408-12.37406-3.85046,3.50443-3.861,9.7634-.02351,13.97981s10.0698,4.79358,13.92026,1.28915C336.34406,376.07687,330.90165,374.78077,327.06417,370.56437Z" fill="#d8c935" stroke="#d8c935" stroke-miterlimit="10" stroke-width="1.55299"/><path d="M325.32337,358.19031c2.87606-2.61759,8.31847-1.32151,12.15595,2.8949s4.61686,9.75647,1.7408,12.37406c3.85046-3.50442,3.861-9.7634.0235-13.9798S329.17382,354.68589,325.32337,358.19031Z" fill="#d8c935" stroke="#d8c935" stroke-miterlimit="10" stroke-width="1.55299"/><circle cx="339.92239" cy="365.06526" r="1.43479" fill="#eee481" stroke="#eee47f" stroke-miterlimit="10" stroke-width="1.2303"/><path d="M325.13362,358.363l.00026-.00022,13.89674,15.26893-.00024.00024c-3.97416,3.617-10.30674,3.1311-14.14422-1.08531S321.15947,361.98,325.13362,358.363Z" fill="#d0ba1c" stroke="#d0ba1c" stroke-miterlimit="10" stroke-width="1.41097"/><path d="M326.65045,370.94091c-3.72013-4.08746-4.56608-9.41863-1.99423-12.12561.083-.0834.16986-.16421.25624-.24535l13.89113,15.26277c-.0889.07838-.17751.15729-.26833.23207C335.59877,376.37112,330.37056,375.02835,326.65045,370.94091Z" fill="#a9984d" stroke="#d2bd06" stroke-miterlimit="10" stroke-width="1.41097"/><path d="M323.74351,359.86924c-2.634,3.60609-2.25671,8.9424,1.14264,12.67741s8.67667,4.61166,12.51413,2.32786a10.32171,10.32171,0,0,1-13.65677-15.00527Z" fill="#a9984d" stroke="#d2bd06" stroke-miterlimit="10" stroke-width="1.41097"/><path d="M325.33376,358.9789,338.556,373.50673c-2.8909,2.6311-8.19433,1.51186-11.84555-2.49989S322.44285,361.61,325.33376,358.9789Z" fill="#efe318" stroke="#efe318" stroke-miterlimit="10" stroke-width="1.31855"/><path d="M325.206,358.30279l13.30208,14.61556c-3.2472,2.95538-8.85734,2.07938-12.53061-1.9566S321.9588,361.25817,325.206,358.30279Z" fill="#e1cd34" stroke="#e0cd34" stroke-miterlimit="10" stroke-width="1.31855"/></svg>