<?xml version="1.0" encoding="utf-8"?>
<!-- Generator: Adobe Illustrator 24.0.0, SVG Export Plug-In . SVG Version: 6.00 Build 0)  -->
<svg version="1.1" xmlns="http://www.w3.org/2000/svg" xmlns:xlink="http://www.w3.org/1999/xlink" x="0px" y="0px"
	 viewBox="0 0 298.88 329.49" style="enable-background:new 0 0 298.88 329.49;" xml:space="preserve">
<style type="text/css">
	.st0{fill:none;stroke:#333333;stroke-width:2;stroke-miterlimit:10;}
	.st1{fill:#F2BA52;}
	.st2{opacity:0.1;fill:#0D0D0D;stroke:#000000;stroke-miterlimit:10;}
	.st3{fill:#F2E41B;}
	.st4{fill:#590212;}
	.st5{fill:#93253D;}
	.st6{fill:#8C041D;}
	.st7{fill:#A62929;}
	.st8{opacity:0.1;fill:#0D0D0D;}
	.st9{fill:#A67A44;stroke:#A67A44;stroke-miterlimit:10;}
	.st10{fill:none;stroke:#704C25;stroke-width:10;stroke-miterlimit:10;}
	.st11{fill:#A67A44;}
	.st12{fill:#0D0D0D;}
	.st13{opacity:0.8;fill:#999999;}
</style>
<g id="Castle">
	<line class="st0" x1="148.32" y1="40.13" x2="148.32" y2="0"/>
	<path class="st1" d="M183.55,80.87l-35.23-42.75l-0.03,0.04l-0.72,0.87l-42.92,52.08l-0.96,1.17h87.68v-1.95L183.55,80.87z"/>
	<polygon class="st2" points="191.35,90.42 191.35,91.79 147.56,91.79 147.56,37.95 147.83,37.62 148.28,38.16 183.48,80.87 	"/>
	<polygon class="st3" points="69.76,103.86 79.02,109.21 79.02,98.51 	"/>
	<line class="st0" x1="79.2" y1="119.9" x2="79.2" y2="98.51"/>
	<polygon class="st1" points="79.2,118.83 55.41,147.7 103,147.7 	"/>
	<rect x="54.43" y="147.85" class="st4" width="49.04" height="177.46"/>
	<rect x="103.35" y="91.12" class="st5" width="87.69" height="234.19"/>
	<rect x="190.78" y="147.85" class="st4" width="49.04" height="177.46"/>
	<rect x="239.55" y="187.18" class="st6" width="46.48" height="137.87"/>
	<rect x="56.08" y="255.02" class="st7" width="10.69" height="10.69"/>
	<rect x="135.11" y="80.87" class="st5" width="9.41" height="10.69"/>
	<rect x="119.39" y="80.87" class="st5" width="9.41" height="10.69"/>
	<rect x="103.66" y="80.87" class="st5" width="9.41" height="10.69"/>
	<rect x="239.69" y="176.93" class="st6" width="10.69" height="10.69"/>
	<rect x="275.33" y="176.93" class="st6" width="10.69" height="10.69"/>
	<rect x="257.67" y="176.93" class="st6" width="10.69" height="10.69"/>
	<rect x="150.83" y="80.87" class="st5" width="9.41" height="10.69"/>
	<rect x="181.94" y="80.87" class="st5" width="9.42" height="10.69"/>
	<rect x="166.55" y="80.87" class="st5" width="9.41" height="10.69"/>
	<rect x="9.57" y="187.43" class="st6" width="46.84" height="137.87"/>
	<rect x="9.54" y="177.02" class="st6" width="10.69" height="10.69"/>
	<rect x="45.94" y="177.02" class="st6" width="10.69" height="10.69"/>
	<rect x="27.74" y="177.02" class="st6" width="10.69" height="10.69"/>
	<polygon class="st2" points="102.74,147.43 78.8,147.43 78.8,118.74 78.95,118.56 	"/>
	<polygon class="st3" points="206.25,104.02 215.51,109.37 215.51,98.67 	"/>
	<line class="st0" x1="215.69" y1="120.06" x2="215.69" y2="98.67"/>
	<polygon class="st1" points="215.69,118.99 191.9,147.87 239.48,147.87 	"/>
	<polygon class="st2" points="239.23,147.6 215.29,147.6 215.29,118.9 215.43,118.73 	"/>
	<polygon class="st3" points="130.6,10.03 147.98,20.06 147.98,0 	"/>
	<rect x="240.01" y="295.27" class="st8" width="47.05" height="29.25"/>
	<rect x="9.4" y="295.73" class="st8" width="47.21" height="29.25"/>
	<path class="st9" d="M125.87,133.2v9.57H112.9v-9.57c0-5.28,2.9-9.57,6.48-9.57c0.03,0,0.06,0,0.09,0c1.76,0.03,3.34,1.1,4.5,2.8
		C125.15,128.17,125.87,130.56,125.87,133.2z"/>
	<path class="st9" d="M180.41,133.2v9.57h-12.97v-9.57c0-5.28,2.9-9.57,6.48-9.57c0.03,0,0.06,0,0.09,0c1.76,0.03,3.34,1.1,4.5,2.8
		C179.68,128.17,180.41,130.56,180.41,133.2z"/>
	<path class="st9" d="M153.14,133.2v9.57h-12.97v-9.57c0-5.28,2.9-9.57,6.48-9.57c0.03,0,0.06,0,0.09,0c1.76,0.03,3.34,1.1,4.5,2.8
		C152.41,128.17,153.14,130.56,153.14,133.2z"/>
	<path class="st9" d="M269.26,213.58v9.57h-12.97v-9.57c0-5.28,2.9-9.57,6.48-9.57c0.03,0,0.06,0,0.09,0c1.76,0.03,3.34,1.1,4.5,2.8
		C268.54,208.55,269.26,210.94,269.26,213.58z"/>
	<path class="st9" d="M221.78,171.87v9.57h-12.97v-9.57c0-5.28,2.9-9.57,6.48-9.57c0.03,0,0.06,0,0.09,0c1.76,0.03,3.34,1.1,4.5,2.8
		C221.06,166.84,221.78,169.23,221.78,171.87z"/>
	<path class="st9" d="M85.44,171.87v9.57H72.47v-9.57c0-5.28,2.9-9.57,6.48-9.57c0.03,0,0.06,0,0.09,0c1.76,0.03,3.34,1.1,4.5,2.8
		C84.71,166.84,85.44,169.23,85.44,171.87z"/>
	<path class="st9" d="M39.41,213.58v9.57H26.45v-9.57c0-5.28,2.9-9.57,6.48-9.57c0.03,0,0.06,0,0.09,0c1.76,0.03,3.34,1.1,4.5,2.8
		C38.69,208.55,39.41,210.94,39.41,213.58z"/>
	<path class="st8" d="M190.82,268h-87.69v-24.06h87.69V268z"/>
	<rect x="56.55" y="265.27" class="st7" width="184.71" height="60.03"/>
	<rect x="210.76" y="255.02" class="st7" width="10.69" height="10.69"/>
	<rect x="114.08" y="255.02" class="st7" width="10.69" height="10.69"/>
	<rect x="191.43" y="255.02" class="st7" width="10.69" height="10.69"/>
	<rect x="75.41" y="255.02" class="st7" width="10.69" height="10.69"/>
	<rect x="230.57" y="255.02" class="st7" width="10.69" height="10.69"/>
	<rect x="172.09" y="255.02" class="st7" width="10.69" height="10.69"/>
	<rect x="133.42" y="255.02" class="st7" width="10.69" height="10.69"/>
	<rect x="94.75" y="255.02" class="st7" width="10.69" height="10.69"/>
	<rect x="152.76" y="255.02" class="st7" width="10.69" height="10.69"/>
	<path class="st9" d="M225.57,282.47v9.57H212.6v-9.57c0-5.28,2.9-9.57,6.48-9.57c0.03,0,0.06,0,0.09,0c1.76,0.03,3.34,1.1,4.5,2.8
		C224.85,277.44,225.57,279.83,225.57,282.47z"/>
	<rect x="56.55" y="308.1" class="st8" width="184.71" height="16.57"/>
	<g>
		<path class="st10" d="M134.68,324.77v-19.52c0-10.78,8.74-19.52,19.52-19.52h0c10.78,0,19.52,8.74,19.52,19.52v19.52"/>
		<path class="st1" d="M173.71,305.25v19.52h-39.03v-19.52c0-10.78,8.74-19.52,19.52-19.52c0.09,0,0.18,0,0.27,0.01
			c5.28,0.07,10.06,2.23,13.53,5.71C171.53,294.99,173.71,299.86,173.71,305.25z"/>
		<path class="st11" d="M173.71,305.25v19.52h-19.25v-39.03c5.28,0.07,10.06,2.23,13.53,5.71
			C171.53,294.99,173.71,299.86,173.71,305.25z"/>
		<circle class="st3" cx="149.65" cy="310.24" r="2.14"/>
		<circle class="st3" cx="159.81" cy="310.24" r="2.14"/>
	</g>
	<path class="st9" d="M96.62,282.47v9.57H83.66v-9.57c0-5.28,2.9-9.57,6.48-9.57c0.03,0,0.06,0,0.09,0c1.76,0.03,3.34,1.1,4.5,2.8
		C95.9,277.44,96.62,279.83,96.62,282.47z"/>
	<rect y="325.21" class="st12" width="298.88" height="4.28"/>
	<path class="st13" d="M177.12,109.74h-8.43c-0.77,0-1.4-0.63-1.4-1.4v-2.55c0-0.77,0.63-1.4,1.4-1.4h8.43c0.77,0,1.4,0.63,1.4,1.4
		v2.55C178.52,109.11,177.89,109.74,177.12,109.74z"/>
	<path class="st13" d="M184.61,151.98h-8.43c-0.77,0-1.4-0.63-1.4-1.4v-2.55c0-0.77,0.63-1.4,1.4-1.4h8.43c0.77,0,1.4,0.63,1.4,1.4
		v2.55C186.01,151.35,185.38,151.98,184.61,151.98z"/>
	<path class="st13" d="M169.1,103.86h-8.43c-0.77,0-1.4-0.63-1.4-1.4v-2.55c0-0.77,0.63-1.4,1.4-1.4h8.43c0.77,0,1.4,0.63,1.4,1.4
		v2.55C170.5,103.23,169.87,103.86,169.1,103.86z"/>
	<path class="st13" d="M166.49,77.03h2.8c0.7,0,1.27-0.57,1.27-1.27v0c0-0.7-0.57-1.27-1.27-1.27h-2.8c-0.7,0-1.27,0.57-1.27,1.27v0
		C165.22,76.46,165.79,77.03,166.49,77.03z"/>
	<path class="st13" d="M163.69,74.23h2.8c0.7,0,1.27-0.57,1.27-1.27v0c0-0.7-0.57-1.27-1.27-1.27h-2.8c-0.7,0-1.27,0.57-1.27,1.27v0
		C162.42,73.66,162.99,74.23,163.69,74.23z"/>
</g>
<g id="texture">
	<path class="st13" d="M20.46,292.06h-8.43c-0.77,0-1.4-0.63-1.4-1.4v-2.55c0-0.77,0.63-1.4,1.4-1.4h8.43c0.77,0,1.4,0.63,1.4,1.4
		v2.55C21.86,291.44,21.23,292.06,20.46,292.06z"/>
	<path class="st13" d="M274.97,279.77h-8.43c-0.77,0-1.4-0.63-1.4-1.4v-2.55c0-0.77,0.63-1.4,1.4-1.4h8.43c0.77,0,1.4,0.63,1.4,1.4
		v2.55C276.37,279.14,275.74,279.77,274.97,279.77z"/>
	<path class="st13" d="M233.8,212.93h-8.43c-0.77,0-1.4-0.63-1.4-1.4v-2.55c0-0.77,0.63-1.4,1.4-1.4h8.43c0.77,0,1.4,0.63,1.4,1.4
		v2.55C235.2,212.31,234.57,212.93,233.8,212.93z"/>
	<path class="st13" d="M227.38,206.52h-8.43c-0.77,0-1.4-0.63-1.4-1.4v-2.55c0-0.77,0.63-1.4,1.4-1.4h8.43c0.77,0,1.4,0.63,1.4,1.4
		v2.55C228.78,205.89,228.15,206.52,227.38,206.52z"/>
	<path class="st13" d="M90.5,197.96h-8.43c-0.77,0-1.4-0.63-1.4-1.4v-2.55c0-0.77,0.63-1.4,1.4-1.4h8.43c0.77,0,1.4,0.63,1.4,1.4
		v2.55C91.9,197.33,91.28,197.96,90.5,197.96z"/>
	<path class="st13" d="M127.39,278.16h-8.43c-0.77,0-1.4-0.63-1.4-1.4v-2.55c0-0.77,0.63-1.4,1.4-1.4h8.43c0.77,0,1.4,0.63,1.4,1.4
		v2.55C128.79,277.54,128.17,278.16,127.39,278.16z"/>
	<path class="st13" d="M202.78,294.74h-8.43c-0.77,0-1.4-0.63-1.4-1.4v-2.55c0-0.77,0.63-1.4,1.4-1.4h8.43c0.77,0,1.4,0.63,1.4,1.4
		v2.55C204.18,294.11,203.56,294.74,202.78,294.74z"/>
	<path class="st13" d="M191.02,294.74h-8.43c-0.77,0-1.4-0.63-1.4-1.4v-2.55c0-0.77,0.63-1.4,1.4-1.4h8.43c0.77,0,1.4,0.63,1.4,1.4
		v2.55C192.42,294.11,191.79,294.74,191.02,294.74z"/>
	<path class="st13" d="M196.9,288.86h-8.43c-0.77,0-1.4-0.63-1.4-1.4v-2.55c0-0.77,0.63-1.4,1.4-1.4h8.43c0.77,0,1.4,0.63,1.4,1.4
		v2.55C198.3,288.23,197.68,288.86,196.9,288.86z"/>
	<path class="st13" d="M280.31,285.65h-8.43c-0.77,0-1.4-0.63-1.4-1.4v-2.55c0-0.77,0.63-1.4,1.4-1.4h8.43c0.77,0,1.4,0.63,1.4,1.4
		v2.55C281.71,285.02,281.09,285.65,280.31,285.65z"/>
	<path class="st13" d="M153.06,224.7h-8.43c-0.77,0-1.4-0.63-1.4-1.4v-2.55c0-0.77,0.63-1.4,1.4-1.4h8.43c0.77,0,1.4,0.63,1.4,1.4
		v2.55C154.46,224.07,153.83,224.7,153.06,224.7z"/>
	<path class="st13" d="M141.3,224.7h-8.43c-0.77,0-1.4-0.63-1.4-1.4v-2.55c0-0.77,0.63-1.4,1.4-1.4h8.43c0.77,0,1.4,0.63,1.4,1.4
		v2.55C142.7,224.07,142.07,224.7,141.3,224.7z"/>
	<path class="st13" d="M26.34,285.65h-8.43c-0.77,0-1.4-0.63-1.4-1.4v-2.55c0-0.77,0.63-1.4,1.4-1.4h8.43c0.77,0,1.4,0.63,1.4,1.4
		v2.55C27.74,285.02,27.11,285.65,26.34,285.65z"/>
	<path class="st13" d="M84.09,243.94h-8.43c-0.77,0-1.4-0.63-1.4-1.4V240c0-0.77,0.63-1.4,1.4-1.4h8.43c0.77,0,1.4,0.63,1.4,1.4
		v2.55C85.49,243.32,84.86,243.94,84.09,243.94z"/>
	<path class="st13" d="M78.2,238.06h-8.43c-0.77,0-1.4-0.63-1.4-1.4v-2.55c0-0.77,0.63-1.4,1.4-1.4h8.43c0.77,0,1.4,0.63,1.4,1.4
		v2.55C79.6,237.44,78.98,238.06,78.2,238.06z"/>
	<path class="st13" d="M127.39,173.37h-8.43c-0.77,0-1.4-0.63-1.4-1.4v-2.55c0-0.77,0.63-1.4,1.4-1.4h8.43c0.77,0,1.4,0.63,1.4,1.4
		v2.55C128.79,172.74,128.17,173.37,127.39,173.37z"/>
	<path class="st13" d="M115.63,173.37h-8.43c-0.77,0-1.4-0.63-1.4-1.4v-2.55c0-0.77,0.63-1.4,1.4-1.4h8.43c0.77,0,1.4,0.63,1.4,1.4
		v2.55C117.03,172.74,116.41,173.37,115.63,173.37z"/>
	<path class="st13" d="M121.51,167.48h-8.43c-0.77,0-1.4-0.63-1.4-1.4v-2.55c0-0.77,0.63-1.4,1.4-1.4h8.43c0.77,0,1.4,0.63,1.4,1.4
		v2.55C122.91,166.86,122.29,167.48,121.51,167.48z"/>
	<path class="st13" d="M262.13,200.63h-8.43c-0.77,0-1.4-0.63-1.4-1.4v-2.55c0-0.77,0.63-1.4,1.4-1.4h8.43c0.77,0,1.4,0.63,1.4,1.4
		v2.55C263.53,200.01,262.91,200.63,262.13,200.63z"/>
	<path class="st13" d="M250.37,200.63h-8.43c-0.77,0-1.4-0.63-1.4-1.4v-2.55c0-0.77,0.63-1.4,1.4-1.4h8.43c0.77,0,1.4,0.63,1.4,1.4
		v2.55C251.77,200.01,251.14,200.63,250.37,200.63z"/>
	<path class="st13" d="M255.72,246.62h-8.43c-0.77,0-1.4-0.63-1.4-1.4v-2.55c0-0.77,0.63-1.4,1.4-1.4h8.43c0.77,0,1.4,0.63,1.4,1.4
		v2.55C257.12,245.99,256.49,246.62,255.72,246.62z"/>
	<path class="st13" d="M260.53,252.5h-8.43c-0.77,0-1.4-0.63-1.4-1.4v-2.55c0-0.77,0.63-1.4,1.4-1.4h8.43c0.77,0,1.4,0.63,1.4,1.4
		v2.55C261.93,251.87,261.3,252.5,260.53,252.5z"/>
	<path class="st13" d="M46.48,246.04h-8.43c-0.77,0-1.4-0.63-1.4-1.4v-2.55c0-0.77,0.63-1.4,1.4-1.4h8.43c0.77,0,1.4,0.63,1.4,1.4
		v2.55C47.88,245.41,47.25,246.04,46.48,246.04z"/>
	<path class="st13" d="M52.36,239.62h-8.43c-0.77,0-1.4-0.63-1.4-1.4v-2.55c0-0.77,0.63-1.4,1.4-1.4h8.43c0.77,0,1.4,0.63,1.4,1.4
		v2.55C53.76,238.99,53.13,239.62,52.36,239.62z"/>
	<path class="st13" d="M20.46,194.22h-8.43c-0.77,0-1.4-0.63-1.4-1.4v-2.55c0-0.77,0.63-1.4,1.4-1.4h8.43c0.77,0,1.4,0.63,1.4,1.4
		v2.55C21.86,193.59,21.23,194.22,20.46,194.22z"/>
	<path class="st13" d="M126.85,79.26h-2.8c-0.7,0-1.27-0.57-1.27-1.27l0,0c0-0.7,0.57-1.27,1.27-1.27h2.8c0.7,0,1.27,0.57,1.27,1.27
		l0,0C128.12,78.69,127.55,79.26,126.85,79.26z"/>
	<path class="st13" d="M121.25,79.26h-2.8c-0.7,0-1.27-0.57-1.27-1.27l0,0c0-0.7,0.57-1.27,1.27-1.27h2.8c0.7,0,1.27,0.57,1.27,1.27
		l0,0C122.52,78.69,121.95,79.26,121.25,79.26z"/>
	<path class="st13" d="M124.05,76.46h-2.8c-0.7,0-1.27-0.57-1.27-1.27v0c0-0.7,0.57-1.27,1.27-1.27h2.8c0.7,0,1.27,0.57,1.27,1.27v0
		C125.32,75.89,124.75,76.46,124.05,76.46z"/>
	<path class="st13" d="M94.77,144.07h-2.8c-0.7,0-1.27-0.57-1.27-1.27l0,0c0-0.7,0.57-1.27,1.27-1.27h2.8c0.7,0,1.27,0.57,1.27,1.27
		l0,0C96.04,143.5,95.47,144.07,94.77,144.07z"/>
	<path class="st13" d="M89.17,144.07h-2.8c-0.7,0-1.27-0.57-1.27-1.27l0,0c0-0.7,0.57-1.27,1.27-1.27h2.8c0.7,0,1.27,0.57,1.27,1.27
		l0,0C90.44,143.5,89.87,144.07,89.17,144.07z"/>
	<path class="st13" d="M74.45,141.54h-2.8c-0.7,0-1.27-0.57-1.27-1.27v0c0-0.7,0.57-1.27,1.27-1.27h2.8c0.7,0,1.27,0.57,1.27,1.27v0
		C75.72,140.97,75.15,141.54,74.45,141.54z"/>
	<path class="st13" d="M68.85,141.54h-2.8c-0.7,0-1.27-0.57-1.27-1.27v0c0-0.7,0.57-1.27,1.27-1.27h2.8c0.7,0,1.27,0.57,1.27,1.27v0
		C70.12,140.97,69.55,141.54,68.85,141.54z"/>
	<path class="st13" d="M71.65,138.74h-2.8c-0.7,0-1.27-0.57-1.27-1.27l0,0c0-0.7,0.57-1.27,1.27-1.27h2.8c0.7,0,1.27,0.57,1.27,1.27
		l0,0C72.92,138.17,72.35,138.74,71.65,138.74z"/>
	<path class="st13" d="M210.26,138h-2.8c-0.7,0-1.27-0.57-1.27-1.27l0,0c0-0.7,0.57-1.27,1.27-1.27h2.8c0.7,0,1.27,0.57,1.27,1.27
		l0,0C211.53,137.43,210.96,138,210.26,138z"/>
	<path class="st13" d="M200.38,146.55h-2.8c-0.7,0-1.27-0.57-1.27-1.27l0,0c0-0.7,0.57-1.27,1.27-1.27h2.8
		c0.7,0,1.27,0.57,1.27,1.27l0,0C201.65,145.98,201.08,146.55,200.38,146.55z"/>
	<path class="st13" d="M203.18,143.75h-2.8c-0.7,0-1.27-0.57-1.27-1.27l0,0c0-0.7,0.57-1.27,1.27-1.27h2.8
		c0.7,0,1.27,0.57,1.27,1.27l0,0C204.45,143.18,203.88,143.75,203.18,143.75z"/>
	<path class="st13" d="M224.66,145.79h-2.8c-0.7,0-1.27-0.57-1.27-1.27l0,0c0-0.7,0.57-1.27,1.27-1.27h2.8
		c0.7,0,1.27,0.57,1.27,1.27l0,0C225.94,145.22,225.37,145.79,224.66,145.79z"/>
	<path class="st13" d="M230.14,145.79h-2.8c-0.7,0-1.27-0.57-1.27-1.27l0,0c0-0.7,0.57-1.27,1.27-1.27h2.8
		c0.7,0,1.27,0.57,1.27,1.27l0,0C231.41,145.22,230.84,145.79,230.14,145.79z"/>
</g>
</svg>
