<svg id="Layer_1" data-name="Layer 1" xmlns="http://www.w3.org/2000/svg" viewBox="0 0 360.31676 383.49234"><title>redsword</title><rect x="10.76831" y="310.96663" width="79.91828" height="36.75963" transform="translate(-223.75122 140.39191) rotate(-46.69984)" fill="#97464b" stroke="#97464b" stroke-miterlimit="10" stroke-width="1.23274"/><polygon points="62.886 290.18 56.207 297.267 56.781 297.437 83.515 305.338 69.508 292.138 63.459 290.349 62.886 290.18" fill="#72151c" stroke="#72151c" stroke-miterlimit="10" stroke-width="1.23274"/><polygon points="16.323 338.914 56.072 350.616 62.75 343.53 23.001 331.828 16.323 338.914" fill="#72151c" stroke="#72151c" stroke-miterlimit="10" stroke-width="1.23274"/><polygon points="29.576 324.992 69.183 336.562 75.861 329.475 36.253 317.906 29.576 324.992" fill="#72151c" stroke="#72151c" stroke-miterlimit="10" stroke-width="1.23274"/><polygon points="42.758 311.004 82.365 322.573 89.043 315.487 49.435 303.918 42.758 311.004" fill="#72151c" stroke="#72151c" stroke-miterlimit="10" stroke-width="1.23274"/><polygon points="10.939 344.769 9.946 345.822 21.952 357.136 43.112 363.45 43.682 363.622 50.361 356.535 49.791 356.363 10.939 344.769" fill="#72151c" stroke="#72151c" stroke-miterlimit="10" stroke-width="1.23274"/><rect x="59.21794" y="293.79747" width="43.41794" height="7.65657" rx="3.82828" transform="translate(-64.29465 569.73042) rotate(-136.69984)" fill="#72151c" stroke="#72151c" stroke-miterlimit="10" stroke-width="1.23274"/><path d="M70.49343,282.5334l13.013,12.26294-5.251,5.57223-13.013-12.26294a3.82828,3.82828,0,0,1,5.251-5.57223Z" fill="#8f3538" stroke="#8f3538" stroke-miterlimit="10" stroke-width="1.23274"/><path d="M44.14835,200.04931l-17.1,18.146L28.1649,220.074l6.28735,10.59077.1395.23331,1.61343,2.7243,6.91369,11.64222a226.84217,226.84217,0,0,0,28.95975,38.69457c.822.88837,1.656,1.77019,2.49293,2.64271q4.17159,4.34442,8.57075,8.46005,4.20126,3.9411,8.60878,7.66333c.14874.12818.29749.25636.44919.38137q1.52285,1.28233,3.06326,2.53328A227.15024,227.15024,0,0,0,135.394,331.71769l11.54682,5.874,2.29182,1.16543,11.20244,5.69919a.006.006,0,0,0,.00634.006l.00934.00281.39141.20115.09708.04956.216.10766.02817.0146.09389.04654.46031.23612,17.1-18.146Z" fill="#8f3538" stroke="#8f3538" stroke-miterlimit="10" stroke-width="1.23274"/><path d="M49.0482,204.31034l-14.77551,15.6793,1.08877,1.74021,6.13148,9.80965.136.21614,1.5737,2.5232,6.74215,10.78363a232.72439,232.72439,0,0,0,27.83349,36.083c.78149.83477,1.57372,1.66413,2.36812,2.4852q3.95959,4.08846,8.11632,7.97971,3.97017,3.72577,8.11857,7.26244c.1401.12167.28021.24333.42286.36226q1.43316,1.21858,2.881,2.40956A232.90621,232.90621,0,0,0,137.14,326.79685l10.711,5.767,2.1259,1.14424,10.39157,5.59536a.006.006,0,0,0,.006.00564l.00859.00291.36316.19733.09006.04864.20025.10588.02614.01431.08705.04579.42707.23166,14.7755-15.6793Z" fill="#97464b" stroke="#97464b" stroke-miterlimit="10" stroke-width="1.23274"/><path d="M16.61371,202.103l.7662,25.81827a3.48863,3.48863,0,0,0,3.588,3.38113l13.62389-.40431,1.61343,2.7243,11.22077-.333a10.96035,10.96035,0,0,0,10.63367-11.28412l-.0042-.14171,1.72-7.088-2.43-2.29.34089-1.39775,1.99989-8.2557.7007-2.8855,1.74173-7.18726a2.74891,2.74891,0,0,0,.061-1.06259l-.00057-.01848a8.3642,8.3642,0,0,0-.68586-2.32939,8.49131,8.49131,0,0,0-1.51943-2.2584c-.04458-.048-.08918-.096-.13993-.14386-.07334-.08107-.15583-.1588-.23831-.23653l-.23317.24743c-.08249-.07773-.165-.15546-.24727-.227-.05375-.04465-.10433-.08632-.15488-.128a8.49245,8.49245,0,0,0-2.34453-1.38282,8.36384,8.36384,0,0,0-2.366-.54652.02313.02313,0,0,1-.0155-.00261,2.82382,2.82382,0,0,0-1.06009.127l-7.07132,2.16488-2.83887.87057-8.12258,2.486-2.14526.6557-.3849.12245-7.34642,2.247-.422.01561A8.50311,8.50311,0,0,0,16.61371,202.103Z" fill="#945357" stroke="#955256" stroke-miterlimit="10" stroke-width="1.23274"/><path d="M149.60006,318.9245a10.87594,10.87594,0,0,0-2.98049,7.84076l.32129,10.82641,2.29182,1.16543.435,14.65912a3.4781,3.4781,0,0,0,3.588,3.38113l25.81825-.76621a8.43494,8.43494,0,0,0,5.928-2.66135c.03886-.04124.0807-.08564.11639-.12987a8.45968,8.45968,0,0,0,2.42807-6.19311l-.00944-.42218,1.80746-7.46673.09621-.39449.52735-2.18036,2.00306-8.2527.70072-2.88552,1.74173-7.18726a2.89336,2.89336,0,0,0,.064-1.06574l-.00356-.01531a8.44023,8.44023,0,0,0-.68584-2.32941,8.62111,8.62111,0,0,0-1.51645-2.26156c-.04458-.048-.09218-.09286-.13993-.14386-.07632-.07791-.15581-.15881-.2383-.23654l-.23319.24745-.00317-.003c-.07931-.07474-.16479-.14929-.25025-.22383-.04759-.04485-.09816-.08654-.14872-.1282a8.49809,8.49809,0,0,0-2.34753-1.37965,8.34864,8.34864,0,0,0-2.363-.5497c-.00932-.00279-.01231.00039-.01848.00057a2.80421,2.80421,0,0,0-1.0571.12388l-7.07432,2.168-2.839.86441-8.12237,2.49212-.33.1023-2.73775-2.57994-6.97348,2.13731-.14172.00421A10.886,10.886,0,0,0,149.60006,318.9245Z" fill="#945357" stroke="#955256" stroke-miterlimit="10" stroke-width="1.23274"/><path d="M82.28382,258.61279l3.94123,4.11852,2.6752,2.82431,1.90211,2.00482,3.08588,3.272,1.47632,1.57321,3.92192,4.22164-.08073.08567-4.44174-3.67-1.658-1.38042-2.78579-2.332,8.632,8.13443L357.87788,2.70131a.16184.16184,0,0,0-.03617-.04421l-.07931-.07474A5.66565,5.66565,0,0,0,354.31252.99962a10.83508,10.83508,0,0,0-3.43066.7104,19.53124,19.53124,0,0,0-2.407,1.09873l-2.49549,1.33882-4.986,2.67235L321.05449,17.50385l-4.9841,2.664c-1.6559.88639-3.34236,1.70357-4.97057,2.53521-1.6112.80718-3.21443,1.73308-4.81121,2.71567q-2.39235,1.46136-4.7391,3.14761a89.70626,89.70626,0,0,0-9.05541,7.442c-1.4432,1.35985-2.84194,2.76152-4.21781,4.21519L98.24678,241.8768c-2.82236,2.98227-5.61932,5.98848-8.42579,8.98567q-2.12155,2.23224-4.28745,4.42258Z" fill="#b2b2b2" stroke="#b2b2b2" stroke-miterlimit="10" stroke-width="1.2838"/><path d="M357.6368,2.47412,98.71116,277.23778l19.33558,18.221L325.08328,75.75819a88.79734,88.79734,0,0,0,16.82613-25.06294l16.52988-38.05157c1.95556-4.49677,1.46561-8.0828-.59758-9.98658l-.07931-.07474A1.247,1.247,0,0,0,357.6368,2.47412Z" fill="#9c9b9b" stroke="#9c9b9b" stroke-miterlimit="10" stroke-width="1.2838"/><polygon points="90.092 269.573 98.483 277.48 98.776 277.169 94.439 273.388 92.818 271.968 90.092 269.573" fill="#fff" stroke="#fff" stroke-miterlimit="10" stroke-width="1.2664"/><polygon points="215.15 114.645 198.905 131.884 202.631 131.108 218.779 127.732 231.181 125.142 237.15 123.892 244.704 122.315 245.273 122.194 252.274 120.733 258.244 119.483 271.206 116.774 290.166 112.811 306.411 95.573 287.451 99.535 274.489 102.244 268.524 103.489 261.518 104.955 260.954 105.071 253.395 106.653 247.431 107.898 235.029 110.488 218.881 113.864 215.15 114.645" fill="#b2b2b2" stroke="#b2b2b2" stroke-miterlimit="10" stroke-width="1.11194"/><path d="M105.9209,230.52353c-.03887.04124-.07474.0793-.11043.12354-.21208.23141-.42715.466-.639.70353-.44787.49435-.8894.99466-1.33094,1.495l-2.42291,2.73-.62651.70933.10134.0895.56693.50431.817.722,4.12348,3.65818,2.13713.10926,3.00814.15744,9.49683.49217,4.57076.23439,5.78459.30013.4354.021.73511.03986,4.62639.2389,4.56776.23758,6.28181.32545.29034.01606,3.35394.17183.7196.03723.95429.04877,12.84462.66416,9.62918-10.21818-14.51848-.75019-8.21506-.42226-.48488-.0257-1.22615-.06538-3.60414-.186-.65165-.03308-.315-.01533-4.62639-.2389-.73511-.03986-.43539-.021-5.7846-.30012-4.57076-.23439-9.49683-.49217-3.2027-.16706-9.13536-.469-.02783-.00224-2.63751-.13758-.003.00317-.21622-.01208Z" fill="#70706f" stroke="#70706f" stroke-miterlimit="10" stroke-width="1.11194"/><path d="M205.90973,145.48209c-.7157,2.39928.54418,3.96063,2.81059,3.48781l.00823-.00236,5.96452-1.24463,7.55875-1.58255.564-.11553,7.00606-1.46639,5.96452-1.24462,12.96236-2.70865,18.95976-3.96276,9.56328-10.14824-18.95974,3.96273-12.96236,2.70864-5.96452,1.24463-7.00606,1.46639-.56407.11556-7.55873,1.58252-5.96452,1.24462-6.9814,1.45927A8.05722,8.05722,0,0,0,205.90973,145.48209Z" fill="#ececec" stroke="#ececec" stroke-miterlimit="10" stroke-width="0.65462"/><path d="M135.63765,199.69121l-6.66127,7.06873,3.08014-.09058,13.32908-.38382,10.2426-.29921,4.92471-.14122,6.23666-.17959.46958-.01528,5.78044-.1658,4.92821-.14493,2.36415-.06807a4.16174,4.16174,0,0,0,3.84174-3.54922,3.02759,3.02759,0,0,0-.60269-2.32864,2.92586,2.92586,0,0,0-.2489-.26975,2.88169,2.88169,0,0,0-2.08611-.75453l-1.53162.04268-5.784.16956-.466.01153-6.24019.18334-4.9247.14119-10.24259.29922-13.32909.38381Z" fill="#ececec" stroke="#ececec" stroke-miterlimit="10" stroke-width="0.65462"/><path d="M289.09361,53.11678,88.90025,265.55562l1.90211,2.00482,3.08588,3.272,1.47632,1.57321,3.92192,4.22164L317.66274,44.89332C311.58447,39.16542,298.76288,42.85606,289.09361,53.11678Z" fill="#fff" stroke="#fff" stroke-miterlimit="10" stroke-width="1.2664"/><path d="M317.90425,45.12109,98.95085,277.46749l11.03069,10.39485L311.39436,74.12944C321.063,63.8694,323.9865,50.85274,317.90425,45.12109Z" fill="#70706f" stroke="#70706f" stroke-miterlimit="10" stroke-width="1.2664"/><path d="M99.28648,276.62727l-.08073.08567-4.44174-3.67-1.658-1.38042-.14637.15532L104.469,282.66373,305.87861,68.93424c4.92548-5.22676,6.49667-11.79445,3.62262-14.89717a1.64839,1.64839,0,0,0-.22593-.24327c-1.59253-1.50074-4.05915-1.76249-6.74989-.99188a18.87387,18.87387,0,0,0-8.15614,5.2864l-200.481,212.7441,1.47632,1.57321Z" fill="#585857" stroke="#585857" stroke-miterlimit="10" stroke-width="1.2664"/><path d="M105.96576,275.989,303.34108,66.54058c2.75173-2.92005,3.64093-6.57329,2.02416-8.31706l-.08433-.09083-.02287-.03191-.022-.02073a3.82029,3.82029,0,0,0-3.78022-.55469,10.55442,10.55442,0,0,0-4.54886,2.952L99.53165,269.92577Z" fill="#343434" stroke="#343434" stroke-miterlimit="10" stroke-width="1.2664"/><path d="M88.19357,249.32885c-.20693.21959-.40878.43378-.61253.65635-1.19158,1.28352-2.37549,2.58434-3.5512,3.88282l-4.14468,4.55711-1.07293,1.183.68061.58072,5.03513,4.27976.03171.02989,2.593,2.18061.79408.65734,1.71006,1.43956.55691.46414.10653.09034.41358.34925,2.37221,1.9827,1.658,1.38042,4.44174,3.67.08073-.08567-3.92192-4.22164-1.47632-1.57321L91.74933,268.564l-.29573-.30905-.65124-.69454-.03172-.02989-.76987-.81652-1.10052-1.15841-.1739-.18412-.80161-.84637-.6055-.64138-1.09419-1.15244-3.94123-4.11852,3.24972-3.32774q2.15959-2.19632,4.28745-4.42258c.52166-.55993,1.04148-1.11154,1.56313-1.67147.69833-.74737,1.40166-1.50008,2.1-2.24747q2.375-2.53937,4.76269-5.06673L288.27629,40.22351c1.37587-1.45367,2.77461-2.85534,4.21781-4.21519a89.70626,89.70626,0,0,1,9.05541-7.442q2.34521-1.68777,4.7391-3.14761c1.59678-.98259,3.2-1.90849,4.81121-2.71567,1.62821-.83164,3.31467-1.64882,4.97057-2.53521l4.9841-2.664L340.99338,6.81992l4.986-2.67235,2.49549-1.33882a19.53124,19.53124,0,0,1,2.407-1.09873,10.83508,10.83508,0,0,1,3.43066-.7104,6.19743,6.19743,0,0,1,4.51142,1.51133C357.28028.62151,354.39683-.04323,351.01578.97681a16.62238,16.62238,0,0,0-2.55724.99756l-2.49782,1.19512L340.9733,5.55731,321.014,15.09977l-4.98745,2.38786c-1.67317.80945-3.3083,1.65475-5.0066,2.54167a84.84936,84.84936,0,0,0-10.18185,6.27925,95.23535,95.23535,0,0,0-9.65828,7.93549c-1.53531,1.44491-3.0382,2.95074-4.48974,4.48471L96.66059,240.382C93.85411,243.37928,91.01589,246.34661,88.19357,249.32885Z" fill="none" stroke="#f5f5f5" stroke-miterlimit="10"/><path d="M75.9802,241.48636a17.49731,17.49731,0,0,0-4.79126,12.597l.88968,29.87577c.822.88837,1.656,1.77019,2.49293,2.64271l.33281,11.21462a5.79852,5.79852,0,0,0,5.97038,5.62623l11.32553-.3361q1.52285,1.28233,3.06326,2.53328l29.70637-.88158a17.64458,17.64458,0,0,0,16.48768-13.00893l-3.56891-3.3632c.02563-.38313.02962-.7687.0179-1.163l-.02085-.70246,3.01119-12.41779.15948-.6523.78569-3.24266,5.55449-5.89425,3.7611-15.51445,1.25-5.159.07433-.30131.18963-.77964.69771-2.88233a8.10988,8.10988,0,0,0,.17389-3.07646,17.62557,17.62557,0,0,0-.58764-2.6561c-.10246-.33615-.21429-.67513-.33825-1.00756-.11744-.3203-.25017-.63705-.3891-.95364a17.66944,17.66944,0,0,0-1.03-1.97689c-.07159-.12739-.14622-.25159-.22681-.36947-.17477-.2785-.35873-.55367-.55162-.8193a17.25776,17.25776,0,0,0-2.23771-2.56394c-.1745-.16444-.34879-.32269-.5259-.47163l-.0095-.009c-.0728-.06261-.1551-.13417-.24056-.2087-.0252-.01776-.05058-.04168-.07578-.05943a17.25738,17.25738,0,0,0-3.71181-2.35986c-.36923-.18022-.747-.33863-1.13086-.49066a16.49451,16.49451,0,0,0-2.48327-.75888,16.74549,16.74549,0,0,0-2.0763-.34542l-.01867-.00564-.0433-.00487-.174-.04417-.33275.00986a8.21616,8.21616,0,0,0-2.8787.35988l-6.19731,1.89844-5.56774,1.70706-4.7184,1.44131-7.94217,2.43435-3.88712,1.18846-.003.00317-.31785.09577-.03661.01343c-.21208.23141-.42715.466-.639.70353l-4.92073,5.22172-12.21737,3.74224-.70244.02086c-.13558.004-.27412.01123-.4095.0214l-3.72118-3.50669A17.56289,17.56289,0,0,0,75.9802,241.48636Z" fill="#945357" stroke="#955256" stroke-miterlimit="10" stroke-width="1.23274"/><polygon points="98.824 277.118 98.776 277.169 99.026 277.387 99.447 277.754 99.056 277.355 98.824 277.118" fill="#f5f5f5" stroke="#f5f5f5" stroke-miterlimit="10"/><path d="M73.63,254.8744l1.27437,42.9421a5.79852,5.79852,0,0,0,5.97038,5.62623l42.9421-1.27437a14.03351,14.03351,0,0,0,9.85957-4.43085c.06576-.06979.13154-.13959.19094-.21536l.03887-.04124c.13136-.14575.25654-.29132.38157-.443l.003-.00316a.04237.04237,0,0,0,.02374-.03155l.003-.00318.30327-.379c.10111-.12633.196-.25248.2876-.38782.09178-.12916.18335-.26447.27194-.39661s.174-.26728.25942-.40241a.67762.67762,0,0,0,.07048-.11926,4.024,4.024,0,0,0,.20859-.34847.72426.72426,0,0,0,.04375-.08456c.088-.15064.16992-.30108.24544-.45749q.04374-.08457.07853-.15959c.0815-.1628.16-.3224.22923-.48479.06937-.15624.13575-.30931.19278-.46518.06637-.15307.12363-.30277.17451-.45849.043-.10919.07986-.21822.11671-.32724.03142-.0842.05669-.16819.08193-.25221.04492-.14934.08982-.2987.13156-.451a2.28462,2.28462,0,0,0,.07451-.29515,3.0501,3.0501,0,0,0,.08236-.34165,1.76429,1.76429,0,0,0,.06217-.29478c.03014-.12733.06011-.26082.07775-.39394a2.125,2.125,0,0,0,.039-.24475c.02154-.1055.03971-.22013.05175-.33458a.18991.18991,0,0,0,.00432-.0618q.02306-.158.03662-.32489c.03735-.30021.059-.60922.06837-.91786.00663-.19139.0133-.38277.01062-.577.00213-.13574.0011-.27446-.00293-.41l-.02082-.70245,3.95353-16.30342,5.272-21.75125,1.32128-5.45719.89035-3.66513a4.70314,4.70314,0,0,0,.1077-1.7732,14.08917,14.08917,0,0,0-1.90644-5.3244,2.15923,2.15923,0,0,0-.12962-.212,13.90716,13.90716,0,0,0-2.25871-2.75142l-.00318-.003c-.13641-.12854-.27581-.25392-.415-.37316-.08546-.07453-.16776-.14609-.25305-.21448a14.14984,14.14984,0,0,0-3.90119-2.29873,13.9965,13.9965,0,0,0-3.934-.91011c-.00935-.00281-.01851.00054-.02785-.00227a4.74171,4.74171,0,0,0-1.76071.20953L122.69,229.699l-4.72138,1.44451-13.50693,4.1382-3.56927,1.0927-.64171.1979-12.21737,3.74224-.70244.02086c-.13558.004-.27412.01123-.4095.0214a.84394.84394,0,0,0-.12624.00683c-.12921.01-.26141.02319-.39679.03336a.566.566,0,0,0-.10458.00926.92476.92476,0,0,0-.13518.01636,7.32062,7.32062,0,0,0-.74621.10541c-.16582.02342-.33128.05916-.49374.09174a.597.597,0,0,0-.11036.02176c-.20541.04-.40449.086-.6002.14117-.20506.05234-.40992.11084-.61161.17233-.046.01062-.09171.02738-.13449.041-.15893.0479-.31467.09876-.46707.15881a.28857.28857,0,0,0-.08536.03336c-.17089.06057-.3386.12414-.50613.19387a2.648,2.648,0,0,0-.28316.1225c-.14621.05984-.28929.12268-.426.1915-.19164.089-.37692.18385-.56519.282a.87912.87912,0,0,0-.091.052c-.15784.08486-.30951.16954-.461.26039a.2159.2159,0,0,0-.05156.02927c-.13635.08114-.27568.16545-.4087.25575a.50917.50917,0,0,0-.07563.04849c-.10593.06791-.21183.13579-.3144.21286-.16327.10968-.32634.22555-.48307.34736-.08145.061-.1659.12519-.24733.1862l-.08127.06715c-.15656.128-.31312.256-.46331.39A14.10133,14.10133,0,0,0,73.63,254.8744Z" fill="#964349" stroke="#964349" stroke-miterlimit="10" stroke-width="1.23274"/><path d="M121.34217,253.70549l.00051.00051L93.33486,283.427l-.00054-.00047a20.41923,20.41923,0,1,1,28.00785-29.721Z" fill="#d1bc07" stroke="#d2bd06" stroke-miterlimit="10" stroke-width="1.41097"/><path d="M121.79086,254.12831l-.00054-.00047-28.00782,29.721.0005.00051a20.41924,20.41924,0,1,0,28.00786-29.721Z" fill="#d0ba1c" stroke="#d0ba1c" stroke-miterlimit="10" stroke-width="1.41097"/><ellipse cx="108.10046" cy="267.92246" rx="19.42814" ry="16.91445" transform="translate(-161.0232 162.84815) rotate(-46.69984)" fill="#efe318" stroke="#efe318" stroke-miterlimit="10" stroke-width="1.31855"/><path d="M117.23687,277.89406c7.73417-8.20725,9.46565-19.13721,3.86738-24.41278,7.49493,7.0629,7.301,19.4418-.43315,27.64905s-20.07978,9.1349-27.57471,2.072C98.69466,288.4779,109.50273,286.10129,117.23687,277.89406Z" fill="#d8c935" stroke="#d8c935" stroke-miterlimit="10" stroke-width="1.55299"/><path d="M121.10425,253.48128c-5.59825-5.27556-16.40632-2.899-24.14049,5.30826s-9.46562,19.13723-3.86737,24.41279c-7.49491-7.06289-7.301-19.44181.43316-27.649S113.60933,246.41839,121.10425,253.48128Z" fill="#d8c935" stroke="#d8c935" stroke-miterlimit="10" stroke-width="1.55299"/><circle cx="91.99549" cy="266.57717" r="2.83805" fill="#eee481" stroke="#eee47f" stroke-miterlimit="10" stroke-width="1.2303"/><path d="M144.747,229.68892,77.11247,301.46059a5.777,5.777,0,0,0,4.1445,1.5829l10.45865-.2806,32.36532-.86843a13.90636,13.90636,0,0,0,9.62392-4.19987l.02676-.0284a13.901,13.901,0,0,0,3.958-9.06873c.02448-.38191.02737-.76632.01456-1.15952l-.02277-.70041,2.968-12.372.15721-.64988.77442-3.2307.09208-.38371,3.28224-13.67793,1.14529-4.781.67978-2.83153L147.98,243.807l.97759-4.07551a4.72108,4.72108,0,0,0,.09944-1.76444c-.00336-.00912-.0006-.01841-.004-.02755a13.80021,13.80021,0,0,0-.47073-2.08734,14.14111,14.14111,0,0,0-.679-1.77736c-.15231-.33411-.3197-.65863-.49937-.98279-.124-.218-.25722-.43891-.39643-.65348a13.86429,13.86429,0,0,0-1.6341-2.11762c-.07338-.081-.14971-.15893-.22922-.23982C145.01688,229.94917,144.88345,229.81747,144.747,229.68892Z" fill="#8d3536" stroke="#8d3536" stroke-miterlimit="10" stroke-width="1.23274"/><path d="M121.47359,253.82933l-.00051-.00044-28.00782,29.721.00048.00048c7.7357,7.2898,20.27649,6.54606,28.01065-1.66118S129.2093,261.11913,121.47359,253.82933Z" fill="#d0ba1c" stroke="#d0ba1c" stroke-miterlimit="10" stroke-width="1.41097"/><path d="M118.04219,278.65295c7.49763-7.95624,9.35359-18.47082,4.36006-23.91274-.16125-.16778-.33032-.33058-.49836-.494l-27.99651,29.709c.17312.15806.34565.31717.5227.46819C100.15855,289.08543,110.54459,286.60916,118.04219,278.65295Z" fill="#a9984d" stroke="#d2bd06" stroke-miterlimit="10" stroke-width="1.41097"/><path d="M124.17117,256.85594c5.08563,7.22223,4.15636,17.76305-2.69477,25.03327s-17.31831,8.82292-24.82941,4.17452a20.41661,20.41661,0,0,0,27.52418-29.20779Z" fill="#a9984d" stroke="#d2bd06" stroke-miterlimit="10" stroke-width="1.41097"/><path d="M121.05665,255.04052,94.40823,283.319c5.62715,5.30278,16.15429,3.27118,23.513-4.5377S126.6838,260.3433,121.05665,255.04052Z" fill="#efe318" stroke="#efe318" stroke-miterlimit="10" stroke-width="1.31855"/><path d="M121.33251,253.70775,94.52317,282.157c6.32069,5.95634,17.44608,4.41632,24.84927-3.43971S127.65319,259.66409,121.33251,253.70775Z" fill="#e1cd34" stroke="#e0cd34" stroke-miterlimit="10" stroke-width="1.31855"/><path d="M148.89834,327.595l.33434,11.16214.435,14.65912a3.4781,3.4781,0,0,0,3.588,3.38113l25.81825-.76621a8.43494,8.43494,0,0,0,5.928-2.66135c.03886-.04124.0807-.08564.11639-.12987a8.43534,8.43534,0,0,0,2.1947-5.95183l-.01244-.419,2.37953-9.80262,3.16731-13.07924.79377-3.283.53594-2.2022a2.76762,2.76762,0,0,0,.064-1.06576,7.80756,7.80756,0,0,0-.28135-1.27137,8.21958,8.21958,0,0,0-.86516-1.92937.88212.88212,0,0,0-.07779-.1272,8.24448,8.24448,0,0,0-1.35661-1.65575l-.00317-.003c-.07931-.07474-.16479-.14929-.25025-.22383-.04759-.04485-.09816-.08654-.14872-.1282a8.49809,8.49809,0,0,0-2.34753-1.37965,8.34864,8.34864,0,0,0-2.363-.5497c-.00932-.00279-.01231.00039-.01848.00057a2.80421,2.80421,0,0,0-1.0571.12388l-7.07432,2.168-2.839.86441-8.12237,2.49212-.33.1023-1.81528.55342-.38507.11628-7.34624,2.25321-.42218.00945A8.5031,8.5031,0,0,0,148.89834,327.595Z" fill="#964349" stroke="#964349" stroke-miterlimit="10" stroke-width="1.23274"/><path d="M177.58729,326.89342l.00031.00031-16.84029,17.87038-.00033-.00029a12.27749,12.27749,0,0,1,16.84031-17.8704Z" fill="#d1bc07" stroke="#d2bd06" stroke-miterlimit="10" stroke-width="1.41097"/><path d="M177.85707,327.14765l-.00032-.00029-16.84029,17.87038.0003.00031a12.27749,12.27749,0,1,0,16.84031-17.8704Z" fill="#d0ba1c" stroke="#d0ba1c" stroke-miterlimit="10" stroke-width="1.41097"/><path d="M175.11889,341.4373c4.65033-4.93478,5.69142-11.50665,2.32534-14.67869,4.50649,4.24672,4.38989,11.68979-.26043,16.62457s-12.07339,5.49255-16.57987,1.24583C163.97,347.80106,170.46858,346.37207,175.11889,341.4373Z" fill="#d8c935" stroke="#d8c935" stroke-miterlimit="10" stroke-width="1.55299"/><path d="M177.44423,326.75861c-3.36606-3.172-9.86464-1.74308-14.515,3.1917s-5.6914,11.50666-2.32533,14.6787c-4.50648-4.24671-4.38987-11.68979.26044-16.62456S172.93776,322.5119,177.44423,326.75861Z" fill="#d8c935" stroke="#d8c935" stroke-miterlimit="10" stroke-width="1.55299"/><circle cx="159.94198" cy="334.63279" r="1.70644" fill="#eee481" stroke="#eee47f" stroke-miterlimit="10" stroke-width="1.2303"/><path d="M191.89335,312.20515l-40.89942,43.40117a3.48,3.48,0,0,0,2.49511.94975l25.82124-.76939a8.50436,8.50436,0,0,0,8.23608-8.73987l-.00944-.42218,1.80746-7.46673.09621-.39449.52735-2.18036,2.00306-8.2527.70072-2.88552,1.74173-7.18726a2.89336,2.89336,0,0,0,.064-1.06574l-.00356-.01531a8.44023,8.44023,0,0,0-.68584-2.32941,8.62111,8.62111,0,0,0-1.51645-2.26156c-.04458-.048-.09218-.09286-.13993-.14386C192.05533,312.36378,191.97584,312.28288,191.89335,312.20515Z" fill="#8d3536" stroke="#8d3536" stroke-miterlimit="10" stroke-width="1.23274"/><path d="M177.66631,326.96788l-.00031-.00027L160.82572,344.838l.00028.0003c4.65126,4.38314,12.19167,3.936,16.842-.99883S182.31756,331.351,177.66631,326.96788Z" fill="#d0ba1c" stroke="#d0ba1c" stroke-miterlimit="10" stroke-width="1.41097"/><path d="M175.60311,341.8936c4.5081-4.78386,5.624-11.106,2.62158-14.378-.097-.10089-.19861-.19877-.29966-.297l-16.83348,17.86316c.10409.095.20783.19071.31429.28151C164.8502,348.16635,171.095,346.67744,175.60311,341.8936Z" fill="#a9984d" stroke="#d2bd06" stroke-miterlimit="10" stroke-width="1.41097"/><path d="M179.28829,328.7877c3.05784,4.34251,2.4991,10.6804-1.62029,15.05177s-10.413,5.305-14.9292,2.51a12.27591,12.27591,0,0,0,16.54949-17.56179Z" fill="#a9984d" stroke="#d2bd06" stroke-miterlimit="10" stroke-width="1.41097"/><path d="M177.41562,327.69614l-16.02292,17.003c3.38344,3.18841,9.7131,1.96686,14.13771-2.72839S180.79906,330.88454,177.41562,327.69614Z" fill="#efe318" stroke="#efe318" stroke-miterlimit="10" stroke-width="1.31855"/><path d="M177.58148,326.89478l-16.11967,17.10569c3.80044,3.58137,10.48982,2.6554,14.94114-2.0682S181.38193,330.47615,177.58148,326.89478Z" fill="#e1cd34" stroke="#e0cd34" stroke-miterlimit="10" stroke-width="1.31855"/><path d="M16.61371,202.103l.7662,25.81827a3.48863,3.48863,0,0,0,3.588,3.38113l13.62389-.40431,12.19753-.35891a8.44081,8.44081,0,0,0,5.92778-2.6675c.03887-.04124.08072-.08566.11641-.12989a8.42069,8.42069,0,0,0,2.19489-5.94566l-.01262-.42517,2.18691-9.01982.18962-.77962,3.1703-13.08242.79392-3.27681.53281-2.2052a2.78765,2.78765,0,0,0,.06695-1.06893,8.18311,8.18311,0,0,0-.28434-1.2682,8.08385,8.08385,0,0,0-.86218-1.93252c-.02591-.04241-.04869-.08182-.07778-.12722a8.46152,8.46152,0,0,0-1.35959-1.65258c-.08249-.07773-.165-.15546-.24727-.227-.05375-.04465-.10433-.08632-.15488-.128a8.49245,8.49245,0,0,0-2.34453-1.38282,8.36384,8.36384,0,0,0-2.366-.54652.02313.02313,0,0,1-.0155-.00261,2.82382,2.82382,0,0,0-1.06009.127l-7.07132,2.16488-2.83887.87057-8.12258,2.486-2.14526.6557-.3849.12245-7.34642,2.247-.422.01561A8.50311,8.50311,0,0,0,16.61371,202.103Z" fill="#964349" stroke="#964349" stroke-miterlimit="10" stroke-width="1.23274"/><path d="M45.30154,201.39755l.0003.00031L28.46156,219.26824l-.00033-.00029a12.27749,12.27749,0,1,1,16.84031-17.8704Z" fill="#d1bc07" stroke="#d2bd06" stroke-miterlimit="10" stroke-width="1.41097"/><path d="M45.57132,201.65178l-.00032-.00029L28.73071,219.52187l.0003.00031a12.27749,12.27749,0,1,0,16.84031-17.8704Z" fill="#d0ba1c" stroke="#d0ba1c" stroke-miterlimit="10" stroke-width="1.41097"/><path d="M42.83314,215.94143c4.65033-4.93478,5.69142-11.50665,2.32534-14.67869,4.50649,4.24672,4.38989,11.68979-.26044,16.62457s-12.07338,5.49255-16.57987,1.24583C31.68425,222.30519,38.18283,220.8762,42.83314,215.94143Z" fill="#d8c935" stroke="#d8c935" stroke-miterlimit="10" stroke-width="1.55299"/><path d="M45.15848,201.26274c-3.36606-3.172-9.86464-1.74308-14.515,3.1917s-5.6914,11.50666-2.32534,14.6787c-4.50647-4.24671-4.38986-11.68979.26045-16.62456S40.652,197.016,45.15848,201.26274Z" fill="#d8c935" stroke="#d8c935" stroke-miterlimit="10" stroke-width="1.55299"/><circle cx="27.65623" cy="209.13692" r="1.70644" fill="#eee481" stroke="#eee47f" stroke-miterlimit="10" stroke-width="1.2303"/><path d="M59.60553,186.7102,18.70611,230.11137a3.45119,3.45119,0,0,0,2.49811.94656l25.81823-.7662a8.50976,8.50976,0,0,0,8.23908-8.74305l-.01242-.419,1.81044-7.46988.09641-.38834.18945-.78578.34089-1.39775,1.99989-8.2557.7007-2.8855,1.74173-7.18726a2.74891,2.74891,0,0,0,.061-1.06259l-.00057-.01848a8.3642,8.3642,0,0,0-.68586-2.32939,8.49131,8.49131,0,0,0-1.51943-2.2584c-.04458-.048-.08918-.096-.13993-.14386C59.7705,186.86566,59.688,186.78793,59.60553,186.7102Z" fill="#8d3536" stroke="#8d3536" stroke-miterlimit="10" stroke-width="1.23274"/><path d="M45.38056,201.472l-.00031-.00027L28.54,219.34213l.00028.00029c4.65125,4.38314,12.19166,3.93595,16.842-.99883S50.03181,205.85516,45.38056,201.472Z" fill="#d0ba1c" stroke="#d0ba1c" stroke-miterlimit="10" stroke-width="1.41097"/><path d="M43.31735,216.39773c4.50811-4.78386,5.62405-11.106,2.62158-14.378-.09695-.10089-.19861-.19877-.29965-.297L28.8058,219.58582c.10409.095.20783.19071.31428.28151C32.56444,222.67048,38.80927,221.18157,43.31735,216.39773Z" fill="#a9984d" stroke="#d2bd06" stroke-miterlimit="10" stroke-width="1.41097"/><path d="M47.00253,203.29183c3.05784,4.34251,2.4991,10.6804-1.62029,15.05177s-10.413,5.305-14.92919,2.51a12.27591,12.27591,0,0,0,16.54948-17.56179Z" fill="#a9984d" stroke="#d2bd06" stroke-miterlimit="10" stroke-width="1.41097"/><path d="M45.12987,202.20027,29.107,219.20328c3.38343,3.18841,9.7131,1.96686,14.13771-2.72839S48.5133,205.38867,45.12987,202.20027Z" fill="#efe318" stroke="#efe318" stroke-miterlimit="10" stroke-width="1.31855"/><path d="M45.29573,201.39891,29.17606,218.5046c3.80044,3.58137,10.48981,2.6554,14.94114-2.0682S49.09617,204.98028,45.29573,201.39891Z" fill="#e1cd34" stroke="#e0cd34" stroke-miterlimit="10" stroke-width="1.31855"/><path d="M18.20918,353.60883l13.01305,12.26294-5.251,5.57223-13.013-12.26294a3.82828,3.82828,0,0,1,5.251-5.57223Z" fill="#97464b" stroke="#97464b" stroke-miterlimit="10" stroke-width="1.23274"/><rect x="-0.99529" y="357.41385" width="43.41794" height="7.65657" rx="3.82828" transform="translate(-211.95872 638.34949) rotate(-136.69984)" fill="#72151c" stroke="#72151c" stroke-miterlimit="10" stroke-width="1.23274"/><path d="M10.2802,346.14978l13.013,12.26294-5.251,5.57223L5.02917,351.722a3.82828,3.82828,0,0,1,5.251-5.57223Z" fill="#8f3538" stroke="#8f3538" stroke-miterlimit="10" stroke-width="1.23274"/><path d="M35.38206,369.21155l-.36754-19.75837a2.597,2.597,0,0,0-2.71577-2.55923l-19.74539.8048a6.60108,6.60108,0,0,0-4.5546,2.08948c-.03059.03246-.06118.06492-.08887.10009l-.01807.01918c-.06112.06776-.11941.13539-.17765.20586l-.00138.00147a.02006.02006,0,0,0-.01107.01464l-.0014.00148-.14133.176c-.04711.05866-.09139.11721-.13416.18-.04285.05992-.08563.12266-.127.18393s-.08134.12391-.12129.18654a.321.321,0,0,0-.033.05525c-.03587.05254-.06748.10632-.09765.16145a.34427.34427,0,0,0-.02054.03914c-.04123.06978-.07964.13944-.11514.21181q-.02054.03915-.03691.07386c-.03829.07534-.0752.1492-.10783.2243-.03268.07226-.064.143-.091.21508-.03129.07079-.05837.14-.08255.21192-.02033.05047-.03781.10085-.05531.15121-.01487.03891-.02691.0777-.03894.1165-.02141.069-.0428.13794-.06277.20826a1.06842,1.06842,0,0,0-.03574.13623,1.42522,1.42522,0,0,0-.0396.15767.8252.8252,0,0,0-.03008.136c-.0145.05876-.029.12035-.03774.18171a.9919.9919,0,0,0-.01916.11286c-.01044.04866-.01937.10151-.02548.15425a.088.088,0,0,0-.0023.02847q-.01141.07283-.01849.14972c-.01869.13837-.03022.28071-.03609.42281-.004.08812-.00806.17624-.00782.26561-.00166.06249-.00189.12633-.00073.18871l.006.32321-1.90015,7.524L1.7536,372.34561l-.63508,2.51848-.42789,1.69146a2.17632,2.17632,0,0,0-.05851.8167,6.26019,6.26019,0,0,0,.20518.97052,6.18092,6.18092,0,0,0,.64407,1.47044.9661.9661,0,0,0,.05851.09692A6.19557,6.19557,0,0,0,2.56414,381.165l.00145.00136c.06205.05847.12549.11547.18888.16964.0389.03387.07637.06639.11522.09744a6.33117,6.33117,0,0,0,3.58524,1.4371c.00428.00125.00851-.00035.01279.0009a2.19418,2.19418,0,0,0,.8104-.10538l5.42489-1.71781,2.17759-.68885,6.22967-1.97333,1.64622-.52107.296-.09435,5.6349-1.78452.323-.01318c.06234-.00254.12605-.00656.18833-.01193a.38772.38772,0,0,0,.05807-.00378c.05944-.00526.12028-.012.18256-.01738a.26067.26067,0,0,0,.04812-.00479.42862.42862,0,0,0,.06221-.00821,3.39364,3.39364,0,0,0,.34355-.05231c.07634-.01163.15258-.02892.22742-.04474a.27776.27776,0,0,0,.05084-.01057c.09462-.01947.18637-.04166.2766-.068.09453-.02514.189-.0531.282-.08243.02117-.00512.04229-.01306.062-.01955.0733-.02285.14515-.04705.21551-.07546a.13587.13587,0,0,0,.0394-.01579c.07886-.02875.15628-.05886.23364-.09181a1.247,1.247,0,0,0,.13078-.05782c.06751-.02829.1336-.05794.19679-.09031.08854-.04191.17419-.08653.26123-.13265a.41465.41465,0,0,0,.04208-.02441c.073-.03986.14313-.0796.21323-.12219a.10206.10206,0,0,0,.02385-.01373c.06308-.038.12756-.07756.18916-.11979a.24145.24145,0,0,0,.035-.02271c.049-.03179.09806-.06357.1456-.09957.07561-.05131.15116-.10547.22381-.16233l.11464-.087.0377-.03132c.07261-.05971.14523-.11942.21495-.18184A6.645,6.645,0,0,0,35.38206,369.21155Z" fill="#964349" stroke="#964349" stroke-miterlimit="10" stroke-width="1.23274"/><path d="M2.83377,380.88014l31.45391-33.37789a2.59876,2.59876,0,0,0-1.897-.7075l-4.80889.18231-14.88157.5642a6.53917,6.53917,0,0,0-4.44511,1.982l-.01244.0132a6.55375,6.55375,0,0,0-1.86543,4.19416c-.01319.17591-.01648.35285-.01259.53376l.00691.32226-1.42717,5.7095-.07556.29992L4.49642,362.087l-.04428.17707L2.8739,368.57623l-.55075,2.20636-.32686,1.30671-.57682,2.30921L.94939,376.2793a2.18422,2.18422,0,0,0-.05467.81262l.00169.01266a6.26949,6.26949,0,0,0,.20577.95834,6.37146,6.37146,0,0,0,.30307.81461c.06831.153.14361.30152.22455.44981.05586.09973.116.20071.1789.29876a6.17882,6.17882,0,0,0,.74038.96637c.03331.03692.068.07239.10414.10921C2.71106,380.76173,2.77172,380.82167,2.83377,380.88014Z" fill="#8d3536" stroke="#8d3536" stroke-miterlimit="10" stroke-width="1.23274"/><path d="M27.54441,354.44141l.00024.00024L14.04828,368.76358l-.00026-.00023a9.83959,9.83959,0,1,1,13.49639-14.32194Z" fill="#d1bc07" stroke="#d2bd06" stroke-miterlimit="10" stroke-width="1.41097"/><path d="M27.76062,354.64515l-.00026-.00022L14.264,368.96685l.00025.00025a9.8396,9.8396,0,1,0,13.49639-14.322Z" fill="#d0ba1c" stroke="#d0ba1c" stroke-miterlimit="10" stroke-width="1.41097"/><path d="M25.56615,366.09737c3.72693-3.9549,4.5613-9.22182,1.86361-11.764,3.61165,3.40347,3.5182,9.3686-.20873,13.3235s-9.676,4.40192-13.28767.99845C16.631,371.1975,21.83923,370.05226,25.56615,366.09737Z" fill="#d8c935" stroke="#d8c935" stroke-miterlimit="10" stroke-width="1.55299"/><path d="M27.42976,354.33336c-2.69768-2.54218-7.90586-1.397-11.63279,2.55794s-4.56129,9.22183-1.86361,11.764c-3.61164-3.40346-3.51818-9.3686.20874-13.32349S23.81812,350.9299,27.42976,354.33336Z" fill="#d8c935" stroke="#d8c935" stroke-miterlimit="10" stroke-width="1.55299"/><circle cx="13.40286" cy="360.644" r="1.3676" fill="#eee481" stroke="#eee47f" stroke-miterlimit="10" stroke-width="1.2303"/><path d="M27.60774,354.50108l-.00025-.00021L14.11111,368.8228l.00023.00023a9.56948,9.56948,0,0,0,13.49774-.80049A9.56949,9.56949,0,0,0,27.60774,354.50108Z" fill="#d0ba1c" stroke="#d0ba1c" stroke-miterlimit="10" stroke-width="1.41097"/><path d="M25.95422,366.46306c3.61294-3.83395,4.5073-8.9007,2.101-11.523-.07771-.08086-.15917-.1593-.24015-.23806L14.32416,369.0181c.08342.07617.16656.15284.25188.22561C17.33647,371.49025,22.34128,370.297,25.95422,366.46306Z" fill="#a9984d" stroke="#d2bd06" stroke-miterlimit="10" stroke-width="1.41097"/><path d="M28.90764,355.95954a9.64482,9.64482,0,0,1-1.29855,12.063,9.64485,9.64485,0,0,1-11.96477,2.01162,9.83833,9.83833,0,0,0,13.26332-14.07462Z" fill="#a9984d" stroke="#d2bd06" stroke-miterlimit="10" stroke-width="1.41097"/><path d="M27.40682,355.08473,14.56551,368.71152c2.7116,2.5553,7.78441,1.57631,11.33044-2.18662S30.11842,357.64,27.40682,355.08473Z" fill="#efe318" stroke="#efe318" stroke-miterlimit="10" stroke-width="1.31855"/><path d="M27.53975,354.44249,14.6209,368.15157c3.0458,2.87024,8.40689,2.12814,11.97434-1.65752S30.58556,357.31273,27.53975,354.44249Z" fill="#e1cd34" stroke="#e0cd34" stroke-miterlimit="10" stroke-width="1.31855"/></svg>