<?xml version="1.0" encoding="utf-8"?>
<!-- Generator: Adobe Illustrator 24.0.0, SVG Export Plug-In . SVG Version: 6.00 Build 0)  -->
<svg version="1.1" id="Layer_1" xmlns="http://www.w3.org/2000/svg" xmlns:xlink="http://www.w3.org/1999/xlink" x="0px" y="0px"
	 viewBox="0 0 431.44 475.62" style="enable-background:new 0 0 431.44 475.62;" xml:space="preserve">
<style type="text/css">
	.st0{fill:none;stroke:#333333;stroke-width:2;stroke-miterlimit:10;}
	.st1{fill:#735530;}
	.st2{opacity:0.1;fill:#0D0D0D;stroke:#000000;stroke-miterlimit:10;}
	.st3{fill:#C5D7D9;}
	.st4{fill:#8C8C8C;}
	.st5{fill:#6D6D6D;}
	.st6{fill:#9CA0A0;}
	.st7{fill:#C7C9C9;}
	.st8{opacity:0.1;fill:#735530;stroke:#000000;stroke-miterlimit:10;}
	.st9{opacity:0.1;fill:#0D0D0D;}
	.st10{fill:#735530;stroke:#735530;stroke-miterlimit:10;}
	.st11{fill:#735530;stroke:#704C25;stroke-width:10;stroke-miterlimit:10;}
	.st12{fill:#936B3F;}
	.st13{fill:#A5641E;}
	.st14{fill:#0D0D0D;}
	.st15{opacity:0.8;fill:#999999;}
	.st16{opacity:0.8;fill:#735530;}
</style>
<line class="st0" x1="214.09" y1="57.92" x2="214.09" y2="0"/>
<path class="st1" d="M264.95,116.73l-50.85-61.71l-0.05,0.06l-1.04,1.26l-61.96,75.18l-1.39,1.69h126.56v-2.81L264.95,116.73z"/>
<polygon class="st2" points="276.22,130.52 276.22,132.49 213.01,132.49 213.01,54.78 213.4,54.3 214.05,55.09 264.85,116.73 "/>
<polygon class="st3" points="100.7,149.92 114.07,157.64 114.07,142.2 "/>
<line class="st0" x1="114.33" y1="173.07" x2="114.33" y2="142.2"/>
<polygon class="st1" points="114.33,171.53 79.99,213.21 148.68,213.21 "/>
<rect x="78.57" y="213.42" class="st4" width="70.79" height="256.16"/>
<rect x="149.18" y="131.53" class="st5" width="126.58" height="338.05"/>
<rect x="275.38" y="213.42" class="st4" width="70.79" height="256.16"/>
<rect x="345.79" y="270.56" class="st6" width="67.09" height="199.02"/>
<rect x="80.95" y="368.13" class="st7" width="15.44" height="15.44"/>
<rect x="195.03" y="116.73" class="st5" width="13.59" height="15.44"/>
<rect x="172.33" y="116.73" class="st5" width="13.59" height="15.44"/>
<rect x="149.64" y="116.73" class="st5" width="13.59" height="15.44"/>
<rect x="346" y="255.4" class="st6" width="15.44" height="15.44"/>
<rect x="397.44" y="255.4" class="st6" width="15.44" height="15.44"/>
<rect x="371.95" y="255.4" class="st6" width="15.44" height="15.44"/>
<rect x="217.72" y="116.73" class="st5" width="13.59" height="15.44"/>
<rect x="262.63" y="116.73" class="st5" width="13.59" height="15.44"/>
<rect x="240.41" y="116.73" class="st5" width="13.59" height="15.44"/>
<rect x="13.82" y="270.56" class="st6" width="67.61" height="199.02"/>
<rect x="13.78" y="255.53" class="st6" width="15.44" height="15.44"/>
<rect x="66.31" y="255.53" class="st6" width="15.44" height="15.44"/>
<rect x="40.04" y="255.53" class="st6" width="15.44" height="15.44"/>
<polygon class="st8" points="148.31,212.82 113.75,212.82 113.75,171.4 113.96,171.14 "/>
<polygon class="st3" points="297.72,150.16 311.09,157.87 311.09,142.44 "/>
<line class="st0" x1="311.35" y1="173.31" x2="311.35" y2="142.44"/>
<polygon class="st1" points="311.35,171.77 277,213.44 345.7,213.44 "/>
<polygon class="st2" points="345.33,213.06 310.77,213.06 310.77,171.64 310.98,171.38 "/>
<polygon class="st3" points="188.52,14.48 213.6,28.96 213.6,0 "/>
<rect x="346.45" y="427.35" class="st9" width="67.92" height="42.23"/>
<rect x="13.58" y="427.35" class="st9" width="68.15" height="42.23"/>
<path class="st10" d="M181.7,192.27v13.81h-18.72v-13.81c0-7.63,4.19-13.81,9.36-13.81c0.04,0,0.08,0,0.13,0
	c2.53,0.05,4.82,1.58,6.49,4.04C180.65,185.01,181.7,188.46,181.7,192.27z"/>
<path class="st10" d="M260.42,192.27v13.81H241.7v-13.81c0-7.63,4.19-13.81,9.36-13.81c0.04,0,0.08,0,0.13,0
	c2.53,0.05,4.82,1.58,6.49,4.04C259.37,185.01,260.42,188.46,260.42,192.27z"/>
<path class="st10" d="M221.06,192.27v13.81h-18.72v-13.81c0-7.63,4.19-13.81,9.36-13.81c0.04,0,0.08,0,0.13,0
	c2.53,0.05,4.82,1.58,6.49,4.04C220.01,185.01,221.06,188.46,221.06,192.27z"/>
<path class="st10" d="M388.68,308.3v13.81h-18.72V308.3c0-7.63,4.19-13.81,9.36-13.81c0.04,0,0.08,0,0.13,0
	c2.53,0.05,4.82,1.58,6.49,4.04C387.63,301.04,388.68,304.49,388.68,308.3z"/>
<path class="st10" d="M320.14,248.1v13.81h-18.72V248.1c0-7.63,4.19-13.81,9.36-13.81c0.04,0,0.08,0,0.13,0
	c2.53,0.05,4.82,1.58,6.49,4.04C319.1,240.84,320.14,244.29,320.14,248.1z"/>
<path class="st10" d="M123.33,248.1v13.81h-18.72V248.1c0-7.63,4.19-13.81,9.36-13.81c0.04,0,0.08,0,0.13,0
	c2.53,0.05,4.82,1.58,6.49,4.04C122.28,240.84,123.33,244.29,123.33,248.1z"/>
<path class="st10" d="M56.9,308.3v13.81H38.17V308.3c0-7.63,4.19-13.81,9.36-13.81c0.04,0,0.08,0,0.13,0
	c2.53,0.05,4.82,1.58,6.49,4.04C55.85,301.04,56.9,304.49,56.9,308.3z"/>
<path class="st9" d="M275.45,386.86H148.87v-34.73h126.58V386.86z"/>
<rect x="81.63" y="382.92" class="st7" width="266.63" height="86.66"/>
<rect x="304.24" y="368.13" class="st7" width="15.44" height="15.44"/>
<rect x="164.68" y="368.13" class="st7" width="15.44" height="15.44"/>
<rect x="276.32" y="368.13" class="st7" width="15.44" height="15.44"/>
<rect x="108.86" y="368.13" class="st7" width="15.44" height="15.44"/>
<rect x="332.83" y="368.13" class="st7" width="15.44" height="15.44"/>
<rect x="248.41" y="368.13" class="st7" width="15.44" height="15.44"/>
<rect x="192.59" y="368.13" class="st7" width="15.44" height="15.44"/>
<rect x="136.77" y="368.13" class="st7" width="15.44" height="15.44"/>
<rect x="220.5" y="368.13" class="st7" width="15.44" height="15.44"/>
<path class="st10" d="M325.61,407.74v13.81h-18.72v-13.81c0-7.63,4.19-13.81,9.36-13.81c0.04,0,0.08,0,0.13,0
	c2.53,0.05,4.82,1.58,6.49,4.04C324.57,400.48,325.61,403.93,325.61,407.74z"/>
<rect x="81.63" y="445.65" class="st9" width="266.63" height="23.93"/>
<path class="st11" d="M183.6,469.58v-28.17c0-15.56,12.61-28.17,28.17-28.17h0c15.56,0,28.17,12.61,28.17,28.17v28.17"/>
<path class="st12" d="M239.94,441.41v28.17H183.6v-28.17c0-15.56,12.61-28.17,28.17-28.17c0.13,0,0.25,0,0.39,0.01
	c7.63,0.1,14.52,3.23,19.53,8.24C236.79,426.59,239.94,433.63,239.94,441.41z"/>
<path class="st1" d="M239.65,441.41v28.17h-27.79v-56.33c7.63,0.1,14.52,3.23,19.53,8.24C236.5,426.59,239.65,433.63,239.65,441.41z
	"/>
<circle class="st13" cx="205.21" cy="447.07" r="3.09"/>
<circle class="st13" cx="219.88" cy="447.07" r="3.09"/>
<path class="st10" d="M139.48,407.74v13.81h-18.72v-13.81c0-7.63,4.19-13.81,9.36-13.81c0.04,0,0.08,0,0.13,0
	c2.53,0.05,4.82,1.58,6.49,4.04C138.43,400.48,139.48,403.93,139.48,407.74z"/>
<rect y="469.45" class="st14" width="431.44" height="6.17"/>
<path class="st15" d="M256.29,158.41h-13.41c-0.77,0-1.4-0.63-1.4-1.4v-4.92c0-0.77,0.63-1.4,1.4-1.4h13.41c0.77,0,1.4,0.63,1.4,1.4
	v4.92C257.69,157.78,257.07,158.41,256.29,158.41z"/>
<path class="st15" d="M267.1,219.38h-13.41c-0.77,0-1.4-0.63-1.4-1.4v-4.92c0-0.77,0.63-1.4,1.4-1.4h13.41c0.77,0,1.4,0.63,1.4,1.4
	v4.92C268.5,218.76,267.87,219.38,267.1,219.38z"/>
<path class="st15" d="M244.72,149.92h-13.41c-0.77,0-1.4-0.63-1.4-1.4v-4.92c0-0.77,0.63-1.4,1.4-1.4h13.41c0.77,0,1.4,0.63,1.4,1.4
	v4.92C246.12,149.29,245.49,149.92,244.72,149.92z"/>
<path class="st15" d="M239.89,111.2h4.92c0.77,0,1.4-0.63,1.4-1.4v-0.88c0-0.77-0.63-1.4-1.4-1.4h-4.92c-0.77,0-1.4,0.63-1.4,1.4
	v0.88C238.49,110.57,239.12,111.2,239.89,111.2z"/>
<path class="st15" d="M235.85,107.16h4.92c0.77,0,1.4-0.63,1.4-1.4v-0.88c0-0.77-0.63-1.4-1.4-1.4h-4.92c-0.77,0-1.4,0.63-1.4,1.4
	v0.88C234.45,106.53,235.08,107.16,235.85,107.16z"/>
<path class="st15" d="M30.15,421.6H16.75c-0.77,0-1.4-0.63-1.4-1.4v-4.92c0-0.77,0.63-1.4,1.4-1.4h13.41c0.77,0,1.4,0.63,1.4,1.4
	v4.92C31.55,420.97,30.93,421.6,30.15,421.6z"/>
<path class="st15" d="M397.53,403.84h-13.41c-0.77,0-1.4-0.63-1.4-1.4v-4.92c0-0.77,0.63-1.4,1.4-1.4h13.41c0.77,0,1.4,0.63,1.4,1.4
	v4.92C398.93,403.22,398.31,403.84,397.53,403.84z"/>
<path class="st15" d="M338.11,307.37H324.7c-0.77,0-1.4-0.63-1.4-1.4v-4.92c0-0.77,0.63-1.4,1.4-1.4h13.41c0.77,0,1.4,0.63,1.4,1.4
	v4.92C339.51,306.74,338.88,307.37,338.11,307.37z"/>
<path class="st15" d="M328.84,298.11h-13.41c-0.77,0-1.4-0.63-1.4-1.4v-4.92c0-0.77,0.63-1.4,1.4-1.4h13.41c0.77,0,1.4,0.63,1.4,1.4
	v4.92C330.24,297.48,329.62,298.11,328.84,298.11z"/>
<path class="st15" d="M131.26,285.76h-13.41c-0.77,0-1.4-0.63-1.4-1.4v-4.92c0-0.77,0.63-1.4,1.4-1.4h13.41c0.77,0,1.4,0.63,1.4,1.4
	v4.92C132.66,285.13,132.03,285.76,131.26,285.76z"/>
<path class="st15" d="M184.52,401.53h-13.41c-0.77,0-1.4-0.63-1.4-1.4v-4.92c0-0.77,0.63-1.4,1.4-1.4h13.41c0.77,0,1.4,0.63,1.4,1.4
	v4.92C185.92,400.9,185.29,401.53,184.52,401.53z"/>
<path class="st15" d="M293.34,425.46h-13.41c-0.77,0-1.4-0.63-1.4-1.4v-4.92c0-0.77,0.63-1.4,1.4-1.4h13.41c0.77,0,1.4,0.63,1.4,1.4
	v4.92C294.74,424.83,294.11,425.46,293.34,425.46z"/>
<path class="st15" d="M276.36,425.46h-13.41c-0.77,0-1.4-0.63-1.4-1.4v-4.92c0-0.77,0.63-1.4,1.4-1.4h13.41c0.77,0,1.4,0.63,1.4,1.4
	v4.92C277.76,424.83,277.13,425.46,276.36,425.46z"/>
<path class="st15" d="M284.85,416.97h-13.41c-0.77,0-1.4-0.63-1.4-1.4v-4.92c0-0.77,0.63-1.4,1.4-1.4h13.41c0.77,0,1.4,0.63,1.4,1.4
	v4.92C286.25,416.34,285.62,416.97,284.85,416.97z"/>
<path class="st15" d="M405.25,412.33h-13.41c-0.77,0-1.4-0.63-1.4-1.4v-4.92c0-0.77,0.63-1.4,1.4-1.4h13.41c0.77,0,1.4,0.63,1.4,1.4
	v4.92C406.65,411.71,406.03,412.33,405.25,412.33z"/>
<path class="st15" d="M221.56,324.35h-13.41c-0.77,0-1.4-0.63-1.4-1.4v-4.92c0-0.77,0.63-1.4,1.4-1.4h13.41c0.77,0,1.4,0.63,1.4,1.4
	v4.92C222.96,323.72,222.34,324.35,221.56,324.35z"/>
<path class="st15" d="M204.58,324.35h-13.41c-0.77,0-1.4-0.63-1.4-1.4v-4.92c0-0.77,0.63-1.4,1.4-1.4h13.41c0.77,0,1.4,0.63,1.4,1.4
	v4.92C205.98,323.72,205.36,324.35,204.58,324.35z"/>
<path class="st15" d="M38.64,412.33H25.24c-0.77,0-1.4-0.63-1.4-1.4v-4.92c0-0.77,0.63-1.4,1.4-1.4h13.41c0.77,0,1.4,0.63,1.4,1.4
	v4.92C40.04,411.71,39.42,412.33,38.64,412.33z"/>
<path class="st15" d="M122,352.13h-13.41c-0.77,0-1.4-0.63-1.4-1.4v-4.92c0-0.77,0.63-1.4,1.4-1.4H122c0.77,0,1.4,0.63,1.4,1.4v4.92
	C123.4,351.51,122.77,352.13,122,352.13z"/>
<path class="st15" d="M113.51,343.64H100.1c-0.77,0-1.4-0.63-1.4-1.4v-4.92c0-0.77,0.63-1.4,1.4-1.4h13.41c0.77,0,1.4,0.63,1.4,1.4
	v4.92C114.91,343.02,114.28,343.64,113.51,343.64z"/>
<path class="st15" d="M184.52,250.26h-13.41c-0.77,0-1.4-0.63-1.4-1.4v-4.92c0-0.77,0.63-1.4,1.4-1.4h13.41c0.77,0,1.4,0.63,1.4,1.4
	v4.92C185.92,249.63,185.29,250.26,184.52,250.26z"/>
<path class="st15" d="M167.54,250.26h-13.41c-0.77,0-1.4-0.63-1.4-1.4v-4.92c0-0.77,0.63-1.4,1.4-1.4h13.41c0.77,0,1.4,0.63,1.4,1.4
	v4.92C168.94,249.63,168.31,250.26,167.54,250.26z"/>
<path class="st15" d="M176.03,241.77h-13.41c-0.77,0-1.4-0.63-1.4-1.4v-4.92c0-0.77,0.63-1.4,1.4-1.4h13.41c0.77,0,1.4,0.63,1.4,1.4
	v4.92C177.43,241.14,176.8,241.77,176.03,241.77z"/>
<path class="st15" d="M379.01,289.62H365.6c-0.77,0-1.4-0.63-1.4-1.4v-4.92c0-0.77,0.63-1.4,1.4-1.4h13.41c0.77,0,1.4,0.63,1.4,1.4
	v4.92C380.41,288.99,379.78,289.62,379.01,289.62z"/>
<path class="st15" d="M362.03,289.62h-13.41c-0.77,0-1.4-0.63-1.4-1.4v-4.92c0-0.77,0.63-1.4,1.4-1.4h13.41c0.77,0,1.4,0.63,1.4,1.4
	v4.92C363.43,288.99,362.8,289.62,362.03,289.62z"/>
<path class="st15" d="M369.75,355.99h-13.41c-0.77,0-1.4-0.63-1.4-1.4v-4.92c0-0.77,0.63-1.4,1.4-1.4h13.41c0.77,0,1.4,0.63,1.4,1.4
	v4.92C371.15,355.37,370.52,355.99,369.75,355.99z"/>
<path class="st15" d="M376.7,364.48h-13.41c-0.77,0-1.4-0.63-1.4-1.4v-4.92c0-0.77,0.63-1.4,1.4-1.4h13.41c0.77,0,1.4,0.63,1.4,1.4
	v4.92C378.1,363.86,377.47,364.48,376.7,364.48z"/>
<path class="st15" d="M67.71,355.16H54.31c-0.77,0-1.4-0.63-1.4-1.4v-4.92c0-0.77,0.63-1.4,1.4-1.4h13.41c0.77,0,1.4,0.63,1.4,1.4
	v4.92C69.11,354.53,68.49,355.16,67.71,355.16z"/>
<path class="st15" d="M76.2,345.89H62.79c-0.77,0-1.4-0.63-1.4-1.4v-4.92c0-0.77,0.63-1.4,1.4-1.4H76.2c0.77,0,1.4,0.63,1.4,1.4
	v4.92C77.6,345.27,76.98,345.89,76.2,345.89z"/>
<path class="st15" d="M30.15,280.36H16.75c-0.77,0-1.4-0.63-1.4-1.4v-4.92c0-0.77,0.63-1.4,1.4-1.4h13.41c0.77,0,1.4,0.63,1.4,1.4
	v4.92C31.55,279.73,30.93,280.36,30.15,280.36z"/>
<path class="st15" d="M183.54,114.42h-4.92c-0.77,0-1.4-0.63-1.4-1.4v-0.88c0-0.77,0.63-1.4,1.4-1.4h4.92c0.77,0,1.4,0.63,1.4,1.4
	v0.88C184.94,113.79,184.32,114.42,183.54,114.42z"/>
<path class="st15" d="M175.46,114.42h-4.92c-0.77,0-1.4-0.63-1.4-1.4v-0.88c0-0.77,0.63-1.4,1.4-1.4h4.92c0.77,0,1.4,0.63,1.4,1.4
	v0.88C176.86,113.79,176.23,114.42,175.46,114.42z"/>
<path class="st15" d="M179.5,110.37h-4.92c-0.77,0-1.4-0.63-1.4-1.4v-0.88c0-0.77,0.63-1.4,1.4-1.4h4.92c0.77,0,1.4,0.63,1.4,1.4
	v0.88C180.9,109.75,180.27,110.37,179.5,110.37z"/>
<path class="st15" d="M137.24,207.97h-4.92c-0.77,0-1.4-0.63-1.4-1.4v-0.88c0-0.77,0.63-1.4,1.4-1.4h4.92c0.77,0,1.4,0.63,1.4,1.4
	v0.88C138.64,207.34,138.01,207.97,137.24,207.97z"/>
<path class="st16" d="M129.15,207.97h-4.92c-0.77,0-1.4-0.63-1.4-1.4v-0.88c0-0.77,0.63-1.4,1.4-1.4h4.92c0.77,0,1.4,0.63,1.4,1.4
	v0.88C130.55,207.34,129.93,207.97,129.15,207.97z"/>
<path class="st15" d="M107.91,204.31h-4.92c-0.77,0-1.4-0.63-1.4-1.4v-0.88c0-0.77,0.63-1.4,1.4-1.4h4.92c0.77,0,1.4,0.63,1.4,1.4
	v0.88C109.31,203.69,108.68,204.31,107.91,204.31z"/>
<path class="st15" d="M99.82,204.31h-4.92c-0.77,0-1.4-0.63-1.4-1.4v-0.88c0-0.77,0.63-1.4,1.4-1.4h4.92c0.77,0,1.4,0.63,1.4,1.4
	v0.88C101.22,203.69,100.6,204.31,99.82,204.31z"/>
<path class="st15" d="M103.87,200.27h-4.92c-0.77,0-1.4-0.63-1.4-1.4v-0.88c0-0.77,0.63-1.4,1.4-1.4h4.92c0.77,0,1.4,0.63,1.4,1.4
	v0.88C105.27,199.64,104.64,200.27,103.87,200.27z"/>
<path class="st15" d="M303.95,199.2h-4.92c-0.77,0-1.4-0.63-1.4-1.4v-0.88c0-0.77,0.63-1.4,1.4-1.4h4.92c0.77,0,1.4,0.63,1.4,1.4
	v0.88C305.35,198.58,304.72,199.2,303.95,199.2z"/>
<path class="st15" d="M289.69,211.55h-4.92c-0.77,0-1.4-0.63-1.4-1.4v-0.88c0-0.77,0.63-1.4,1.4-1.4h4.92c0.77,0,1.4,0.63,1.4,1.4
	v0.88C291.09,210.92,290.46,211.55,289.69,211.55z"/>
<path class="st15" d="M293.73,207.51h-4.92c-0.77,0-1.4-0.63-1.4-1.4v-0.88c0-0.77,0.63-1.4,1.4-1.4h4.92c0.77,0,1.4,0.63,1.4,1.4
	v0.88C295.13,206.88,294.5,207.51,293.73,207.51z"/>
<path class="st15" d="M324.74,210.45h-4.92c-0.77,0-1.4-0.63-1.4-1.4v-0.88c0-0.77,0.63-1.4,1.4-1.4h4.92c0.77,0,1.4,0.63,1.4,1.4
	v0.88C326.14,209.82,325.52,210.45,324.74,210.45z"/>
<path class="st15" d="M332.64,210.45h-4.92c-0.77,0-1.4-0.63-1.4-1.4v-0.88c0-0.77,0.63-1.4,1.4-1.4h4.92c0.77,0,1.4,0.63,1.4,1.4
	v0.88C334.04,209.82,333.42,210.45,332.64,210.45z"/>
</svg>
