<svg xmlns="http://www.w3.org/2000/svg" viewBox="0 0 355.34357 391.62277"><title>targaryencastle</title><g style="isolation:isolate"><g id="Layer_1" data-name="Layer 1"><line x1="176.3331" y1="47.69218" x2="176.3331" fill="none" stroke="#333" stroke-miterlimit="10" stroke-width="2"/><path d="M218.21771,96.11623,176.33293,45.30816l-.03814.05085-.85818,1.03586-51.03215,61.90384-1.14421,1.39174H227.49859v-2.31322Z" fill="#8c7549"/><polygon points="227.499 107.473 227.499 109.093 175.437 109.093 175.437 45.105 175.761 44.711 176.295 45.359 218.135 96.116 227.499 107.473" fill="#0d0d0d" stroke="#000" stroke-miterlimit="10" opacity="0.1"/><polygon points="82.939 123.443 93.949 129.798 93.949 117.088 82.939 123.443" fill="#a60f0f"/><line x1="94.16529" y1="142.50758" x2="94.16529" y2="117.08766" fill="none" stroke="#333" stroke-miterlimit="10" stroke-width="2"/><polygon points="94.165 141.237 65.878 175.553 122.453 175.553 94.165 141.237" fill="#8c7549"/><rect x="64.71522" y="175.72741" width="58.30758" height="210.91729" fill="#262324"/><rect x="123.24752" y="108.29871" width="104.25107" height="278.3481" fill="#a60f0f"/><rect x="226.81291" y="175.72741" width="58.30758" height="210.91729" fill="#262324"/><rect x="284.79714" y="222.48025" width="55.2575" height="163.87254" fill="#a60f0f"/><rect x="66.67225" y="303.11312" width="12.71354" height="12.70996" fill="#353334"/><rect x="160.62709" y="96.11623" width="11.19149" height="12.70996" fill="#a60f0f"/><rect x="141.9373" y="96.11623" width="11.19149" height="12.70996" fill="#a60f0f"/><rect x="123.24752" y="96.11623" width="11.19149" height="12.70996" fill="#a60f0f"/><rect x="284.97293" y="210.29402" width="12.71354" height="12.70996" fill="#a60f0f"/><rect x="327.3411" y="210.29402" width="12.71354" height="12.70996" fill="#a60f0f"/><rect x="306.34316" y="210.29402" width="12.71354" height="12.70996" fill="#a60f0f"/><rect x="179.31687" y="96.11623" width="11.19149" height="12.70996" fill="#a60f0f"/><rect x="216.30432" y="96.11623" width="11.19427" height="12.70996" fill="#a60f0f"/><rect x="198.00665" y="96.11623" width="11.19149" height="12.70996" fill="#a60f0f"/><rect x="11.38103" y="222.77216" width="55.68533" height="163.87254" fill="#a60f0f"/><rect x="11.34773" y="210.39994" width="12.71354" height="12.70996" fill="#a60f0f"/><rect x="54.61497" y="210.39994" width="12.71354" height="12.70996" fill="#a60f0f"/><rect x="32.98135" y="210.39994" width="12.71354" height="12.70996" fill="#a60f0f"/><polygon points="122.148 175.236 93.689 175.236 93.689 141.129 93.86 140.919 122.148 175.236" fill="#0d0d0d" stroke="#000" stroke-miterlimit="10" opacity="0.1"/><polygon points="245.209 123.637 256.219 129.992 256.219 117.282 245.209 123.637" fill="#a60f0f"/><line x1="256.43496" y1="142.70157" x2="256.43496" y2="117.28165" fill="none" stroke="#333" stroke-miterlimit="10" stroke-width="2"/><polygon points="256.435 141.431 228.147 175.747 284.723 175.747 256.435 141.431" fill="#8c7549"/><polygon points="284.417 175.43 255.958 175.43 255.958 141.323 256.13 141.113 284.417 175.43" fill="#0d0d0d" stroke="#000" stroke-miterlimit="10" opacity="0.1"/><polygon points="155.271 11.923 175.928 23.846 175.928 0 155.271 11.923" fill="#a60f0f"/><rect x="285.34521" y="350.9509" width="55.9396" height="34.76843" fill="#0d0d0d" opacity="0.1"/><rect x="11.18097" y="351.49442" width="56.12695" height="34.76843" fill="#0d0d0d" opacity="0.1"/><path d="M149.6482,158.317v11.37H134.22968v-11.37c0-6.28,3.45122-11.37,7.70926-11.37.0359,0,.0697,0,.10561.00312a6.78011,6.78011,0,0,1,5.34579,3.32688A14.46468,14.46468,0,0,1,149.6482,158.317Z" fill="#8c7549" stroke="#8c7549" stroke-miterlimit="10"/><path d="M214.48728,158.317v11.37H199.06876v-11.37c0-6.28,3.45122-11.37,7.70926-11.37.0359,0,.0697,0,.1056.00312a6.78008,6.78008,0,0,1,5.34579,3.32688A14.4646,14.4646,0,0,1,214.48728,158.317Z" fill="#8c7549" stroke="#8c7549" stroke-miterlimit="10"/><path d="M182.06774,158.317v11.37H166.64922v-11.37c0-6.28,3.45122-11.37,7.70926-11.37.0359,0,.0697,0,.10561.00312a6.78011,6.78011,0,0,1,5.34579,3.32688A14.46468,14.46468,0,0,1,182.06774,158.317Z" fill="#8c7549" stroke="#8c7549" stroke-miterlimit="10"/><path d="M320.12439,253.8535v11.37H304.70587v-11.37c0-6.28,3.45122-11.37,7.70926-11.37.03591,0,.06971,0,.10561.00311a6.78011,6.78011,0,0,1,5.34579,3.32689A14.46465,14.46465,0,0,1,320.12439,253.8535Z" fill="#8c7549" stroke="#8c7549" stroke-miterlimit="10"/><path d="M263.676,204.28466v11.37H248.25744v-11.37c0-6.28,3.45122-11.37,7.70926-11.37.03591,0,.06971,0,.10561.00311a6.78011,6.78011,0,0,1,5.34579,3.32689A14.46465,14.46465,0,0,1,263.676,204.28466Z" fill="#8c7549" stroke="#8c7549" stroke-miterlimit="10"/><path d="M101.57827,204.28466v11.37H86.15975v-11.37c0-6.28,3.45122-11.37,7.70926-11.37.0359,0,.0697,0,.1056.00311a6.7801,6.7801,0,0,1,5.34579,3.32689A14.46457,14.46457,0,0,1,101.57827,204.28466Z" fill="#8c7549" stroke="#8c7549" stroke-miterlimit="10"/><path d="M46.86,253.8535v11.37H31.44151v-11.37c0-6.28,3.45122-11.37,7.70926-11.37.0359,0,.0697,0,.1056.00311a6.78011,6.78011,0,0,1,5.34579,3.32689A14.46457,14.46457,0,0,1,46.86,253.8535Z" fill="#8c7549" stroke="#8c7549" stroke-miterlimit="10"/><path d="M226.86291,318.5405H122.61184V289.9431H226.86291Z" fill="#0d0d0d" opacity="0.1"/><rect x="67.23406" y="315.2935" width="219.6041" height="71.3512" fill="#353334"/><rect x="250.57496" y="303.11312" width="12.71354" height="12.70996" fill="#353334"/><rect x="135.63576" y="303.11312" width="12.71354" height="12.70996" fill="#353334"/><rect x="227.58712" y="303.11312" width="12.71354" height="12.70996" fill="#353334"/><rect x="89.66009" y="303.11312" width="12.71354" height="12.70996" fill="#353334"/><rect x="274.12462" y="303.11312" width="12.71354" height="12.70996" fill="#353334"/><rect x="204.59928" y="303.11312" width="12.71354" height="12.70996" fill="#353334"/><rect x="158.6236" y="303.11312" width="12.71354" height="12.70996" fill="#353334"/><rect x="112.64793" y="303.11312" width="12.71354" height="12.70996" fill="#353334"/><rect x="181.61144" y="303.11312" width="12.71354" height="12.70996" fill="#353334"/><path d="M268.18193,335.73135v11.37H252.76341v-11.37c0-6.28,3.45122-11.37,7.70926-11.37.0359,0,.0697,0,.10561.00312a6.7801,6.7801,0,0,1,5.34579,3.32689A14.46462,14.46462,0,0,1,268.18193,335.73135Z" fill="#8c7549" stroke="#8c7549" stroke-miterlimit="10"/><rect x="64.27559" y="359.26533" width="219.6041" height="19.70044" fill="#0d0d0d" opacity="0.1"/><path d="M150.99741,386.59174V363.396a23.19892,23.19892,0,0,1,23.20219-23.19565h0A23.19892,23.19892,0,0,1,197.40184,363.396v23.1957" fill="none" stroke="#604020" stroke-miterlimit="10" stroke-width="10"/><path d="M197.15787,363.39607v23.19567H150.75343V363.39607a23.19764,23.19764,0,0,1,23.20222-23.19568c.10805,0,.20978,0,.31784.00636a23.19024,23.19024,0,0,1,22.88438,23.18932Z" fill="#d9d1ba"/><path d="M197.40184,363.39607v23.19567H174.51746v-46.385a23.19024,23.19024,0,0,1,22.88438,23.18932Z" fill="#8c7549"/><circle cx="168.79637" cy="369.32738" r="2.54235" fill="#5e5114" stroke="#5e5114" stroke-miterlimit="10"/><circle cx="180.87424" cy="369.32738" r="2.54235" fill="#5e5114" stroke="#5e5114" stroke-miterlimit="10"/><path d="M114.87749,335.73135v11.37H99.459v-11.37c0-6.28,3.45122-11.37,7.70926-11.37.0359,0,.06971,0,.10561.00312a6.78009,6.78009,0,0,1,5.34579,3.32689A14.46462,14.46462,0,0,1,114.87749,335.73135Z" fill="#8c7549" stroke="#8c7549" stroke-miterlimit="10"/><rect y="386.53878" width="355.34357" height="5.08398" fill="#0d0d0d"/><rect x="198.89311" y="124.07814" width="13.34922" height="6.35498" rx="1.4" fill="#999" opacity="0.8" style="mix-blend-mode:soft-light"/><rect x="207.79259" y="174.28247" width="13.34922" height="6.35498" rx="1.4" fill="#999" opacity="0.8" style="mix-blend-mode:soft-light"/><rect x="189.35795" y="117.08766" width="13.34922" height="6.35498" rx="1.4" fill="#999" opacity="0.8" style="mix-blend-mode:soft-light"/><rect x="196.42942" y="88.53453" width="6.35677" height="3.02618" rx="1.4" transform="translate(399.21562 180.09524) rotate(-180)" fill="#999" opacity="0.8" style="mix-blend-mode:soft-light"/><rect x="193.09969" y="85.20573" width="6.35677" height="3.02618" rx="1.4" transform="translate(392.55614 173.43764) rotate(-180)" fill="#999" opacity="0.8" style="mix-blend-mode:soft-light"/><rect x="12.63968" y="340.78293" width="13.34922" height="6.35498" rx="1.4" fill="#999" opacity="0.8" style="mix-blend-mode:soft-light"/><rect x="315.22204" y="326.16648" width="13.34922" height="6.35498" rx="1.4" fill="#999" opacity="0.8" style="mix-blend-mode:soft-light"/><rect x="266.2749" y="246.72924" width="13.34922" height="6.35498" rx="1.4" fill="#999" opacity="0.8" style="mix-blend-mode:soft-light"/><rect x="258.64677" y="239.10326" width="13.34922" height="6.35498" rx="1.4" fill="#999" opacity="0.8" style="mix-blend-mode:soft-light"/><rect x="95.9134" y="228.9353" width="13.34922" height="6.35498" rx="1.4" fill="#999" opacity="0.8" style="mix-blend-mode:soft-light"/><rect x="139.77513" y="324.25999" width="13.34922" height="6.35498" rx="1.4" fill="#999" opacity="0.8" style="mix-blend-mode:soft-light"/><rect x="229.40562" y="343.96042" width="13.34922" height="6.35498" rx="1.4" fill="#999" opacity="0.8" style="mix-blend-mode:soft-light"/><rect x="215.42072" y="343.96042" width="13.34922" height="6.35498" rx="1.4" fill="#999" opacity="0.8" style="mix-blend-mode:soft-light"/><rect x="222.41317" y="336.96994" width="13.34922" height="6.35498" rx="1.4" fill="#999" opacity="0.8" style="mix-blend-mode:soft-light"/><rect x="321.57882" y="333.15696" width="13.34922" height="6.35498" rx="1.4" fill="#999" opacity="0.8" style="mix-blend-mode:soft-light"/><rect x="170.28764" y="260.71019" width="13.34922" height="6.35498" rx="1.4" fill="#999" opacity="0.8" style="mix-blend-mode:soft-light"/><rect x="156.30274" y="260.71019" width="13.34922" height="6.35498" rx="1.4" fill="#999" opacity="0.8" style="mix-blend-mode:soft-light"/><rect x="19.63213" y="333.15696" width="13.34922" height="6.35498" rx="1.4" fill="#999" opacity="0.8" style="mix-blend-mode:soft-light"/><rect x="88.28527" y="283.58812" width="13.34922" height="6.35498" rx="1.4" fill="#999" opacity="0.8" style="mix-blend-mode:soft-light"/><rect x="81.29282" y="276.59764" width="13.34922" height="6.35498" rx="1.4" fill="#999" opacity="0.8" style="mix-blend-mode:soft-light"/><rect x="139.77513" y="199.70239" width="13.34922" height="6.35498" rx="1.4" fill="#999" opacity="0.8" style="mix-blend-mode:soft-light"/><rect x="125.79023" y="199.70239" width="13.34922" height="6.35498" rx="1.4" fill="#999" opacity="0.8" style="mix-blend-mode:soft-light"/><rect x="132.78268" y="192.71191" width="13.34922" height="6.35498" rx="1.4" fill="#999" opacity="0.8" style="mix-blend-mode:soft-light"/><rect x="299.96579" y="232.11278" width="13.34922" height="6.35498" rx="1.4" fill="#999" opacity="0.8" style="mix-blend-mode:soft-light"/><rect x="285.98089" y="232.11278" width="13.34922" height="6.35498" rx="1.4" fill="#999" opacity="0.8" style="mix-blend-mode:soft-light"/><rect x="292.33766" y="286.76561" width="13.34922" height="6.35498" rx="1.4" fill="#999" opacity="0.8" style="mix-blend-mode:soft-light"/><rect x="298.05876" y="293.75608" width="13.34922" height="6.35498" rx="1.4" fill="#999" opacity="0.8" style="mix-blend-mode:soft-light"/><rect x="43.57374" y="286.07659" width="13.34922" height="6.35498" rx="1.4" fill="#999" opacity="0.8" style="mix-blend-mode:soft-light"/><rect x="50.56619" y="278.45062" width="13.34922" height="6.35498" rx="1.4" fill="#999" opacity="0.8" style="mix-blend-mode:soft-light"/><rect x="12.63968" y="224.48681" width="13.34922" height="6.35498" rx="1.4" fill="#999" opacity="0.8" style="mix-blend-mode:soft-light"/><rect x="145.96541" y="91.18355" width="6.35677" height="3.02618" rx="1.4" fill="#999" opacity="0.8" style="mix-blend-mode:soft-light"/><rect x="139.30594" y="91.18355" width="6.35677" height="3.02618" rx="1.4" fill="#999" opacity="0.8" style="mix-blend-mode:soft-light"/><rect x="142.63568" y="87.85475" width="6.35677" height="3.02618" rx="1.4" fill="#999" opacity="0.8" style="mix-blend-mode:soft-light"/><rect x="107.82812" y="168.21387" width="6.35677" height="3.02618" rx="1.4" fill="#999" opacity="0.8" style="mix-blend-mode:soft-light"/><rect x="101.16865" y="168.21387" width="6.35677" height="3.02618" rx="1.4" fill="#999" opacity="0.8" style="mix-blend-mode:soft-light"/><rect x="83.67239" y="165.20234" width="6.35677" height="3.02618" rx="1.4" fill="#999" opacity="0.8" style="mix-blend-mode:soft-light"/><rect x="77.01291" y="165.20234" width="6.35677" height="3.02618" rx="1.4" fill="#999" opacity="0.8" style="mix-blend-mode:soft-light"/><rect x="80.34265" y="161.87354" width="6.35677" height="3.02618" rx="1.4" fill="#999" opacity="0.8" style="mix-blend-mode:soft-light"/><rect x="245.13441" y="160.99467" width="6.35677" height="3.02618" rx="1.4" fill="#999" opacity="0.8" style="mix-blend-mode:soft-light"/><rect x="233.38951" y="171.16264" width="6.35677" height="3.02618" rx="1.4" fill="#999" opacity="0.8" style="mix-blend-mode:soft-light"/><rect x="236.71925" y="167.83384" width="6.35677" height="3.02618" rx="1.4" fill="#999" opacity="0.8" style="mix-blend-mode:soft-light"/><rect x="262.26137" y="170.25749" width="6.35677" height="3.02618" rx="1.4" fill="#999" opacity="0.8" style="mix-blend-mode:soft-light"/><rect x="268.76949" y="170.25749" width="6.35677" height="3.02618" rx="1.4" fill="#999" opacity="0.8" style="mix-blend-mode:soft-light"/></g></g></svg>